%TF.GenerationSoftware,KiCad,Pcbnew,9.0.7*%
%TF.CreationDate,2026-06-21T11:52:19-05:00*%
%TF.ProjectId,GlowPad,476c6f77-5061-4642-9e6b-696361645f70,rev?*%
%TF.SameCoordinates,Original*%
%TF.FileFunction,Paste,Top*%
%TF.FilePolarity,Positive*%
%FSLAX46Y46*%
G04 Gerber Fmt 4.6, Leading zero omitted, Abs format (unit mm)*
G04 Created by KiCad (PCBNEW 9.0.7) date 2026-06-21 11:52:19*
%MOMM*%
%LPD*%
G01*
G04 APERTURE LIST*
G04 Aperture macros list*
%AMRoundRect*
0 Rectangle with rounded corners*
0 $1 Rounding radius*
0 $2 $3 $4 $5 $6 $7 $8 $9 X,Y pos of 4 corners*
0 Add a 4 corners polygon primitive as box body*
4,1,4,$2,$3,$4,$5,$6,$7,$8,$9,$2,$3,0*
0 Add four circle primitives for the rounded corners*
1,1,$1+$1,$2,$3*
1,1,$1+$1,$4,$5*
1,1,$1+$1,$6,$7*
1,1,$1+$1,$8,$9*
0 Add four rect primitives between the rounded corners*
20,1,$1+$1,$2,$3,$4,$5,0*
20,1,$1+$1,$4,$5,$6,$7,0*
20,1,$1+$1,$6,$7,$8,$9,0*
20,1,$1+$1,$8,$9,$2,$3,0*%
G04 Aperture macros list end*
%ADD10RoundRect,0.225000X-0.225000X-0.250000X0.225000X-0.250000X0.225000X0.250000X-0.225000X0.250000X0*%
%ADD11R,0.900000X0.900000*%
%ADD12R,1.500000X0.900000*%
%ADD13R,0.900000X1.500000*%
%ADD14RoundRect,0.150000X-0.200000X0.150000X-0.200000X-0.150000X0.200000X-0.150000X0.200000X0.150000X0*%
%ADD15RoundRect,0.200000X-0.200000X-0.275000X0.200000X-0.275000X0.200000X0.275000X-0.200000X0.275000X0*%
%ADD16RoundRect,0.225000X-0.250000X0.225000X-0.250000X-0.225000X0.250000X-0.225000X0.250000X0.225000X0*%
%ADD17RoundRect,0.200000X0.200000X0.275000X-0.200000X0.275000X-0.200000X-0.275000X0.200000X-0.275000X0*%
%ADD18R,0.920000X0.480000*%
%ADD19R,0.920000X0.240000*%
%ADD20RoundRect,0.200000X0.275000X-0.200000X0.275000X0.200000X-0.275000X0.200000X-0.275000X-0.200000X0*%
%ADD21RoundRect,0.225000X0.250000X-0.225000X0.250000X0.225000X-0.250000X0.225000X-0.250000X-0.225000X0*%
%ADD22RoundRect,0.218750X0.218750X0.256250X-0.218750X0.256250X-0.218750X-0.256250X0.218750X-0.256250X0*%
%ADD23R,0.558800X0.558800*%
%ADD24RoundRect,0.200000X-0.275000X0.200000X-0.275000X-0.200000X0.275000X-0.200000X0.275000X0.200000X0*%
%ADD25RoundRect,0.218750X-0.256250X0.218750X-0.256250X-0.218750X0.256250X-0.218750X0.256250X0.218750X0*%
%ADD26RoundRect,0.175000X-0.325000X0.175000X-0.325000X-0.175000X0.325000X-0.175000X0.325000X0.175000X0*%
%ADD27R,1.422400X0.812800*%
%ADD28RoundRect,0.150000X0.587500X0.150000X-0.587500X0.150000X-0.587500X-0.150000X0.587500X-0.150000X0*%
%ADD29R,1.450000X4.000000*%
G04 APERTURE END LIST*
D10*
%TO.C,C18*%
X127550000Y-107000000D03*
X129100000Y-107000000D03*
%TD*%
D11*
%TO.C,U1*%
X104465000Y-82620000D03*
X104465000Y-84020000D03*
X104465000Y-85420000D03*
X105865000Y-82620000D03*
X105865000Y-84020000D03*
X105865000Y-85420000D03*
X107265000Y-82620000D03*
X107265000Y-84020000D03*
X107265000Y-85420000D03*
D12*
X98615000Y-76300000D03*
X98615000Y-77570000D03*
X98615000Y-78840000D03*
X98615000Y-80110000D03*
X98615000Y-81380000D03*
X98615000Y-82650000D03*
X98615000Y-83920000D03*
X98615000Y-85190000D03*
X98615000Y-86460000D03*
X98615000Y-87730000D03*
X98615000Y-89000000D03*
X98615000Y-90270000D03*
X98615000Y-91540000D03*
X98615000Y-92810000D03*
D13*
X100380000Y-94060000D03*
X101650000Y-94060000D03*
X102920000Y-94060000D03*
X104190000Y-94060000D03*
X105460000Y-94060000D03*
X106730000Y-94060000D03*
X108000000Y-94060000D03*
X109270000Y-94060000D03*
X110540000Y-94060000D03*
X111810000Y-94060000D03*
X113080000Y-94060000D03*
X114350000Y-94060000D03*
D12*
X116115000Y-92810000D03*
X116115000Y-91540000D03*
X116115000Y-90270000D03*
X116115000Y-89000000D03*
X116115000Y-87730000D03*
X116115000Y-86460000D03*
X116115000Y-85190000D03*
X116115000Y-83920000D03*
X116115000Y-82650000D03*
X116115000Y-81380000D03*
X116115000Y-80110000D03*
X116115000Y-78840000D03*
X116115000Y-77570000D03*
X116115000Y-76300000D03*
%TD*%
D14*
%TO.C,D5*%
X62725000Y-87910000D03*
X62725000Y-86510000D03*
%TD*%
D15*
%TO.C,R3*%
X79752500Y-98600000D03*
X81402500Y-98600000D03*
%TD*%
D16*
%TO.C,C1*%
X91300000Y-82450000D03*
X91300000Y-84000000D03*
%TD*%
%TO.C,C21*%
X64912500Y-96400000D03*
X64912500Y-97950000D03*
%TD*%
D10*
%TO.C,C16*%
X61525000Y-107000000D03*
X63075000Y-107000000D03*
%TD*%
D17*
%TO.C,R4*%
X66025000Y-100900000D03*
X64375000Y-100900000D03*
%TD*%
D18*
%TO.C,J1*%
X60000000Y-88400000D03*
X60000000Y-89200000D03*
D19*
X60000000Y-90350000D03*
X60000000Y-91350000D03*
X60000000Y-91850000D03*
X60000000Y-92850000D03*
D18*
X60000000Y-94000000D03*
X60000000Y-94800000D03*
D19*
X60000000Y-93350000D03*
X60000000Y-92350000D03*
X60000000Y-90850000D03*
X60000000Y-89850000D03*
%TD*%
D15*
%TO.C,R17*%
X63075000Y-94100000D03*
X64725000Y-94100000D03*
%TD*%
D20*
%TO.C,R6*%
X55900000Y-101260000D03*
X55900000Y-99610000D03*
%TD*%
D21*
%TO.C,C2*%
X96565000Y-77635000D03*
X96565000Y-76085000D03*
%TD*%
D22*
%TO.C,D1*%
X78100000Y-98600000D03*
X76525000Y-98600000D03*
%TD*%
D16*
%TO.C,C22*%
X71112500Y-96400000D03*
X71112500Y-97950000D03*
%TD*%
D10*
%TO.C,C24*%
X105550000Y-107000000D03*
X107100000Y-107000000D03*
%TD*%
D23*
%TO.C,LED5*%
X149525000Y-104525020D03*
X149525000Y-105474980D03*
X150475000Y-105474980D03*
X150475000Y-104525020D03*
%TD*%
D15*
%TO.C,R18*%
X63075000Y-90400000D03*
X64725000Y-90400000D03*
%TD*%
D24*
%TO.C,R2*%
X72400000Y-101575000D03*
X72400000Y-103225000D03*
%TD*%
D10*
%TO.C,C25*%
X149525000Y-107000000D03*
X151075000Y-107000000D03*
%TD*%
D23*
%TO.C,LED4*%
X127525000Y-104525020D03*
X127525000Y-105474980D03*
X128475000Y-105474980D03*
X128475000Y-104525020D03*
%TD*%
%TO.C,LED3*%
X105525000Y-104525020D03*
X105525000Y-105474980D03*
X106475000Y-105474980D03*
X106475000Y-104525020D03*
%TD*%
D20*
%TO.C,R16*%
X59425000Y-85335000D03*
X59425000Y-83685000D03*
%TD*%
D24*
%TO.C,R1*%
X92900000Y-80775000D03*
X92900000Y-82425000D03*
%TD*%
D25*
%TO.C,D2*%
X55900000Y-102912500D03*
X55900000Y-104487500D03*
%TD*%
D26*
%TO.C,U6*%
X66712500Y-96375000D03*
X66712500Y-97325000D03*
X66712500Y-98275000D03*
X69312500Y-98275000D03*
X69312500Y-96375000D03*
%TD*%
D10*
%TO.C,C17*%
X83525000Y-107000000D03*
X85075000Y-107000000D03*
%TD*%
D27*
%TO.C,SW1*%
X89400200Y-84025000D03*
X89400200Y-82375000D03*
X86199800Y-82375000D03*
X86199800Y-84025000D03*
%TD*%
%TO.C,SW2*%
X120864800Y-91135000D03*
X120864800Y-92785000D03*
X124065200Y-92785000D03*
X124065200Y-91135000D03*
%TD*%
D17*
%TO.C,R31*%
X142375000Y-90700000D03*
X140725000Y-90700000D03*
%TD*%
D23*
%TO.C,LED2*%
X83525000Y-104525020D03*
X83525000Y-105474980D03*
X84475000Y-105474980D03*
X84475000Y-104525020D03*
%TD*%
%TO.C,LED1*%
X61525000Y-104525020D03*
X61525000Y-105474980D03*
X62475000Y-105474980D03*
X62475000Y-104525020D03*
%TD*%
D28*
%TO.C,Q1*%
X70337500Y-103450000D03*
X70337500Y-101550000D03*
X68462500Y-102500000D03*
%TD*%
D17*
%TO.C,R5*%
X66025000Y-102500000D03*
X64375000Y-102500000D03*
%TD*%
D21*
%TO.C,C3*%
X94965000Y-77635000D03*
X94965000Y-76085000D03*
%TD*%
D29*
%TO.C,LS1*%
X156675000Y-90700000D03*
X145725000Y-90700000D03*
%TD*%
M02*
