%TF.GenerationSoftware,KiCad,Pcbnew,9.0.7*%
%TF.CreationDate,2026-06-21T11:52:19-05:00*%
%TF.ProjectId,GlowPad,476c6f77-5061-4642-9e6b-696361645f70,rev?*%
%TF.SameCoordinates,Original*%
%TF.FileFunction,Legend,Top*%
%TF.FilePolarity,Positive*%
%FSLAX46Y46*%
G04 Gerber Fmt 4.6, Leading zero omitted, Abs format (unit mm)*
G04 Created by KiCad (PCBNEW 9.0.7) date 2026-06-21 11:52:19*
%MOMM*%
%LPD*%
G01*
G04 APERTURE LIST*
%ADD10C,0.101600*%
%ADD11C,0.254000*%
%ADD12C,0.150000*%
%ADD13C,0.125000*%
%ADD14C,0.120000*%
%ADD15C,0.200000*%
%ADD16C,0.010000*%
%ADD17C,0.050000*%
%ADD18C,0.152400*%
%ADD19C,0.100000*%
G04 APERTURE END LIST*
D10*
G36*
X145319384Y-82105027D02*
G01*
X145448127Y-82105027D01*
X145448127Y-82361863D01*
X145403516Y-82402847D01*
X145352074Y-82435059D01*
X145292799Y-82458783D01*
X145224316Y-82473713D01*
X145144949Y-82478974D01*
X145079287Y-82474395D01*
X145019523Y-82461082D01*
X144964733Y-82439356D01*
X144914163Y-82409111D01*
X144867269Y-82369819D01*
X144827024Y-82323861D01*
X144796056Y-82273961D01*
X144773793Y-82219543D01*
X144760126Y-82159798D01*
X144755415Y-82093720D01*
X144760180Y-82027797D01*
X144774036Y-81967894D01*
X144796672Y-81913033D01*
X144828253Y-81862429D01*
X144869409Y-81815528D01*
X144917362Y-81775118D01*
X144968308Y-81744221D01*
X145022737Y-81722183D01*
X145081336Y-81708772D01*
X145144949Y-81704186D01*
X145209470Y-81708250D01*
X145267903Y-81720020D01*
X145321105Y-81739099D01*
X145369797Y-81765420D01*
X145414534Y-81799243D01*
X145345672Y-81897604D01*
X145299741Y-81864579D01*
X145256943Y-81845120D01*
X145210905Y-81834625D01*
X145154581Y-81830835D01*
X145099521Y-81835572D01*
X145050408Y-81849297D01*
X145006128Y-81871782D01*
X144965862Y-81903466D01*
X144932823Y-81942107D01*
X144909211Y-81986028D01*
X144894643Y-82036268D01*
X144889556Y-82094278D01*
X144894538Y-82152409D01*
X144908764Y-82202491D01*
X144931729Y-82246004D01*
X144963722Y-82284021D01*
X145002954Y-82315430D01*
X145045458Y-82337544D01*
X145091959Y-82350940D01*
X145143460Y-82355535D01*
X145196445Y-82352427D01*
X145242838Y-82343570D01*
X145283557Y-82329479D01*
X145319384Y-82310402D01*
X145319384Y-82105027D01*
G37*
G36*
X145715711Y-82470460D02*
G01*
X145593342Y-82470460D01*
X145593342Y-81676455D01*
X145715711Y-81676455D01*
X145715711Y-82470460D01*
G37*
G36*
X146210686Y-81897390D02*
G01*
X146266519Y-81913474D01*
X146316661Y-81939828D01*
X146362082Y-81977027D01*
X146399794Y-82022288D01*
X146426290Y-82071467D01*
X146442329Y-82125437D01*
X146447834Y-82185427D01*
X146442330Y-82245393D01*
X146426292Y-82299347D01*
X146399796Y-82348520D01*
X146362082Y-82393781D01*
X146316661Y-82430980D01*
X146266519Y-82457334D01*
X146210686Y-82473418D01*
X146147819Y-82478974D01*
X146084978Y-82473420D01*
X146029152Y-82457338D01*
X145979000Y-82430984D01*
X145933557Y-82393781D01*
X145895865Y-82348523D01*
X145869383Y-82299351D01*
X145853353Y-82245396D01*
X145847852Y-82185427D01*
X145970221Y-82185427D01*
X145973575Y-82225527D01*
X145983187Y-82260436D01*
X145998743Y-82291088D01*
X146020425Y-82318172D01*
X146047094Y-82340504D01*
X146076771Y-82356349D01*
X146110063Y-82366042D01*
X146147819Y-82369400D01*
X146185601Y-82366041D01*
X146218908Y-82356347D01*
X146248592Y-82340502D01*
X146275260Y-82318172D01*
X146296942Y-82291088D01*
X146312498Y-82260436D01*
X146322110Y-82225527D01*
X146325464Y-82185427D01*
X146322109Y-82145302D01*
X146312495Y-82110386D01*
X146296938Y-82079744D01*
X146275260Y-82052682D01*
X146248589Y-82030331D01*
X146218904Y-82014472D01*
X146185598Y-82004769D01*
X146147819Y-82001408D01*
X146110065Y-82004769D01*
X146076775Y-82014470D01*
X146047097Y-82030329D01*
X146020425Y-82052682D01*
X145998747Y-82079744D01*
X145983191Y-82110386D01*
X145973577Y-82145302D01*
X145970221Y-82185427D01*
X145847852Y-82185427D01*
X145853354Y-82125434D01*
X145869385Y-82071464D01*
X145895867Y-82022285D01*
X145933557Y-81977027D01*
X145979000Y-81939825D01*
X146029152Y-81913470D01*
X146084978Y-81897389D01*
X146147819Y-81891834D01*
X146210686Y-81897390D01*
G37*
G36*
X146841044Y-82470460D02*
G01*
X146702436Y-82470460D01*
X146505250Y-81900349D01*
X146632086Y-81900349D01*
X146771763Y-82325570D01*
X146911395Y-81900349D01*
X147037207Y-81900349D01*
X147176838Y-82325570D01*
X147316516Y-81900349D01*
X147443306Y-81900349D01*
X147246166Y-82470460D01*
X147107558Y-82470460D01*
X146974301Y-82085485D01*
X146841044Y-82470460D01*
G37*
G36*
X147906986Y-81727369D02*
G01*
X147975168Y-81740996D01*
X148027843Y-81761463D01*
X148068041Y-81787750D01*
X148095101Y-81815323D01*
X148116552Y-81848258D01*
X148132532Y-81887403D01*
X148142717Y-81933929D01*
X148146348Y-81989264D01*
X148142632Y-82044547D01*
X148132231Y-82090769D01*
X148115932Y-82129436D01*
X148094053Y-82161769D01*
X148066412Y-82188638D01*
X148025560Y-82214210D01*
X147973044Y-82234011D01*
X147906188Y-82247106D01*
X147821813Y-82251916D01*
X147691115Y-82251916D01*
X147691115Y-82470460D01*
X147562325Y-82470460D01*
X147562325Y-82134851D01*
X147691115Y-82134851D01*
X147835679Y-82134851D01*
X147889532Y-82131632D01*
X147928966Y-82123162D01*
X147957213Y-82110821D01*
X147976892Y-82095349D01*
X147996787Y-82066729D01*
X148009624Y-82028936D01*
X148014347Y-81979214D01*
X148010916Y-81941276D01*
X148001507Y-81911704D01*
X147986865Y-81888683D01*
X147966888Y-81870989D01*
X147933503Y-81854848D01*
X147885316Y-81843655D01*
X147817579Y-81839350D01*
X147691115Y-81839350D01*
X147691115Y-82134851D01*
X147562325Y-82134851D01*
X147562325Y-81722332D01*
X147819673Y-81722332D01*
X147906986Y-81727369D01*
G37*
G36*
X148547779Y-81895331D02*
G01*
X148591273Y-81905283D01*
X148629131Y-81921171D01*
X148662207Y-81942876D01*
X148689090Y-81970558D01*
X148708880Y-82005366D01*
X148721551Y-82048882D01*
X148726137Y-82103305D01*
X148726137Y-82470460D01*
X148614422Y-82470460D01*
X148614422Y-82397364D01*
X148577562Y-82432762D01*
X148534927Y-82457958D01*
X148485370Y-82473516D01*
X148427192Y-82478974D01*
X148383177Y-82475596D01*
X148344466Y-82465895D01*
X148310172Y-82450219D01*
X148279605Y-82428491D01*
X148254097Y-82401288D01*
X148236011Y-82370296D01*
X148224902Y-82334758D01*
X148221026Y-82293559D01*
X148221293Y-82290953D01*
X148343442Y-82290953D01*
X148347085Y-82316471D01*
X148357461Y-82336812D01*
X148374895Y-82353255D01*
X148396926Y-82364562D01*
X148425664Y-82372003D01*
X148462880Y-82374751D01*
X148499539Y-82371129D01*
X148532162Y-82360595D01*
X148561613Y-82343158D01*
X148585127Y-82319489D01*
X148598977Y-82291540D01*
X148603767Y-82257872D01*
X148603767Y-82211390D01*
X148470929Y-82211390D01*
X148418064Y-82215782D01*
X148383056Y-82226974D01*
X148360807Y-82243062D01*
X148347944Y-82263859D01*
X148343442Y-82290953D01*
X148221293Y-82290953D01*
X148225232Y-82252557D01*
X148237110Y-82218745D01*
X148256282Y-82190599D01*
X148283374Y-82167188D01*
X148326923Y-82144960D01*
X148382076Y-82130530D01*
X148451713Y-82125266D01*
X148604837Y-82125266D01*
X148604837Y-82105445D01*
X148601110Y-82070167D01*
X148590911Y-82043284D01*
X148574855Y-82022802D01*
X148552358Y-82007602D01*
X148521751Y-81997632D01*
X148480514Y-81993917D01*
X148442777Y-81997208D01*
X148403166Y-82007421D01*
X148361091Y-82025338D01*
X148315990Y-82052077D01*
X148260994Y-81975120D01*
X148315719Y-81938361D01*
X148372892Y-81912562D01*
X148433217Y-81897077D01*
X148497590Y-81891834D01*
X148547779Y-81895331D01*
G37*
G36*
X149436437Y-82470460D02*
G01*
X149314068Y-82470460D01*
X149314068Y-82388384D01*
X149286319Y-82420676D01*
X149254076Y-82445574D01*
X149216742Y-82463670D01*
X149173343Y-82474988D01*
X149122604Y-82478974D01*
X149070251Y-82473893D01*
X149021975Y-82458908D01*
X148976770Y-82433797D01*
X148933932Y-82397550D01*
X148899336Y-82354505D01*
X148874414Y-82305300D01*
X148858949Y-82248745D01*
X148853931Y-82188079D01*
X148975900Y-82188079D01*
X148979342Y-82227792D01*
X148989217Y-82262388D01*
X149005247Y-82292814D01*
X149027686Y-82319754D01*
X149064675Y-82348204D01*
X149104759Y-82364846D01*
X149149218Y-82370470D01*
X149183026Y-82367218D01*
X149213586Y-82357705D01*
X149241610Y-82341900D01*
X149267586Y-82319243D01*
X149288568Y-82292246D01*
X149303643Y-82261774D01*
X149312959Y-82227163D01*
X149316208Y-82187521D01*
X149312996Y-82147922D01*
X149303730Y-82112831D01*
X149288653Y-82081455D01*
X149267586Y-82053194D01*
X149241456Y-82029278D01*
X149213227Y-82012659D01*
X149182393Y-82002679D01*
X149148194Y-81999268D01*
X149114004Y-82002650D01*
X149082786Y-82012591D01*
X149053832Y-82029213D01*
X149026663Y-82053194D01*
X149004609Y-82081601D01*
X148988883Y-82113108D01*
X148979240Y-82148326D01*
X148975900Y-82188079D01*
X148853931Y-82188079D01*
X148853531Y-82183241D01*
X148857127Y-82130105D01*
X148867442Y-82083173D01*
X148884026Y-82041506D01*
X148906794Y-82004340D01*
X148936026Y-81971118D01*
X148979708Y-81936149D01*
X149026513Y-81911645D01*
X149077194Y-81896877D01*
X149132794Y-81891834D01*
X149177344Y-81895681D01*
X149216949Y-81906812D01*
X149252537Y-81925028D01*
X149284784Y-81950683D01*
X149314068Y-81984658D01*
X149314068Y-81676455D01*
X149436437Y-81676455D01*
X149436437Y-82470460D01*
G37*
G36*
X149888924Y-82208226D02*
G01*
X149888924Y-82093301D01*
X150245796Y-82093301D01*
X150245796Y-82208226D01*
X149888924Y-82208226D01*
G37*
G36*
X150999507Y-81840420D02*
G01*
X150999507Y-82470460D01*
X150870764Y-82470460D01*
X150870764Y-81840420D01*
X150644729Y-81840420D01*
X150644729Y-81722332D01*
X151225542Y-81722332D01*
X151225542Y-81840420D01*
X150999507Y-81840420D01*
G37*
G36*
X151885452Y-81722332D02*
G01*
X151885452Y-81843631D01*
X151487822Y-81843631D01*
X151487822Y-82037840D01*
X151844973Y-82037840D01*
X151844973Y-82152765D01*
X151487822Y-82152765D01*
X151487822Y-82349160D01*
X151898247Y-82349160D01*
X151898247Y-82470460D01*
X151359031Y-82470460D01*
X151359031Y-81722332D01*
X151885452Y-81722332D01*
G37*
G36*
X152283641Y-81823344D02*
G01*
X152247824Y-81826060D01*
X152218476Y-81833618D01*
X152194400Y-81845445D01*
X152175241Y-81862546D01*
X152163818Y-81884222D01*
X152159783Y-81911981D01*
X152163789Y-81939805D01*
X152175226Y-81962068D01*
X152194493Y-81980145D01*
X152219757Y-81993527D01*
X152266394Y-82010490D01*
X152343895Y-82031605D01*
X152418954Y-82054435D01*
X152475476Y-82080745D01*
X152517027Y-82109772D01*
X152541849Y-82136854D01*
X152559976Y-82169769D01*
X152571453Y-82209734D01*
X152575559Y-82258430D01*
X152570777Y-82305969D01*
X152556943Y-82347628D01*
X152534139Y-82384650D01*
X152501533Y-82417836D01*
X152463149Y-82443773D01*
X152418796Y-82462801D01*
X152367385Y-82474758D01*
X152307557Y-82478974D01*
X152238820Y-82474085D01*
X152173907Y-82459641D01*
X152112067Y-82435665D01*
X152052674Y-82401768D01*
X151995259Y-82357163D01*
X152076032Y-82260012D01*
X152136275Y-82305057D01*
X152194921Y-82335440D01*
X152252762Y-82352988D01*
X152310767Y-82358745D01*
X152350245Y-82355533D01*
X152381512Y-82346704D01*
X152406243Y-82333015D01*
X152426020Y-82313699D01*
X152437524Y-82291327D01*
X152441465Y-82264805D01*
X152437660Y-82238220D01*
X152426741Y-82216608D01*
X152408290Y-82198734D01*
X152368284Y-82178125D01*
X152293133Y-82155370D01*
X152216321Y-82135100D01*
X152168344Y-82119078D01*
X152127634Y-82099740D01*
X152092363Y-82075714D01*
X152063943Y-82048049D01*
X152043351Y-82014044D01*
X152030348Y-81972362D01*
X152025688Y-81921054D01*
X152030740Y-81870408D01*
X152045107Y-81827772D01*
X152068408Y-81791497D01*
X152101343Y-81760531D01*
X152140346Y-81736410D01*
X152183957Y-81718871D01*
X152232964Y-81707979D01*
X152288340Y-81704186D01*
X152359443Y-81710019D01*
X152430624Y-81727729D01*
X152476352Y-81745974D01*
X152517214Y-81768392D01*
X152553691Y-81794962D01*
X152484736Y-81892346D01*
X152446614Y-81865302D01*
X152394425Y-81842468D01*
X152338057Y-81828028D01*
X152283641Y-81823344D01*
G37*
G36*
X153012506Y-81840420D02*
G01*
X153012506Y-82470460D01*
X152883763Y-82470460D01*
X152883763Y-81840420D01*
X152657728Y-81840420D01*
X152657728Y-81722332D01*
X153238541Y-81722332D01*
X153238541Y-81840420D01*
X153012506Y-81840420D01*
G37*
G36*
X154028334Y-81727213D02*
G01*
X154086425Y-81740571D01*
X154121994Y-81755090D01*
X154148854Y-81771637D01*
X154168594Y-81789984D01*
X154197579Y-81830943D01*
X154214480Y-81874224D01*
X154220147Y-81921007D01*
X154216228Y-81964477D01*
X154205289Y-81999838D01*
X154187969Y-82028725D01*
X154164081Y-82052263D01*
X154136210Y-82071061D01*
X154113644Y-82081483D01*
X154155000Y-82094849D01*
X154190229Y-82115403D01*
X154220287Y-82143412D01*
X154243022Y-82177323D01*
X154256871Y-82216430D01*
X154261697Y-82262152D01*
X154258323Y-82300323D01*
X154248379Y-82335740D01*
X154231791Y-82369032D01*
X154208050Y-82400667D01*
X154181971Y-82423789D01*
X154148859Y-82442766D01*
X154107319Y-82457382D01*
X154055588Y-82466968D01*
X153991600Y-82470460D01*
X153663855Y-82470460D01*
X153663855Y-82351301D01*
X153792646Y-82351301D01*
X153988390Y-82351301D01*
X154034108Y-82348459D01*
X154068316Y-82340907D01*
X154093497Y-82329758D01*
X154112750Y-82312358D01*
X154125087Y-82286314D01*
X154129743Y-82248287D01*
X154125854Y-82219994D01*
X154114798Y-82197368D01*
X154096292Y-82178991D01*
X154068542Y-82164458D01*
X154028545Y-82154455D01*
X153972384Y-82150624D01*
X153792646Y-82150624D01*
X153792646Y-82351301D01*
X153663855Y-82351301D01*
X153663855Y-82031465D01*
X153792646Y-82031465D01*
X153951074Y-82031465D01*
X154006244Y-82026594D01*
X154043185Y-82014085D01*
X154067042Y-81995857D01*
X154081080Y-81971889D01*
X154086053Y-81940223D01*
X154082000Y-81906827D01*
X154070984Y-81882389D01*
X154053483Y-81864615D01*
X154030499Y-81852746D01*
X153997753Y-81844603D01*
X153952144Y-81841490D01*
X153792646Y-81841490D01*
X153792646Y-82031465D01*
X153663855Y-82031465D01*
X153663855Y-81722332D01*
X153955355Y-81722332D01*
X154028334Y-81727213D01*
G37*
G36*
X154828362Y-81708818D02*
G01*
X154888575Y-81722300D01*
X154943900Y-81744329D01*
X154995086Y-81775033D01*
X155042674Y-81814969D01*
X155083682Y-81861671D01*
X155115127Y-81911979D01*
X155137647Y-81966434D01*
X155151422Y-82025810D01*
X155156156Y-82091068D01*
X155151422Y-82156326D01*
X155137647Y-82215702D01*
X155115127Y-82270157D01*
X155083682Y-82320465D01*
X155042674Y-82367167D01*
X154995088Y-82407084D01*
X154943903Y-82437776D01*
X154888579Y-82459796D01*
X154828365Y-82473273D01*
X154762341Y-82477904D01*
X154696319Y-82473274D01*
X154636100Y-82459797D01*
X154580765Y-82437778D01*
X154529566Y-82407086D01*
X154481962Y-82367167D01*
X154440972Y-82320467D01*
X154409541Y-82270161D01*
X154387029Y-82215705D01*
X154373259Y-82156328D01*
X154368526Y-82091068D01*
X154500527Y-82091068D01*
X154505398Y-82145633D01*
X154519598Y-82194877D01*
X154543035Y-82239865D01*
X154576321Y-82281369D01*
X154616713Y-82315927D01*
X154660598Y-82340151D01*
X154708764Y-82354793D01*
X154762341Y-82359815D01*
X154815918Y-82354793D01*
X154864084Y-82340151D01*
X154907970Y-82315927D01*
X154948361Y-82281369D01*
X154981647Y-82239865D01*
X155005085Y-82194877D01*
X155019285Y-82145633D01*
X155024156Y-82091068D01*
X155019283Y-82036478D01*
X155005081Y-81987227D01*
X154981643Y-81942247D01*
X154948361Y-81900767D01*
X154907970Y-81866209D01*
X154864084Y-81841985D01*
X154815918Y-81827343D01*
X154762341Y-81822321D01*
X154708764Y-81827343D01*
X154660598Y-81841985D01*
X154616713Y-81866209D01*
X154576321Y-81900767D01*
X154543039Y-81942247D01*
X154519601Y-81987227D01*
X154505399Y-82036478D01*
X154500527Y-82091068D01*
X154368526Y-82091068D01*
X154373259Y-82025808D01*
X154387029Y-81966431D01*
X154409541Y-81911975D01*
X154440972Y-81861669D01*
X154481962Y-81814969D01*
X154529569Y-81775032D01*
X154580769Y-81744327D01*
X154636104Y-81722299D01*
X154696321Y-81708818D01*
X154762341Y-81704186D01*
X154828362Y-81708818D01*
G37*
G36*
X155984127Y-82470460D02*
G01*
X155846543Y-82470460D01*
X155771911Y-82300957D01*
X155400755Y-82300957D01*
X155326124Y-82470460D01*
X155188540Y-82470460D01*
X155315735Y-82181798D01*
X155453239Y-82181798D01*
X155719427Y-82181798D01*
X155586310Y-81879923D01*
X155453239Y-82181798D01*
X155315735Y-82181798D01*
X155518193Y-81722332D01*
X155654474Y-81722332D01*
X155984127Y-82470460D01*
G37*
G36*
X156451499Y-81726933D02*
G01*
X156519290Y-81739236D01*
X156570256Y-81757405D01*
X156607885Y-81780259D01*
X156638936Y-81811791D01*
X156661849Y-81851821D01*
X156676568Y-81902270D01*
X156681911Y-81965814D01*
X156676855Y-82027411D01*
X156662776Y-82077635D01*
X156640653Y-82118675D01*
X156610532Y-82152137D01*
X156571523Y-82178899D01*
X156521900Y-82199014D01*
X156717459Y-82470460D01*
X156553865Y-82470460D01*
X156375802Y-82219951D01*
X156212860Y-82219951D01*
X156212860Y-82470460D01*
X156084069Y-82470460D01*
X156084069Y-82102886D01*
X156212860Y-82102886D01*
X156368078Y-82102886D01*
X156438824Y-82098177D01*
X156484315Y-82086444D01*
X156512036Y-82070270D01*
X156532107Y-82045861D01*
X156545109Y-82011959D01*
X156549957Y-81965349D01*
X156547001Y-81928959D01*
X156539052Y-81901556D01*
X156527002Y-81881120D01*
X156511013Y-81866197D01*
X156483299Y-81852902D01*
X156438898Y-81843217D01*
X156371288Y-81839350D01*
X156212860Y-81839350D01*
X156212860Y-82102886D01*
X156084069Y-82102886D01*
X156084069Y-81722332D01*
X156362774Y-81722332D01*
X156451499Y-81726933D01*
G37*
G36*
X157200231Y-81726884D02*
G01*
X157270758Y-81739715D01*
X157331145Y-81759862D01*
X157382841Y-81786761D01*
X157427015Y-81820274D01*
X157465148Y-81861475D01*
X157494935Y-81908349D01*
X157516731Y-81961706D01*
X157530366Y-82022675D01*
X157535146Y-82092650D01*
X157530523Y-82162681D01*
X157517303Y-82224151D01*
X157496136Y-82278338D01*
X157467205Y-82326294D01*
X157430225Y-82368795D01*
X157387339Y-82403107D01*
X157335522Y-82430920D01*
X157273245Y-82451998D01*
X157198598Y-82465586D01*
X157109366Y-82470460D01*
X156860533Y-82470460D01*
X156860533Y-82349160D01*
X156989323Y-82349160D01*
X157127512Y-82349160D01*
X157195405Y-82344531D01*
X157251045Y-82331681D01*
X157296590Y-82311719D01*
X157333772Y-82285091D01*
X157363961Y-82250829D01*
X157386134Y-82209020D01*
X157400231Y-82158078D01*
X157405286Y-82095860D01*
X157400340Y-82033924D01*
X157386571Y-81983310D01*
X157364962Y-81941861D01*
X157335611Y-81907968D01*
X157297723Y-81880716D01*
X157249699Y-81859978D01*
X157189270Y-81846431D01*
X157113647Y-81841490D01*
X156989323Y-81841490D01*
X156989323Y-82349160D01*
X156860533Y-82349160D01*
X156860533Y-81722332D01*
X157117881Y-81722332D01*
X157200231Y-81726884D01*
G37*
X54124546Y-104470300D02*
X54124546Y-104712205D01*
X54124546Y-104712205D02*
X54366451Y-104736396D01*
X54366451Y-104736396D02*
X54342260Y-104712205D01*
X54342260Y-104712205D02*
X54318070Y-104663824D01*
X54318070Y-104663824D02*
X54318070Y-104542872D01*
X54318070Y-104542872D02*
X54342260Y-104494491D01*
X54342260Y-104494491D02*
X54366451Y-104470300D01*
X54366451Y-104470300D02*
X54414832Y-104446110D01*
X54414832Y-104446110D02*
X54535784Y-104446110D01*
X54535784Y-104446110D02*
X54584165Y-104470300D01*
X54584165Y-104470300D02*
X54608356Y-104494491D01*
X54608356Y-104494491D02*
X54632546Y-104542872D01*
X54632546Y-104542872D02*
X54632546Y-104663824D01*
X54632546Y-104663824D02*
X54608356Y-104712205D01*
X54608356Y-104712205D02*
X54584165Y-104736396D01*
X54124546Y-104300967D02*
X54632546Y-104131633D01*
X54632546Y-104131633D02*
X54124546Y-103962300D01*
X54632546Y-103164013D02*
X54632546Y-103405918D01*
X54632546Y-103405918D02*
X54124546Y-103405918D01*
X54366451Y-102994680D02*
X54366451Y-102825347D01*
X54632546Y-102752775D02*
X54632546Y-102994680D01*
X54632546Y-102994680D02*
X54124546Y-102994680D01*
X54124546Y-102994680D02*
X54124546Y-102752775D01*
X54632546Y-102535061D02*
X54124546Y-102535061D01*
X54124546Y-102535061D02*
X54124546Y-102414109D01*
X54124546Y-102414109D02*
X54148736Y-102341537D01*
X54148736Y-102341537D02*
X54197117Y-102293156D01*
X54197117Y-102293156D02*
X54245498Y-102268966D01*
X54245498Y-102268966D02*
X54342260Y-102244775D01*
X54342260Y-102244775D02*
X54414832Y-102244775D01*
X54414832Y-102244775D02*
X54511594Y-102268966D01*
X54511594Y-102268966D02*
X54559975Y-102293156D01*
X54559975Y-102293156D02*
X54608356Y-102341537D01*
X54608356Y-102341537D02*
X54632546Y-102414109D01*
X54632546Y-102414109D02*
X54632546Y-102535061D01*
X75939413Y-96924546D02*
X76253889Y-96924546D01*
X76253889Y-96924546D02*
X76084556Y-97118070D01*
X76084556Y-97118070D02*
X76157127Y-97118070D01*
X76157127Y-97118070D02*
X76205508Y-97142260D01*
X76205508Y-97142260D02*
X76229699Y-97166451D01*
X76229699Y-97166451D02*
X76253889Y-97214832D01*
X76253889Y-97214832D02*
X76253889Y-97335784D01*
X76253889Y-97335784D02*
X76229699Y-97384165D01*
X76229699Y-97384165D02*
X76205508Y-97408356D01*
X76205508Y-97408356D02*
X76157127Y-97432546D01*
X76157127Y-97432546D02*
X76011984Y-97432546D01*
X76011984Y-97432546D02*
X75963603Y-97408356D01*
X75963603Y-97408356D02*
X75939413Y-97384165D01*
X76399032Y-96924546D02*
X76568366Y-97432546D01*
X76568366Y-97432546D02*
X76737699Y-96924546D01*
X76858652Y-96924546D02*
X77173128Y-96924546D01*
X77173128Y-96924546D02*
X77003795Y-97118070D01*
X77003795Y-97118070D02*
X77076366Y-97118070D01*
X77076366Y-97118070D02*
X77124747Y-97142260D01*
X77124747Y-97142260D02*
X77148938Y-97166451D01*
X77148938Y-97166451D02*
X77173128Y-97214832D01*
X77173128Y-97214832D02*
X77173128Y-97335784D01*
X77173128Y-97335784D02*
X77148938Y-97384165D01*
X77148938Y-97384165D02*
X77124747Y-97408356D01*
X77124747Y-97408356D02*
X77076366Y-97432546D01*
X77076366Y-97432546D02*
X76931223Y-97432546D01*
X76931223Y-97432546D02*
X76882842Y-97408356D01*
X76882842Y-97408356D02*
X76858652Y-97384165D01*
X78019796Y-97432546D02*
X77777891Y-97432546D01*
X77777891Y-97432546D02*
X77777891Y-96924546D01*
X78189129Y-97166451D02*
X78358462Y-97166451D01*
X78431034Y-97432546D02*
X78189129Y-97432546D01*
X78189129Y-97432546D02*
X78189129Y-96924546D01*
X78189129Y-96924546D02*
X78431034Y-96924546D01*
X78648748Y-97432546D02*
X78648748Y-96924546D01*
X78648748Y-96924546D02*
X78769700Y-96924546D01*
X78769700Y-96924546D02*
X78842272Y-96948736D01*
X78842272Y-96948736D02*
X78890653Y-96997117D01*
X78890653Y-96997117D02*
X78914843Y-97045498D01*
X78914843Y-97045498D02*
X78939034Y-97142260D01*
X78939034Y-97142260D02*
X78939034Y-97214832D01*
X78939034Y-97214832D02*
X78914843Y-97311594D01*
X78914843Y-97311594D02*
X78890653Y-97359975D01*
X78890653Y-97359975D02*
X78842272Y-97408356D01*
X78842272Y-97408356D02*
X78769700Y-97432546D01*
X78769700Y-97432546D02*
X78648748Y-97432546D01*
D11*
X112909009Y-98035944D02*
X114360438Y-98035944D01*
X113634724Y-100575944D02*
X113634724Y-98035944D01*
X115207104Y-100575944D02*
X115207104Y-98035944D01*
X116295676Y-100575944D02*
X116295676Y-99245468D01*
X116295676Y-99245468D02*
X116174723Y-99003563D01*
X116174723Y-99003563D02*
X115932819Y-98882611D01*
X115932819Y-98882611D02*
X115569962Y-98882611D01*
X115569962Y-98882611D02*
X115328057Y-99003563D01*
X115328057Y-99003563D02*
X115207104Y-99124515D01*
X117505199Y-100575944D02*
X117505199Y-98882611D01*
X117505199Y-98035944D02*
X117384247Y-98156896D01*
X117384247Y-98156896D02*
X117505199Y-98277849D01*
X117505199Y-98277849D02*
X117626152Y-98156896D01*
X117626152Y-98156896D02*
X117505199Y-98035944D01*
X117505199Y-98035944D02*
X117505199Y-98277849D01*
X118593771Y-100454992D02*
X118835676Y-100575944D01*
X118835676Y-100575944D02*
X119319485Y-100575944D01*
X119319485Y-100575944D02*
X119561390Y-100454992D01*
X119561390Y-100454992D02*
X119682342Y-100213087D01*
X119682342Y-100213087D02*
X119682342Y-100092134D01*
X119682342Y-100092134D02*
X119561390Y-99850230D01*
X119561390Y-99850230D02*
X119319485Y-99729277D01*
X119319485Y-99729277D02*
X118956628Y-99729277D01*
X118956628Y-99729277D02*
X118714723Y-99608325D01*
X118714723Y-99608325D02*
X118593771Y-99366420D01*
X118593771Y-99366420D02*
X118593771Y-99245468D01*
X118593771Y-99245468D02*
X118714723Y-99003563D01*
X118714723Y-99003563D02*
X118956628Y-98882611D01*
X118956628Y-98882611D02*
X119319485Y-98882611D01*
X119319485Y-98882611D02*
X119561390Y-99003563D01*
X122706151Y-100575944D02*
X122706151Y-98882611D01*
X122706151Y-98035944D02*
X122585199Y-98156896D01*
X122585199Y-98156896D02*
X122706151Y-98277849D01*
X122706151Y-98277849D02*
X122827104Y-98156896D01*
X122827104Y-98156896D02*
X122706151Y-98035944D01*
X122706151Y-98035944D02*
X122706151Y-98277849D01*
X123794723Y-100454992D02*
X124036628Y-100575944D01*
X124036628Y-100575944D02*
X124520437Y-100575944D01*
X124520437Y-100575944D02*
X124762342Y-100454992D01*
X124762342Y-100454992D02*
X124883294Y-100213087D01*
X124883294Y-100213087D02*
X124883294Y-100092134D01*
X124883294Y-100092134D02*
X124762342Y-99850230D01*
X124762342Y-99850230D02*
X124520437Y-99729277D01*
X124520437Y-99729277D02*
X124157580Y-99729277D01*
X124157580Y-99729277D02*
X123915675Y-99608325D01*
X123915675Y-99608325D02*
X123794723Y-99366420D01*
X123794723Y-99366420D02*
X123794723Y-99245468D01*
X123794723Y-99245468D02*
X123915675Y-99003563D01*
X123915675Y-99003563D02*
X124157580Y-98882611D01*
X124157580Y-98882611D02*
X124520437Y-98882611D01*
X124520437Y-98882611D02*
X124762342Y-99003563D01*
X127907103Y-100575944D02*
X127907103Y-98882611D01*
X127907103Y-99124515D02*
X128028056Y-99003563D01*
X128028056Y-99003563D02*
X128269961Y-98882611D01*
X128269961Y-98882611D02*
X128632818Y-98882611D01*
X128632818Y-98882611D02*
X128874722Y-99003563D01*
X128874722Y-99003563D02*
X128995675Y-99245468D01*
X128995675Y-99245468D02*
X128995675Y-100575944D01*
X128995675Y-99245468D02*
X129116627Y-99003563D01*
X129116627Y-99003563D02*
X129358532Y-98882611D01*
X129358532Y-98882611D02*
X129721389Y-98882611D01*
X129721389Y-98882611D02*
X129963294Y-99003563D01*
X129963294Y-99003563D02*
X130084246Y-99245468D01*
X130084246Y-99245468D02*
X130084246Y-100575944D01*
X131051866Y-98882611D02*
X131656628Y-100575944D01*
X132261389Y-98882611D02*
X131656628Y-100575944D01*
X131656628Y-100575944D02*
X131414723Y-101180706D01*
X131414723Y-101180706D02*
X131293770Y-101301658D01*
X131293770Y-101301658D02*
X131051866Y-101422611D01*
X135164246Y-100575944D02*
X135164246Y-98035944D01*
X135164246Y-99003563D02*
X135406151Y-98882611D01*
X135406151Y-98882611D02*
X135889961Y-98882611D01*
X135889961Y-98882611D02*
X136131865Y-99003563D01*
X136131865Y-99003563D02*
X136252818Y-99124515D01*
X136252818Y-99124515D02*
X136373770Y-99366420D01*
X136373770Y-99366420D02*
X136373770Y-100092134D01*
X136373770Y-100092134D02*
X136252818Y-100334039D01*
X136252818Y-100334039D02*
X136131865Y-100454992D01*
X136131865Y-100454992D02*
X135889961Y-100575944D01*
X135889961Y-100575944D02*
X135406151Y-100575944D01*
X135406151Y-100575944D02*
X135164246Y-100454992D01*
X137825199Y-100575944D02*
X137583294Y-100454992D01*
X137583294Y-100454992D02*
X137462341Y-100334039D01*
X137462341Y-100334039D02*
X137341389Y-100092134D01*
X137341389Y-100092134D02*
X137341389Y-99366420D01*
X137341389Y-99366420D02*
X137462341Y-99124515D01*
X137462341Y-99124515D02*
X137583294Y-99003563D01*
X137583294Y-99003563D02*
X137825199Y-98882611D01*
X137825199Y-98882611D02*
X138188056Y-98882611D01*
X138188056Y-98882611D02*
X138429960Y-99003563D01*
X138429960Y-99003563D02*
X138550913Y-99124515D01*
X138550913Y-99124515D02*
X138671865Y-99366420D01*
X138671865Y-99366420D02*
X138671865Y-100092134D01*
X138671865Y-100092134D02*
X138550913Y-100334039D01*
X138550913Y-100334039D02*
X138429960Y-100454992D01*
X138429960Y-100454992D02*
X138188056Y-100575944D01*
X138188056Y-100575944D02*
X137825199Y-100575944D01*
X140849008Y-100575944D02*
X140849008Y-99245468D01*
X140849008Y-99245468D02*
X140728055Y-99003563D01*
X140728055Y-99003563D02*
X140486151Y-98882611D01*
X140486151Y-98882611D02*
X140002341Y-98882611D01*
X140002341Y-98882611D02*
X139760436Y-99003563D01*
X140849008Y-100454992D02*
X140607103Y-100575944D01*
X140607103Y-100575944D02*
X140002341Y-100575944D01*
X140002341Y-100575944D02*
X139760436Y-100454992D01*
X139760436Y-100454992D02*
X139639484Y-100213087D01*
X139639484Y-100213087D02*
X139639484Y-99971182D01*
X139639484Y-99971182D02*
X139760436Y-99729277D01*
X139760436Y-99729277D02*
X140002341Y-99608325D01*
X140002341Y-99608325D02*
X140607103Y-99608325D01*
X140607103Y-99608325D02*
X140849008Y-99487372D01*
X142058531Y-100575944D02*
X142058531Y-98882611D01*
X142058531Y-99366420D02*
X142179484Y-99124515D01*
X142179484Y-99124515D02*
X142300436Y-99003563D01*
X142300436Y-99003563D02*
X142542341Y-98882611D01*
X142542341Y-98882611D02*
X142784246Y-98882611D01*
X144719484Y-100575944D02*
X144719484Y-98035944D01*
X144719484Y-100454992D02*
X144477579Y-100575944D01*
X144477579Y-100575944D02*
X143993770Y-100575944D01*
X143993770Y-100575944D02*
X143751865Y-100454992D01*
X143751865Y-100454992D02*
X143630912Y-100334039D01*
X143630912Y-100334039D02*
X143509960Y-100092134D01*
X143509960Y-100092134D02*
X143509960Y-99366420D01*
X143509960Y-99366420D02*
X143630912Y-99124515D01*
X143630912Y-99124515D02*
X143751865Y-99003563D01*
X143751865Y-99003563D02*
X143993770Y-98882611D01*
X143993770Y-98882611D02*
X144477579Y-98882611D01*
X144477579Y-98882611D02*
X144719484Y-99003563D01*
X145929007Y-100334039D02*
X146049960Y-100454992D01*
X146049960Y-100454992D02*
X145929007Y-100575944D01*
X145929007Y-100575944D02*
X145808055Y-100454992D01*
X145808055Y-100454992D02*
X145929007Y-100334039D01*
X145929007Y-100334039D02*
X145929007Y-100575944D01*
X145929007Y-99608325D02*
X145808055Y-98156896D01*
X145808055Y-98156896D02*
X145929007Y-98035944D01*
X145929007Y-98035944D02*
X146049960Y-98156896D01*
X146049960Y-98156896D02*
X145929007Y-99608325D01*
X145929007Y-99608325D02*
X145929007Y-98035944D01*
D10*
G36*
X145140591Y-80264459D02*
G01*
X145092835Y-80268081D01*
X145053704Y-80278158D01*
X145021603Y-80293927D01*
X144996058Y-80316729D01*
X144980827Y-80345629D01*
X144975447Y-80382641D01*
X144980789Y-80419741D01*
X144996038Y-80449424D01*
X145021727Y-80473526D01*
X145055413Y-80491369D01*
X145117595Y-80513986D01*
X145220930Y-80542140D01*
X145321008Y-80572580D01*
X145396371Y-80607660D01*
X145451772Y-80646363D01*
X145484869Y-80682473D01*
X145509038Y-80726359D01*
X145524341Y-80779645D01*
X145529816Y-80844574D01*
X145523439Y-80907959D01*
X145504994Y-80963504D01*
X145474588Y-81012867D01*
X145431114Y-81057115D01*
X145379935Y-81091698D01*
X145320798Y-81117068D01*
X145252250Y-81133011D01*
X145172478Y-81138632D01*
X145080829Y-81132114D01*
X144994280Y-81112855D01*
X144911826Y-81080887D01*
X144832635Y-81035690D01*
X144756082Y-80976218D01*
X144863779Y-80846683D01*
X144944103Y-80906743D01*
X145022298Y-80947253D01*
X145099419Y-80970650D01*
X145176759Y-80978327D01*
X145229396Y-80974044D01*
X145271085Y-80962272D01*
X145304060Y-80944020D01*
X145330430Y-80918266D01*
X145345769Y-80888436D01*
X145351023Y-80853073D01*
X145345950Y-80817627D01*
X145331391Y-80788811D01*
X145306790Y-80764979D01*
X145253449Y-80737500D01*
X145153247Y-80707160D01*
X145050831Y-80680134D01*
X144986862Y-80658771D01*
X144932581Y-80632987D01*
X144885554Y-80600952D01*
X144847660Y-80564066D01*
X144820204Y-80518725D01*
X144802867Y-80463150D01*
X144796654Y-80394739D01*
X144803390Y-80327211D01*
X144822546Y-80270363D01*
X144853614Y-80221996D01*
X144897527Y-80180709D01*
X144949532Y-80148547D01*
X145007679Y-80125162D01*
X145073022Y-80110639D01*
X145146857Y-80105581D01*
X145241661Y-80113359D01*
X145336568Y-80136972D01*
X145397539Y-80161299D01*
X145452021Y-80191190D01*
X145500658Y-80226616D01*
X145408718Y-80356461D01*
X145357888Y-80320403D01*
X145288303Y-80289957D01*
X145213146Y-80270704D01*
X145140591Y-80264459D01*
G37*
G36*
X145893729Y-80499024D02*
G01*
X145893729Y-80880804D01*
X145897116Y-80915308D01*
X145906560Y-80943054D01*
X145921584Y-80965485D01*
X145942058Y-80982538D01*
X145967604Y-80993059D01*
X145999751Y-80996814D01*
X146031323Y-80991719D01*
X146063746Y-80975576D01*
X146098205Y-80945757D01*
X146165764Y-81061706D01*
X146120497Y-81096244D01*
X146074491Y-81119973D01*
X146027144Y-81133958D01*
X145977666Y-81138632D01*
X145927820Y-81134100D01*
X145882681Y-81120859D01*
X145841276Y-81098945D01*
X145802905Y-81067723D01*
X145771888Y-81030120D01*
X145749468Y-80986560D01*
X145735490Y-80935884D01*
X145730569Y-80876523D01*
X145730569Y-80499024D01*
X145635280Y-80499024D01*
X145635280Y-80367132D01*
X145730569Y-80367132D01*
X145730569Y-80129776D01*
X145893729Y-80129776D01*
X145893729Y-80367132D01*
X146092683Y-80367132D01*
X146092683Y-80499024D01*
X145893729Y-80499024D01*
G37*
G36*
X146816911Y-80778442D02*
G01*
X146816911Y-80367132D01*
X146980070Y-80367132D01*
X146980070Y-81127280D01*
X146816911Y-81127280D01*
X146816911Y-80995139D01*
X146790349Y-81034342D01*
X146756348Y-81068708D01*
X146714053Y-81098556D01*
X146667390Y-81120874D01*
X146618733Y-81134160D01*
X146567334Y-81138632D01*
X146503915Y-81133345D01*
X146449020Y-81118230D01*
X146401116Y-81093834D01*
X146359073Y-81059907D01*
X146325672Y-81018329D01*
X146300983Y-80967879D01*
X146285244Y-80906723D01*
X146279603Y-80832476D01*
X146279603Y-80367132D01*
X146442824Y-80367132D01*
X146442824Y-80784149D01*
X146448749Y-80853948D01*
X146464548Y-80905274D01*
X146488367Y-80942517D01*
X146520015Y-80968714D01*
X146560995Y-80985147D01*
X146614234Y-80991107D01*
X146666644Y-80985017D01*
X146713569Y-80967129D01*
X146756425Y-80936948D01*
X146782021Y-80907994D01*
X146800769Y-80872859D01*
X146812657Y-80830257D01*
X146816911Y-80778442D01*
G37*
G36*
X147543745Y-81138632D02*
G01*
X147466441Y-81131749D01*
X147396078Y-81111615D01*
X147331226Y-81078274D01*
X147270841Y-81030811D01*
X147229992Y-80985385D01*
X147198409Y-80935253D01*
X147175571Y-80879752D01*
X147161461Y-80817944D01*
X147156568Y-80748664D01*
X147161624Y-80679646D01*
X147176239Y-80617816D01*
X147199986Y-80562014D01*
X147232977Y-80511316D01*
X147275866Y-80465089D01*
X147338613Y-80417362D01*
X147407112Y-80383509D01*
X147482548Y-80362880D01*
X147566513Y-80355779D01*
X147633933Y-80360712D01*
X147695933Y-80375131D01*
X147753437Y-80398825D01*
X147807190Y-80432062D01*
X147857718Y-80475574D01*
X147761497Y-80593693D01*
X147708831Y-80553960D01*
X147658831Y-80527497D01*
X147610737Y-80512414D01*
X147563659Y-80507523D01*
X147500328Y-80514906D01*
X147443791Y-80536569D01*
X147392311Y-80573097D01*
X147360563Y-80608226D01*
X147338151Y-80647502D01*
X147324469Y-80691771D01*
X147319727Y-80742274D01*
X147324341Y-80792728D01*
X147337789Y-80838163D01*
X147360008Y-80879603D01*
X147391628Y-80917778D01*
X147429788Y-80949328D01*
X147471443Y-80971554D01*
X147517347Y-80985042D01*
X147568560Y-80989680D01*
X147618400Y-80984061D01*
X147667672Y-80966909D01*
X147717410Y-80936990D01*
X147768383Y-80892095D01*
X147864852Y-80997435D01*
X147805426Y-81049674D01*
X147744215Y-81088969D01*
X147680712Y-81116535D01*
X147614191Y-81133054D01*
X147543745Y-81138632D01*
G37*
G36*
X148188378Y-81127280D02*
G01*
X148025219Y-81127280D01*
X148025219Y-80068606D01*
X148188378Y-80068606D01*
X148188378Y-80685385D01*
X148492549Y-80367132D01*
X148702733Y-80367132D01*
X148413513Y-80669193D01*
X148723143Y-81127280D01*
X148525057Y-81127280D01*
X148301225Y-80797239D01*
X148188378Y-80911450D01*
X148188378Y-81127280D01*
G37*
G36*
X149795651Y-81127280D02*
G01*
X149612205Y-81127280D01*
X149512697Y-80901276D01*
X149017822Y-80901276D01*
X148918314Y-81127280D01*
X148734868Y-81127280D01*
X148904461Y-80742398D01*
X149087801Y-80742398D01*
X149442718Y-80742398D01*
X149265229Y-80339897D01*
X149087801Y-80742398D01*
X148904461Y-80742398D01*
X149174405Y-80129776D01*
X149356114Y-80129776D01*
X149795651Y-81127280D01*
G37*
G36*
X150071594Y-80499024D02*
G01*
X150071594Y-80880804D01*
X150074982Y-80915308D01*
X150084426Y-80943054D01*
X150099449Y-80965485D01*
X150119924Y-80982538D01*
X150145470Y-80993059D01*
X150177617Y-80996814D01*
X150209188Y-80991719D01*
X150241612Y-80975576D01*
X150276071Y-80945757D01*
X150343630Y-81061706D01*
X150298363Y-81096244D01*
X150252356Y-81119973D01*
X150205010Y-81133958D01*
X150155531Y-81138632D01*
X150105686Y-81134100D01*
X150060547Y-81120859D01*
X150019142Y-81098945D01*
X149980771Y-81067723D01*
X149949753Y-81030120D01*
X149927333Y-80986560D01*
X149913355Y-80935884D01*
X149908435Y-80876523D01*
X149908435Y-80499024D01*
X149813145Y-80499024D01*
X149813145Y-80367132D01*
X149908435Y-80367132D01*
X149908435Y-80129776D01*
X150071594Y-80129776D01*
X150071594Y-80367132D01*
X150270549Y-80367132D01*
X150270549Y-80499024D01*
X150071594Y-80499024D01*
G37*
G36*
X150948283Y-80136492D02*
G01*
X151039192Y-80154661D01*
X151109426Y-80181951D01*
X151163023Y-80217001D01*
X151199103Y-80253764D01*
X151227705Y-80297677D01*
X151249011Y-80349871D01*
X151262591Y-80411905D01*
X151267433Y-80485686D01*
X151262479Y-80559396D01*
X151248610Y-80621025D01*
X151226878Y-80672581D01*
X151197706Y-80715693D01*
X151160852Y-80751517D01*
X151106383Y-80785613D01*
X151036361Y-80812015D01*
X150947220Y-80829475D01*
X150834720Y-80835889D01*
X150660456Y-80835889D01*
X150660456Y-81127280D01*
X150488736Y-81127280D01*
X150488736Y-80679802D01*
X150660456Y-80679802D01*
X150853207Y-80679802D01*
X150925012Y-80675510D01*
X150977590Y-80664216D01*
X151015253Y-80647761D01*
X151041491Y-80627132D01*
X151068018Y-80588972D01*
X151085134Y-80538581D01*
X151091432Y-80472286D01*
X151086856Y-80421702D01*
X151074312Y-80382272D01*
X151054789Y-80351578D01*
X151028153Y-80327986D01*
X150983640Y-80306464D01*
X150919391Y-80291540D01*
X150829074Y-80285800D01*
X150660456Y-80285800D01*
X150660456Y-80679802D01*
X150488736Y-80679802D01*
X150488736Y-80129776D01*
X150831866Y-80129776D01*
X150948283Y-80136492D01*
G37*
G36*
X151837311Y-80520365D02*
G01*
X151779813Y-80525626D01*
X151732538Y-80540386D01*
X151693439Y-80563895D01*
X151661124Y-80596485D01*
X151636323Y-80635634D01*
X151617865Y-80681880D01*
X151606120Y-80736540D01*
X151601940Y-80801209D01*
X151601940Y-81127280D01*
X151438781Y-81127280D01*
X151438781Y-80367132D01*
X151601940Y-80367132D01*
X151601940Y-80513355D01*
X151628323Y-80472917D01*
X151661887Y-80436213D01*
X151703372Y-80402990D01*
X151749382Y-80377114D01*
X151796791Y-80361541D01*
X151846430Y-80355717D01*
X151847857Y-80520365D01*
X151837311Y-80520365D01*
G37*
G36*
X152422707Y-80363187D02*
G01*
X152497151Y-80384632D01*
X152564008Y-80419771D01*
X152624569Y-80469370D01*
X152674851Y-80529717D01*
X152710180Y-80595290D01*
X152731565Y-80667249D01*
X152738905Y-80747237D01*
X152731566Y-80827191D01*
X152710182Y-80899130D01*
X152674855Y-80964693D01*
X152624569Y-81025041D01*
X152564008Y-81074640D01*
X152497151Y-81109779D01*
X152422707Y-81131224D01*
X152338886Y-81138632D01*
X152255098Y-81131226D01*
X152180663Y-81109784D01*
X152113793Y-81074645D01*
X152053202Y-81025041D01*
X152002946Y-80964697D01*
X151967637Y-80899135D01*
X151946263Y-80827194D01*
X151938929Y-80747237D01*
X152102088Y-80747237D01*
X152106560Y-80800703D01*
X152119376Y-80847248D01*
X152140118Y-80888118D01*
X152169026Y-80924230D01*
X152204585Y-80954005D01*
X152244154Y-80975132D01*
X152288543Y-80988056D01*
X152338886Y-80992534D01*
X152389261Y-80988055D01*
X152433670Y-80975129D01*
X152473248Y-80954002D01*
X152508807Y-80924230D01*
X152537716Y-80888118D01*
X152558457Y-80847248D01*
X152571273Y-80800703D01*
X152575745Y-80747237D01*
X152571271Y-80693736D01*
X152558452Y-80647182D01*
X152537711Y-80606325D01*
X152508807Y-80570243D01*
X152473245Y-80540441D01*
X152433665Y-80519296D01*
X152389258Y-80506359D01*
X152338886Y-80501878D01*
X152288547Y-80506358D01*
X152244159Y-80519293D01*
X152204589Y-80540438D01*
X152169026Y-80570243D01*
X152140122Y-80606325D01*
X152119381Y-80647182D01*
X152106562Y-80693736D01*
X152102088Y-80747237D01*
X151938929Y-80747237D01*
X151946264Y-80667246D01*
X151967640Y-80595285D01*
X152002949Y-80529714D01*
X152053202Y-80469370D01*
X152113793Y-80419766D01*
X152180663Y-80384627D01*
X152255098Y-80363185D01*
X152338886Y-80355779D01*
X152422707Y-80363187D01*
G37*
G36*
X153103996Y-80499024D02*
G01*
X153103996Y-80880804D01*
X153107384Y-80915308D01*
X153116828Y-80943054D01*
X153131851Y-80965485D01*
X153152326Y-80982538D01*
X153177872Y-80993059D01*
X153210019Y-80996814D01*
X153241590Y-80991719D01*
X153274014Y-80975576D01*
X153308472Y-80945757D01*
X153376032Y-81061706D01*
X153330765Y-81096244D01*
X153284758Y-81119973D01*
X153237412Y-81133958D01*
X153187933Y-81138632D01*
X153138088Y-81134100D01*
X153092949Y-81120859D01*
X153051544Y-81098945D01*
X153013173Y-81067723D01*
X152982155Y-81030120D01*
X152959735Y-80986560D01*
X152945757Y-80935884D01*
X152940837Y-80876523D01*
X152940837Y-80499024D01*
X152845547Y-80499024D01*
X152845547Y-80367132D01*
X152940837Y-80367132D01*
X152940837Y-80129776D01*
X153103996Y-80129776D01*
X153103996Y-80367132D01*
X153302951Y-80367132D01*
X153302951Y-80499024D01*
X153103996Y-80499024D01*
G37*
G36*
X153926501Y-80363187D02*
G01*
X154000944Y-80384632D01*
X154067802Y-80419771D01*
X154128363Y-80469370D01*
X154178645Y-80529717D01*
X154213973Y-80595290D01*
X154235359Y-80667249D01*
X154242698Y-80747237D01*
X154235360Y-80827191D01*
X154213976Y-80899130D01*
X154178648Y-80964693D01*
X154128363Y-81025041D01*
X154067802Y-81074640D01*
X154000944Y-81109779D01*
X153926501Y-81131224D01*
X153842679Y-81138632D01*
X153758891Y-81131226D01*
X153684456Y-81109784D01*
X153617587Y-81074645D01*
X153556995Y-81025041D01*
X153506740Y-80964697D01*
X153471431Y-80899135D01*
X153450057Y-80827194D01*
X153442722Y-80747237D01*
X153605881Y-80747237D01*
X153610353Y-80800703D01*
X153623170Y-80847248D01*
X153643911Y-80888118D01*
X153672820Y-80924230D01*
X153708379Y-80954005D01*
X153747948Y-80975132D01*
X153792337Y-80988056D01*
X153842679Y-80992534D01*
X153893055Y-80988055D01*
X153937464Y-80975129D01*
X153977042Y-80954002D01*
X154012600Y-80924230D01*
X154041509Y-80888118D01*
X154062250Y-80847248D01*
X154075067Y-80800703D01*
X154079539Y-80747237D01*
X154075065Y-80693736D01*
X154062246Y-80647182D01*
X154041504Y-80606325D01*
X154012600Y-80570243D01*
X153977038Y-80540441D01*
X153937459Y-80519296D01*
X153893051Y-80506359D01*
X153842679Y-80501878D01*
X153792340Y-80506358D01*
X153747953Y-80519293D01*
X153708383Y-80540438D01*
X153672820Y-80570243D01*
X153643916Y-80606325D01*
X153623174Y-80647182D01*
X153610355Y-80693736D01*
X153605881Y-80747237D01*
X153442722Y-80747237D01*
X153450058Y-80667246D01*
X153471433Y-80595285D01*
X153506743Y-80529714D01*
X153556995Y-80469370D01*
X153617587Y-80419766D01*
X153684456Y-80384627D01*
X153758891Y-80363185D01*
X153842679Y-80355779D01*
X153926501Y-80363187D01*
G37*
G36*
X154607790Y-80499024D02*
G01*
X154607790Y-80880804D01*
X154611177Y-80915308D01*
X154620622Y-80943054D01*
X154635645Y-80965485D01*
X154656119Y-80982538D01*
X154681665Y-80993059D01*
X154713812Y-80996814D01*
X154745384Y-80991719D01*
X154777807Y-80975576D01*
X154812266Y-80945757D01*
X154879825Y-81061706D01*
X154834558Y-81096244D01*
X154788552Y-81119973D01*
X154741206Y-81133958D01*
X154691727Y-81138632D01*
X154641881Y-81134100D01*
X154596743Y-81120859D01*
X154555337Y-81098945D01*
X154516967Y-81067723D01*
X154485949Y-81030120D01*
X154463529Y-80986560D01*
X154449551Y-80935884D01*
X154444631Y-80876523D01*
X154444631Y-80499024D01*
X154349341Y-80499024D01*
X154349341Y-80367132D01*
X154444631Y-80367132D01*
X154444631Y-80129776D01*
X154607790Y-80129776D01*
X154607790Y-80367132D01*
X154806745Y-80367132D01*
X154806745Y-80499024D01*
X154607790Y-80499024D01*
G37*
G36*
X155099438Y-81428597D02*
G01*
X155048849Y-81423887D01*
X155000813Y-81409847D01*
X154954518Y-81386124D01*
X154909355Y-81351732D01*
X154983800Y-81218785D01*
X155019920Y-81246679D01*
X155054049Y-81261994D01*
X155087279Y-81266864D01*
X155120509Y-81262541D01*
X155148517Y-81250055D01*
X155172581Y-81229083D01*
X155191194Y-81202522D01*
X155201911Y-81175272D01*
X155205461Y-81146635D01*
X155174639Y-81059791D01*
X154898933Y-80367132D01*
X155073817Y-80367132D01*
X155298455Y-80921004D01*
X155523094Y-80367132D01*
X155697978Y-80367132D01*
X155330094Y-81268229D01*
X155304525Y-81315035D01*
X155273097Y-81353855D01*
X155235549Y-81385604D01*
X155192838Y-81409579D01*
X155147770Y-81423800D01*
X155099438Y-81428597D01*
G37*
G36*
X156299590Y-80362534D02*
G01*
X156367155Y-80382273D01*
X156429188Y-80414946D01*
X156486725Y-80461491D01*
X156533495Y-80517584D01*
X156567143Y-80582002D01*
X156588028Y-80656366D01*
X156595353Y-80742894D01*
X156588130Y-80829395D01*
X156567446Y-80904587D01*
X156533996Y-80970502D01*
X156487407Y-81028640D01*
X156429860Y-81077723D01*
X156369438Y-81111629D01*
X156305210Y-81131806D01*
X156235845Y-81138632D01*
X156167117Y-81131250D01*
X156102655Y-81109240D01*
X156041034Y-81071775D01*
X155981304Y-81016728D01*
X155981304Y-81403037D01*
X155818145Y-81403037D01*
X155818145Y-80748601D01*
X155978450Y-80748601D01*
X155982782Y-80801457D01*
X155995204Y-80847606D01*
X156015303Y-80888234D01*
X156043280Y-80924230D01*
X156077915Y-80954443D01*
X156115270Y-80975516D01*
X156155997Y-80988198D01*
X156201042Y-80992534D01*
X156260320Y-80985035D01*
X156313766Y-80962845D01*
X156363084Y-80924913D01*
X156393027Y-80889019D01*
X156414419Y-80848462D01*
X156427600Y-80802327D01*
X156432194Y-80749346D01*
X156427730Y-80696331D01*
X156414859Y-80649509D01*
X156393892Y-80607757D01*
X156364511Y-80570243D01*
X156328326Y-80538601D01*
X156289734Y-80516642D01*
X156248092Y-80503498D01*
X156202468Y-80499024D01*
X156156828Y-80503534D01*
X156115699Y-80516721D01*
X156078075Y-80538656D01*
X156043280Y-80570181D01*
X156015212Y-80607530D01*
X155995111Y-80649129D01*
X155982743Y-80695792D01*
X155978450Y-80748601D01*
X155818145Y-80748601D01*
X155818145Y-80367132D01*
X155981304Y-80367132D01*
X155981304Y-80494681D01*
X156021658Y-80443007D01*
X156065568Y-80404569D01*
X156113444Y-80377647D01*
X156166174Y-80361369D01*
X156225050Y-80355779D01*
X156299590Y-80362534D01*
G37*
G36*
X157185515Y-80361898D02*
G01*
X157254012Y-80379650D01*
X157316136Y-80408681D01*
X157372933Y-80449394D01*
X157419847Y-80499793D01*
X157453418Y-80558390D01*
X157474239Y-80626812D01*
X157481561Y-80707408D01*
X157481561Y-80818828D01*
X156888977Y-80818828D01*
X156899627Y-80868283D01*
X156923939Y-80910873D01*
X156963485Y-80948239D01*
X157011512Y-80975940D01*
X157063732Y-80992566D01*
X157121371Y-80998241D01*
X157190877Y-80992010D01*
X157248635Y-80974460D01*
X157296939Y-80946444D01*
X157337386Y-80907604D01*
X157431125Y-81010214D01*
X157378977Y-81056147D01*
X157321666Y-81091657D01*
X157258460Y-81117315D01*
X157188333Y-81133149D01*
X157110018Y-81138632D01*
X157031862Y-81131771D01*
X156961386Y-81111785D01*
X156897085Y-81078850D01*
X156837858Y-81032176D01*
X156798094Y-80987509D01*
X156767141Y-80937500D01*
X156744601Y-80881395D01*
X156730583Y-80818153D01*
X156725694Y-80746492D01*
X156729632Y-80689790D01*
X156888853Y-80689790D01*
X157318402Y-80689790D01*
X157311344Y-80630948D01*
X157291548Y-80584251D01*
X157259342Y-80546855D01*
X157217518Y-80519006D01*
X157169487Y-80502064D01*
X157113554Y-80496170D01*
X157057511Y-80502079D01*
X157006010Y-80519536D01*
X156957839Y-80548964D01*
X156927378Y-80577898D01*
X156906161Y-80610443D01*
X156893305Y-80647339D01*
X156888853Y-80689790D01*
X156729632Y-80689790D01*
X156730667Y-80674894D01*
X156744926Y-80611773D01*
X156767862Y-80555820D01*
X156799394Y-80505977D01*
X156839968Y-80461491D01*
X156900273Y-80414862D01*
X156964545Y-80382174D01*
X157033766Y-80362489D01*
X157109273Y-80355779D01*
X157185515Y-80361898D01*
G37*
D12*
X130439285Y-107212628D02*
X130410713Y-107241200D01*
X130410713Y-107241200D02*
X130324999Y-107269771D01*
X130324999Y-107269771D02*
X130267856Y-107269771D01*
X130267856Y-107269771D02*
X130182142Y-107241200D01*
X130182142Y-107241200D02*
X130124999Y-107184057D01*
X130124999Y-107184057D02*
X130096428Y-107126914D01*
X130096428Y-107126914D02*
X130067856Y-107012628D01*
X130067856Y-107012628D02*
X130067856Y-106926914D01*
X130067856Y-106926914D02*
X130096428Y-106812628D01*
X130096428Y-106812628D02*
X130124999Y-106755485D01*
X130124999Y-106755485D02*
X130182142Y-106698342D01*
X130182142Y-106698342D02*
X130267856Y-106669771D01*
X130267856Y-106669771D02*
X130324999Y-106669771D01*
X130324999Y-106669771D02*
X130410713Y-106698342D01*
X130410713Y-106698342D02*
X130439285Y-106726914D01*
X131010713Y-107269771D02*
X130667856Y-107269771D01*
X130839285Y-107269771D02*
X130839285Y-106669771D01*
X130839285Y-106669771D02*
X130782142Y-106755485D01*
X130782142Y-106755485D02*
X130724999Y-106812628D01*
X130724999Y-106812628D02*
X130667856Y-106841200D01*
X131353571Y-106926914D02*
X131296428Y-106898342D01*
X131296428Y-106898342D02*
X131267857Y-106869771D01*
X131267857Y-106869771D02*
X131239285Y-106812628D01*
X131239285Y-106812628D02*
X131239285Y-106784057D01*
X131239285Y-106784057D02*
X131267857Y-106726914D01*
X131267857Y-106726914D02*
X131296428Y-106698342D01*
X131296428Y-106698342D02*
X131353571Y-106669771D01*
X131353571Y-106669771D02*
X131467857Y-106669771D01*
X131467857Y-106669771D02*
X131525000Y-106698342D01*
X131525000Y-106698342D02*
X131553571Y-106726914D01*
X131553571Y-106726914D02*
X131582142Y-106784057D01*
X131582142Y-106784057D02*
X131582142Y-106812628D01*
X131582142Y-106812628D02*
X131553571Y-106869771D01*
X131553571Y-106869771D02*
X131525000Y-106898342D01*
X131525000Y-106898342D02*
X131467857Y-106926914D01*
X131467857Y-106926914D02*
X131353571Y-106926914D01*
X131353571Y-106926914D02*
X131296428Y-106955485D01*
X131296428Y-106955485D02*
X131267857Y-106984057D01*
X131267857Y-106984057D02*
X131239285Y-107041200D01*
X131239285Y-107041200D02*
X131239285Y-107155485D01*
X131239285Y-107155485D02*
X131267857Y-107212628D01*
X131267857Y-107212628D02*
X131296428Y-107241200D01*
X131296428Y-107241200D02*
X131353571Y-107269771D01*
X131353571Y-107269771D02*
X131467857Y-107269771D01*
X131467857Y-107269771D02*
X131525000Y-107241200D01*
X131525000Y-107241200D02*
X131553571Y-107212628D01*
X131553571Y-107212628D02*
X131582142Y-107155485D01*
X131582142Y-107155485D02*
X131582142Y-107041200D01*
X131582142Y-107041200D02*
X131553571Y-106984057D01*
X131553571Y-106984057D02*
X131525000Y-106955485D01*
X131525000Y-106955485D02*
X131467857Y-106926914D01*
X96534771Y-93417142D02*
X97020485Y-93417142D01*
X97020485Y-93417142D02*
X97077628Y-93388571D01*
X97077628Y-93388571D02*
X97106200Y-93360000D01*
X97106200Y-93360000D02*
X97134771Y-93302857D01*
X97134771Y-93302857D02*
X97134771Y-93188571D01*
X97134771Y-93188571D02*
X97106200Y-93131428D01*
X97106200Y-93131428D02*
X97077628Y-93102857D01*
X97077628Y-93102857D02*
X97020485Y-93074285D01*
X97020485Y-93074285D02*
X96534771Y-93074285D01*
X97134771Y-92474286D02*
X97134771Y-92817143D01*
X97134771Y-92645714D02*
X96534771Y-92645714D01*
X96534771Y-92645714D02*
X96620485Y-92702857D01*
X96620485Y-92702857D02*
X96677628Y-92760000D01*
X96677628Y-92760000D02*
X96706200Y-92817143D01*
X64194771Y-87652856D02*
X63594771Y-87652856D01*
X63594771Y-87652856D02*
X63594771Y-87509999D01*
X63594771Y-87509999D02*
X63623342Y-87424285D01*
X63623342Y-87424285D02*
X63680485Y-87367142D01*
X63680485Y-87367142D02*
X63737628Y-87338571D01*
X63737628Y-87338571D02*
X63851914Y-87309999D01*
X63851914Y-87309999D02*
X63937628Y-87309999D01*
X63937628Y-87309999D02*
X64051914Y-87338571D01*
X64051914Y-87338571D02*
X64109057Y-87367142D01*
X64109057Y-87367142D02*
X64166200Y-87424285D01*
X64166200Y-87424285D02*
X64194771Y-87509999D01*
X64194771Y-87509999D02*
X64194771Y-87652856D01*
X63594771Y-86767142D02*
X63594771Y-87052856D01*
X63594771Y-87052856D02*
X63880485Y-87081428D01*
X63880485Y-87081428D02*
X63851914Y-87052856D01*
X63851914Y-87052856D02*
X63823342Y-86995714D01*
X63823342Y-86995714D02*
X63823342Y-86852856D01*
X63823342Y-86852856D02*
X63851914Y-86795714D01*
X63851914Y-86795714D02*
X63880485Y-86767142D01*
X63880485Y-86767142D02*
X63937628Y-86738571D01*
X63937628Y-86738571D02*
X64080485Y-86738571D01*
X64080485Y-86738571D02*
X64137628Y-86767142D01*
X64137628Y-86767142D02*
X64166200Y-86795714D01*
X64166200Y-86795714D02*
X64194771Y-86852856D01*
X64194771Y-86852856D02*
X64194771Y-86995714D01*
X64194771Y-86995714D02*
X64166200Y-87052856D01*
X64166200Y-87052856D02*
X64137628Y-87081428D01*
X155242856Y-102671771D02*
X155585714Y-102671771D01*
X155414285Y-103271771D02*
X155414285Y-102671771D01*
X155785714Y-103271771D02*
X155785714Y-102671771D01*
X155785714Y-102671771D02*
X156014285Y-102671771D01*
X156014285Y-102671771D02*
X156071428Y-102700342D01*
X156071428Y-102700342D02*
X156099999Y-102728914D01*
X156099999Y-102728914D02*
X156128571Y-102786057D01*
X156128571Y-102786057D02*
X156128571Y-102871771D01*
X156128571Y-102871771D02*
X156099999Y-102928914D01*
X156099999Y-102928914D02*
X156071428Y-102957485D01*
X156071428Y-102957485D02*
X156014285Y-102986057D01*
X156014285Y-102986057D02*
X155785714Y-102986057D01*
X156699999Y-103271771D02*
X156357142Y-103271771D01*
X156528571Y-103271771D02*
X156528571Y-102671771D01*
X156528571Y-102671771D02*
X156471428Y-102757485D01*
X156471428Y-102757485D02*
X156414285Y-102814628D01*
X156414285Y-102814628D02*
X156357142Y-102843200D01*
X80471666Y-99985963D02*
X80259999Y-99683582D01*
X80108809Y-99985963D02*
X80108809Y-99350963D01*
X80108809Y-99350963D02*
X80350714Y-99350963D01*
X80350714Y-99350963D02*
X80411190Y-99381201D01*
X80411190Y-99381201D02*
X80441428Y-99411439D01*
X80441428Y-99411439D02*
X80471666Y-99471915D01*
X80471666Y-99471915D02*
X80471666Y-99562629D01*
X80471666Y-99562629D02*
X80441428Y-99623105D01*
X80441428Y-99623105D02*
X80411190Y-99653344D01*
X80411190Y-99653344D02*
X80350714Y-99683582D01*
X80350714Y-99683582D02*
X80108809Y-99683582D01*
X80683333Y-99350963D02*
X81076428Y-99350963D01*
X81076428Y-99350963D02*
X80864761Y-99592867D01*
X80864761Y-99592867D02*
X80955476Y-99592867D01*
X80955476Y-99592867D02*
X81015952Y-99623105D01*
X81015952Y-99623105D02*
X81046190Y-99653344D01*
X81046190Y-99653344D02*
X81076428Y-99713820D01*
X81076428Y-99713820D02*
X81076428Y-99865010D01*
X81076428Y-99865010D02*
X81046190Y-99925486D01*
X81046190Y-99925486D02*
X81015952Y-99955725D01*
X81015952Y-99955725D02*
X80955476Y-99985963D01*
X80955476Y-99985963D02*
X80774047Y-99985963D01*
X80774047Y-99985963D02*
X80713571Y-99955725D01*
X80713571Y-99955725D02*
X80683333Y-99925486D01*
X91512628Y-85524999D02*
X91541200Y-85553571D01*
X91541200Y-85553571D02*
X91569771Y-85639285D01*
X91569771Y-85639285D02*
X91569771Y-85696428D01*
X91569771Y-85696428D02*
X91541200Y-85782142D01*
X91541200Y-85782142D02*
X91484057Y-85839285D01*
X91484057Y-85839285D02*
X91426914Y-85867856D01*
X91426914Y-85867856D02*
X91312628Y-85896428D01*
X91312628Y-85896428D02*
X91226914Y-85896428D01*
X91226914Y-85896428D02*
X91112628Y-85867856D01*
X91112628Y-85867856D02*
X91055485Y-85839285D01*
X91055485Y-85839285D02*
X90998342Y-85782142D01*
X90998342Y-85782142D02*
X90969771Y-85696428D01*
X90969771Y-85696428D02*
X90969771Y-85639285D01*
X90969771Y-85639285D02*
X90998342Y-85553571D01*
X90998342Y-85553571D02*
X91026914Y-85524999D01*
X91569771Y-84953571D02*
X91569771Y-85296428D01*
X91569771Y-85124999D02*
X90969771Y-85124999D01*
X90969771Y-85124999D02*
X91055485Y-85182142D01*
X91055485Y-85182142D02*
X91112628Y-85239285D01*
X91112628Y-85239285D02*
X91141200Y-85296428D01*
X64526785Y-99387628D02*
X64498213Y-99416200D01*
X64498213Y-99416200D02*
X64412499Y-99444771D01*
X64412499Y-99444771D02*
X64355356Y-99444771D01*
X64355356Y-99444771D02*
X64269642Y-99416200D01*
X64269642Y-99416200D02*
X64212499Y-99359057D01*
X64212499Y-99359057D02*
X64183928Y-99301914D01*
X64183928Y-99301914D02*
X64155356Y-99187628D01*
X64155356Y-99187628D02*
X64155356Y-99101914D01*
X64155356Y-99101914D02*
X64183928Y-98987628D01*
X64183928Y-98987628D02*
X64212499Y-98930485D01*
X64212499Y-98930485D02*
X64269642Y-98873342D01*
X64269642Y-98873342D02*
X64355356Y-98844771D01*
X64355356Y-98844771D02*
X64412499Y-98844771D01*
X64412499Y-98844771D02*
X64498213Y-98873342D01*
X64498213Y-98873342D02*
X64526785Y-98901914D01*
X64755356Y-98901914D02*
X64783928Y-98873342D01*
X64783928Y-98873342D02*
X64841071Y-98844771D01*
X64841071Y-98844771D02*
X64983928Y-98844771D01*
X64983928Y-98844771D02*
X65041071Y-98873342D01*
X65041071Y-98873342D02*
X65069642Y-98901914D01*
X65069642Y-98901914D02*
X65098213Y-98959057D01*
X65098213Y-98959057D02*
X65098213Y-99016200D01*
X65098213Y-99016200D02*
X65069642Y-99101914D01*
X65069642Y-99101914D02*
X64726785Y-99444771D01*
X64726785Y-99444771D02*
X65098213Y-99444771D01*
X65669642Y-99444771D02*
X65326785Y-99444771D01*
X65498214Y-99444771D02*
X65498214Y-98844771D01*
X65498214Y-98844771D02*
X65441071Y-98930485D01*
X65441071Y-98930485D02*
X65383928Y-98987628D01*
X65383928Y-98987628D02*
X65326785Y-99016200D01*
X64414285Y-107212628D02*
X64385713Y-107241200D01*
X64385713Y-107241200D02*
X64299999Y-107269771D01*
X64299999Y-107269771D02*
X64242856Y-107269771D01*
X64242856Y-107269771D02*
X64157142Y-107241200D01*
X64157142Y-107241200D02*
X64099999Y-107184057D01*
X64099999Y-107184057D02*
X64071428Y-107126914D01*
X64071428Y-107126914D02*
X64042856Y-107012628D01*
X64042856Y-107012628D02*
X64042856Y-106926914D01*
X64042856Y-106926914D02*
X64071428Y-106812628D01*
X64071428Y-106812628D02*
X64099999Y-106755485D01*
X64099999Y-106755485D02*
X64157142Y-106698342D01*
X64157142Y-106698342D02*
X64242856Y-106669771D01*
X64242856Y-106669771D02*
X64299999Y-106669771D01*
X64299999Y-106669771D02*
X64385713Y-106698342D01*
X64385713Y-106698342D02*
X64414285Y-106726914D01*
X64985713Y-107269771D02*
X64642856Y-107269771D01*
X64814285Y-107269771D02*
X64814285Y-106669771D01*
X64814285Y-106669771D02*
X64757142Y-106755485D01*
X64757142Y-106755485D02*
X64699999Y-106812628D01*
X64699999Y-106812628D02*
X64642856Y-106841200D01*
X65500000Y-106669771D02*
X65385714Y-106669771D01*
X65385714Y-106669771D02*
X65328571Y-106698342D01*
X65328571Y-106698342D02*
X65300000Y-106726914D01*
X65300000Y-106726914D02*
X65242857Y-106812628D01*
X65242857Y-106812628D02*
X65214285Y-106926914D01*
X65214285Y-106926914D02*
X65214285Y-107155485D01*
X65214285Y-107155485D02*
X65242857Y-107212628D01*
X65242857Y-107212628D02*
X65271428Y-107241200D01*
X65271428Y-107241200D02*
X65328571Y-107269771D01*
X65328571Y-107269771D02*
X65442857Y-107269771D01*
X65442857Y-107269771D02*
X65500000Y-107241200D01*
X65500000Y-107241200D02*
X65528571Y-107212628D01*
X65528571Y-107212628D02*
X65557142Y-107155485D01*
X65557142Y-107155485D02*
X65557142Y-107012628D01*
X65557142Y-107012628D02*
X65528571Y-106955485D01*
X65528571Y-106955485D02*
X65500000Y-106926914D01*
X65500000Y-106926914D02*
X65442857Y-106898342D01*
X65442857Y-106898342D02*
X65328571Y-106898342D01*
X65328571Y-106898342D02*
X65271428Y-106926914D01*
X65271428Y-106926914D02*
X65242857Y-106955485D01*
X65242857Y-106955485D02*
X65214285Y-107012628D01*
X63394771Y-100999999D02*
X63109057Y-101199999D01*
X63394771Y-101342856D02*
X62794771Y-101342856D01*
X62794771Y-101342856D02*
X62794771Y-101114285D01*
X62794771Y-101114285D02*
X62823342Y-101057142D01*
X62823342Y-101057142D02*
X62851914Y-101028571D01*
X62851914Y-101028571D02*
X62909057Y-100999999D01*
X62909057Y-100999999D02*
X62994771Y-100999999D01*
X62994771Y-100999999D02*
X63051914Y-101028571D01*
X63051914Y-101028571D02*
X63080485Y-101057142D01*
X63080485Y-101057142D02*
X63109057Y-101114285D01*
X63109057Y-101114285D02*
X63109057Y-101342856D01*
X62994771Y-100485714D02*
X63394771Y-100485714D01*
X62766200Y-100628571D02*
X63194771Y-100771428D01*
X63194771Y-100771428D02*
X63194771Y-100399999D01*
X55024999Y-85479771D02*
X55024999Y-85908342D01*
X55024999Y-85908342D02*
X54996428Y-85994057D01*
X54996428Y-85994057D02*
X54939285Y-86051200D01*
X54939285Y-86051200D02*
X54853571Y-86079771D01*
X54853571Y-86079771D02*
X54796428Y-86079771D01*
X55624999Y-86079771D02*
X55282142Y-86079771D01*
X55453571Y-86079771D02*
X55453571Y-85479771D01*
X55453571Y-85479771D02*
X55396428Y-85565485D01*
X55396428Y-85565485D02*
X55339285Y-85622628D01*
X55339285Y-85622628D02*
X55282142Y-85651200D01*
X65991785Y-94397271D02*
X65791785Y-94111557D01*
X65648928Y-94397271D02*
X65648928Y-93797271D01*
X65648928Y-93797271D02*
X65877499Y-93797271D01*
X65877499Y-93797271D02*
X65934642Y-93825842D01*
X65934642Y-93825842D02*
X65963213Y-93854414D01*
X65963213Y-93854414D02*
X65991785Y-93911557D01*
X65991785Y-93911557D02*
X65991785Y-93997271D01*
X65991785Y-93997271D02*
X65963213Y-94054414D01*
X65963213Y-94054414D02*
X65934642Y-94082985D01*
X65934642Y-94082985D02*
X65877499Y-94111557D01*
X65877499Y-94111557D02*
X65648928Y-94111557D01*
X66563213Y-94397271D02*
X66220356Y-94397271D01*
X66391785Y-94397271D02*
X66391785Y-93797271D01*
X66391785Y-93797271D02*
X66334642Y-93882985D01*
X66334642Y-93882985D02*
X66277499Y-93940128D01*
X66277499Y-93940128D02*
X66220356Y-93968700D01*
X66763214Y-93797271D02*
X67163214Y-93797271D01*
X67163214Y-93797271D02*
X66906071Y-94397271D01*
X57285963Y-100540833D02*
X56983582Y-100752500D01*
X57285963Y-100903690D02*
X56650963Y-100903690D01*
X56650963Y-100903690D02*
X56650963Y-100661785D01*
X56650963Y-100661785D02*
X56681201Y-100601309D01*
X56681201Y-100601309D02*
X56711439Y-100571071D01*
X56711439Y-100571071D02*
X56771915Y-100540833D01*
X56771915Y-100540833D02*
X56862629Y-100540833D01*
X56862629Y-100540833D02*
X56923105Y-100571071D01*
X56923105Y-100571071D02*
X56953344Y-100601309D01*
X56953344Y-100601309D02*
X56983582Y-100661785D01*
X56983582Y-100661785D02*
X56983582Y-100903690D01*
X56650963Y-99996547D02*
X56650963Y-100117500D01*
X56650963Y-100117500D02*
X56681201Y-100177976D01*
X56681201Y-100177976D02*
X56711439Y-100208214D01*
X56711439Y-100208214D02*
X56802153Y-100268690D01*
X56802153Y-100268690D02*
X56923105Y-100298928D01*
X56923105Y-100298928D02*
X57165010Y-100298928D01*
X57165010Y-100298928D02*
X57225486Y-100268690D01*
X57225486Y-100268690D02*
X57255725Y-100238452D01*
X57255725Y-100238452D02*
X57285963Y-100177976D01*
X57285963Y-100177976D02*
X57285963Y-100057023D01*
X57285963Y-100057023D02*
X57255725Y-99996547D01*
X57255725Y-99996547D02*
X57225486Y-99966309D01*
X57225486Y-99966309D02*
X57165010Y-99936071D01*
X57165010Y-99936071D02*
X57013820Y-99936071D01*
X57013820Y-99936071D02*
X56953344Y-99966309D01*
X56953344Y-99966309D02*
X56923105Y-99996547D01*
X56923105Y-99996547D02*
X56892867Y-100057023D01*
X56892867Y-100057023D02*
X56892867Y-100177976D01*
X56892867Y-100177976D02*
X56923105Y-100238452D01*
X56923105Y-100238452D02*
X56953344Y-100268690D01*
X56953344Y-100268690D02*
X57013820Y-100298928D01*
X96777628Y-79159999D02*
X96806200Y-79188571D01*
X96806200Y-79188571D02*
X96834771Y-79274285D01*
X96834771Y-79274285D02*
X96834771Y-79331428D01*
X96834771Y-79331428D02*
X96806200Y-79417142D01*
X96806200Y-79417142D02*
X96749057Y-79474285D01*
X96749057Y-79474285D02*
X96691914Y-79502856D01*
X96691914Y-79502856D02*
X96577628Y-79531428D01*
X96577628Y-79531428D02*
X96491914Y-79531428D01*
X96491914Y-79531428D02*
X96377628Y-79502856D01*
X96377628Y-79502856D02*
X96320485Y-79474285D01*
X96320485Y-79474285D02*
X96263342Y-79417142D01*
X96263342Y-79417142D02*
X96234771Y-79331428D01*
X96234771Y-79331428D02*
X96234771Y-79274285D01*
X96234771Y-79274285D02*
X96263342Y-79188571D01*
X96263342Y-79188571D02*
X96291914Y-79159999D01*
X96291914Y-78931428D02*
X96263342Y-78902856D01*
X96263342Y-78902856D02*
X96234771Y-78845714D01*
X96234771Y-78845714D02*
X96234771Y-78702856D01*
X96234771Y-78702856D02*
X96263342Y-78645714D01*
X96263342Y-78645714D02*
X96291914Y-78617142D01*
X96291914Y-78617142D02*
X96349057Y-78588571D01*
X96349057Y-78588571D02*
X96406200Y-78588571D01*
X96406200Y-78588571D02*
X96491914Y-78617142D01*
X96491914Y-78617142D02*
X96834771Y-78959999D01*
X96834771Y-78959999D02*
X96834771Y-78588571D01*
X76843809Y-100115963D02*
X76843809Y-99480963D01*
X76843809Y-99480963D02*
X76994999Y-99480963D01*
X76994999Y-99480963D02*
X77085714Y-99511201D01*
X77085714Y-99511201D02*
X77146190Y-99571677D01*
X77146190Y-99571677D02*
X77176428Y-99632153D01*
X77176428Y-99632153D02*
X77206666Y-99753105D01*
X77206666Y-99753105D02*
X77206666Y-99843820D01*
X77206666Y-99843820D02*
X77176428Y-99964772D01*
X77176428Y-99964772D02*
X77146190Y-100025248D01*
X77146190Y-100025248D02*
X77085714Y-100085725D01*
X77085714Y-100085725D02*
X76994999Y-100115963D01*
X76994999Y-100115963D02*
X76843809Y-100115963D01*
X77811428Y-100115963D02*
X77448571Y-100115963D01*
X77629999Y-100115963D02*
X77629999Y-99480963D01*
X77629999Y-99480963D02*
X77569523Y-99571677D01*
X77569523Y-99571677D02*
X77509047Y-99632153D01*
X77509047Y-99632153D02*
X77448571Y-99662391D01*
X70726785Y-99487628D02*
X70698213Y-99516200D01*
X70698213Y-99516200D02*
X70612499Y-99544771D01*
X70612499Y-99544771D02*
X70555356Y-99544771D01*
X70555356Y-99544771D02*
X70469642Y-99516200D01*
X70469642Y-99516200D02*
X70412499Y-99459057D01*
X70412499Y-99459057D02*
X70383928Y-99401914D01*
X70383928Y-99401914D02*
X70355356Y-99287628D01*
X70355356Y-99287628D02*
X70355356Y-99201914D01*
X70355356Y-99201914D02*
X70383928Y-99087628D01*
X70383928Y-99087628D02*
X70412499Y-99030485D01*
X70412499Y-99030485D02*
X70469642Y-98973342D01*
X70469642Y-98973342D02*
X70555356Y-98944771D01*
X70555356Y-98944771D02*
X70612499Y-98944771D01*
X70612499Y-98944771D02*
X70698213Y-98973342D01*
X70698213Y-98973342D02*
X70726785Y-99001914D01*
X70955356Y-99001914D02*
X70983928Y-98973342D01*
X70983928Y-98973342D02*
X71041071Y-98944771D01*
X71041071Y-98944771D02*
X71183928Y-98944771D01*
X71183928Y-98944771D02*
X71241071Y-98973342D01*
X71241071Y-98973342D02*
X71269642Y-99001914D01*
X71269642Y-99001914D02*
X71298213Y-99059057D01*
X71298213Y-99059057D02*
X71298213Y-99116200D01*
X71298213Y-99116200D02*
X71269642Y-99201914D01*
X71269642Y-99201914D02*
X70926785Y-99544771D01*
X70926785Y-99544771D02*
X71298213Y-99544771D01*
X71526785Y-99001914D02*
X71555357Y-98973342D01*
X71555357Y-98973342D02*
X71612500Y-98944771D01*
X71612500Y-98944771D02*
X71755357Y-98944771D01*
X71755357Y-98944771D02*
X71812500Y-98973342D01*
X71812500Y-98973342D02*
X71841071Y-99001914D01*
X71841071Y-99001914D02*
X71869642Y-99059057D01*
X71869642Y-99059057D02*
X71869642Y-99116200D01*
X71869642Y-99116200D02*
X71841071Y-99201914D01*
X71841071Y-99201914D02*
X71498214Y-99544771D01*
X71498214Y-99544771D02*
X71869642Y-99544771D01*
X108439285Y-107212628D02*
X108410713Y-107241200D01*
X108410713Y-107241200D02*
X108324999Y-107269771D01*
X108324999Y-107269771D02*
X108267856Y-107269771D01*
X108267856Y-107269771D02*
X108182142Y-107241200D01*
X108182142Y-107241200D02*
X108124999Y-107184057D01*
X108124999Y-107184057D02*
X108096428Y-107126914D01*
X108096428Y-107126914D02*
X108067856Y-107012628D01*
X108067856Y-107012628D02*
X108067856Y-106926914D01*
X108067856Y-106926914D02*
X108096428Y-106812628D01*
X108096428Y-106812628D02*
X108124999Y-106755485D01*
X108124999Y-106755485D02*
X108182142Y-106698342D01*
X108182142Y-106698342D02*
X108267856Y-106669771D01*
X108267856Y-106669771D02*
X108324999Y-106669771D01*
X108324999Y-106669771D02*
X108410713Y-106698342D01*
X108410713Y-106698342D02*
X108439285Y-106726914D01*
X108667856Y-106726914D02*
X108696428Y-106698342D01*
X108696428Y-106698342D02*
X108753571Y-106669771D01*
X108753571Y-106669771D02*
X108896428Y-106669771D01*
X108896428Y-106669771D02*
X108953571Y-106698342D01*
X108953571Y-106698342D02*
X108982142Y-106726914D01*
X108982142Y-106726914D02*
X109010713Y-106784057D01*
X109010713Y-106784057D02*
X109010713Y-106841200D01*
X109010713Y-106841200D02*
X108982142Y-106926914D01*
X108982142Y-106926914D02*
X108639285Y-107269771D01*
X108639285Y-107269771D02*
X109010713Y-107269771D01*
X109525000Y-106869771D02*
X109525000Y-107269771D01*
X109382142Y-106641200D02*
X109239285Y-107069771D01*
X109239285Y-107069771D02*
X109610714Y-107069771D01*
X60214286Y-109454819D02*
X60785714Y-109454819D01*
X60500000Y-110454819D02*
X60500000Y-109454819D01*
X61690476Y-110359580D02*
X61642857Y-110407200D01*
X61642857Y-110407200D02*
X61500000Y-110454819D01*
X61500000Y-110454819D02*
X61404762Y-110454819D01*
X61404762Y-110454819D02*
X61261905Y-110407200D01*
X61261905Y-110407200D02*
X61166667Y-110311961D01*
X61166667Y-110311961D02*
X61119048Y-110216723D01*
X61119048Y-110216723D02*
X61071429Y-110026247D01*
X61071429Y-110026247D02*
X61071429Y-109883390D01*
X61071429Y-109883390D02*
X61119048Y-109692914D01*
X61119048Y-109692914D02*
X61166667Y-109597676D01*
X61166667Y-109597676D02*
X61261905Y-109502438D01*
X61261905Y-109502438D02*
X61404762Y-109454819D01*
X61404762Y-109454819D02*
X61500000Y-109454819D01*
X61500000Y-109454819D02*
X61642857Y-109502438D01*
X61642857Y-109502438D02*
X61690476Y-109550057D01*
X62119048Y-110454819D02*
X62119048Y-109454819D01*
X62119048Y-109931009D02*
X62690476Y-109931009D01*
X62690476Y-110454819D02*
X62690476Y-109454819D01*
X63690476Y-110454819D02*
X63119048Y-110454819D01*
X63404762Y-110454819D02*
X63404762Y-109454819D01*
X63404762Y-109454819D02*
X63309524Y-109597676D01*
X63309524Y-109597676D02*
X63214286Y-109692914D01*
X63214286Y-109692914D02*
X63119048Y-109740533D01*
X151869771Y-105471428D02*
X151869771Y-105757142D01*
X151869771Y-105757142D02*
X151269771Y-105757142D01*
X151555485Y-105271428D02*
X151555485Y-105071428D01*
X151869771Y-104985714D02*
X151869771Y-105271428D01*
X151869771Y-105271428D02*
X151269771Y-105271428D01*
X151269771Y-105271428D02*
X151269771Y-104985714D01*
X151869771Y-104728571D02*
X151269771Y-104728571D01*
X151269771Y-104728571D02*
X151269771Y-104585714D01*
X151269771Y-104585714D02*
X151298342Y-104500000D01*
X151298342Y-104500000D02*
X151355485Y-104442857D01*
X151355485Y-104442857D02*
X151412628Y-104414286D01*
X151412628Y-104414286D02*
X151526914Y-104385714D01*
X151526914Y-104385714D02*
X151612628Y-104385714D01*
X151612628Y-104385714D02*
X151726914Y-104414286D01*
X151726914Y-104414286D02*
X151784057Y-104442857D01*
X151784057Y-104442857D02*
X151841200Y-104500000D01*
X151841200Y-104500000D02*
X151869771Y-104585714D01*
X151869771Y-104585714D02*
X151869771Y-104728571D01*
X151269771Y-103842857D02*
X151269771Y-104128571D01*
X151269771Y-104128571D02*
X151555485Y-104157143D01*
X151555485Y-104157143D02*
X151526914Y-104128571D01*
X151526914Y-104128571D02*
X151498342Y-104071429D01*
X151498342Y-104071429D02*
X151498342Y-103928571D01*
X151498342Y-103928571D02*
X151526914Y-103871429D01*
X151526914Y-103871429D02*
X151555485Y-103842857D01*
X151555485Y-103842857D02*
X151612628Y-103814286D01*
X151612628Y-103814286D02*
X151755485Y-103814286D01*
X151755485Y-103814286D02*
X151812628Y-103842857D01*
X151812628Y-103842857D02*
X151841200Y-103871429D01*
X151841200Y-103871429D02*
X151869771Y-103928571D01*
X151869771Y-103928571D02*
X151869771Y-104071429D01*
X151869771Y-104071429D02*
X151841200Y-104128571D01*
X151841200Y-104128571D02*
X151812628Y-104157143D01*
X82214286Y-109454819D02*
X82785714Y-109454819D01*
X82500000Y-110454819D02*
X82500000Y-109454819D01*
X83690476Y-110359580D02*
X83642857Y-110407200D01*
X83642857Y-110407200D02*
X83500000Y-110454819D01*
X83500000Y-110454819D02*
X83404762Y-110454819D01*
X83404762Y-110454819D02*
X83261905Y-110407200D01*
X83261905Y-110407200D02*
X83166667Y-110311961D01*
X83166667Y-110311961D02*
X83119048Y-110216723D01*
X83119048Y-110216723D02*
X83071429Y-110026247D01*
X83071429Y-110026247D02*
X83071429Y-109883390D01*
X83071429Y-109883390D02*
X83119048Y-109692914D01*
X83119048Y-109692914D02*
X83166667Y-109597676D01*
X83166667Y-109597676D02*
X83261905Y-109502438D01*
X83261905Y-109502438D02*
X83404762Y-109454819D01*
X83404762Y-109454819D02*
X83500000Y-109454819D01*
X83500000Y-109454819D02*
X83642857Y-109502438D01*
X83642857Y-109502438D02*
X83690476Y-109550057D01*
X84119048Y-110454819D02*
X84119048Y-109454819D01*
X84119048Y-109931009D02*
X84690476Y-109931009D01*
X84690476Y-110454819D02*
X84690476Y-109454819D01*
X85119048Y-109550057D02*
X85166667Y-109502438D01*
X85166667Y-109502438D02*
X85261905Y-109454819D01*
X85261905Y-109454819D02*
X85500000Y-109454819D01*
X85500000Y-109454819D02*
X85595238Y-109502438D01*
X85595238Y-109502438D02*
X85642857Y-109550057D01*
X85642857Y-109550057D02*
X85690476Y-109645295D01*
X85690476Y-109645295D02*
X85690476Y-109740533D01*
X85690476Y-109740533D02*
X85642857Y-109883390D01*
X85642857Y-109883390D02*
X85071429Y-110454819D01*
X85071429Y-110454819D02*
X85690476Y-110454819D01*
X126214286Y-109454819D02*
X126785714Y-109454819D01*
X126500000Y-110454819D02*
X126500000Y-109454819D01*
X127690476Y-110359580D02*
X127642857Y-110407200D01*
X127642857Y-110407200D02*
X127500000Y-110454819D01*
X127500000Y-110454819D02*
X127404762Y-110454819D01*
X127404762Y-110454819D02*
X127261905Y-110407200D01*
X127261905Y-110407200D02*
X127166667Y-110311961D01*
X127166667Y-110311961D02*
X127119048Y-110216723D01*
X127119048Y-110216723D02*
X127071429Y-110026247D01*
X127071429Y-110026247D02*
X127071429Y-109883390D01*
X127071429Y-109883390D02*
X127119048Y-109692914D01*
X127119048Y-109692914D02*
X127166667Y-109597676D01*
X127166667Y-109597676D02*
X127261905Y-109502438D01*
X127261905Y-109502438D02*
X127404762Y-109454819D01*
X127404762Y-109454819D02*
X127500000Y-109454819D01*
X127500000Y-109454819D02*
X127642857Y-109502438D01*
X127642857Y-109502438D02*
X127690476Y-109550057D01*
X128119048Y-110454819D02*
X128119048Y-109454819D01*
X128119048Y-109931009D02*
X128690476Y-109931009D01*
X128690476Y-110454819D02*
X128690476Y-109454819D01*
X129595238Y-109788152D02*
X129595238Y-110454819D01*
X129357143Y-109407200D02*
X129119048Y-110121485D01*
X129119048Y-110121485D02*
X129738095Y-110121485D01*
X66014285Y-90669771D02*
X65814285Y-90384057D01*
X65671428Y-90669771D02*
X65671428Y-90069771D01*
X65671428Y-90069771D02*
X65899999Y-90069771D01*
X65899999Y-90069771D02*
X65957142Y-90098342D01*
X65957142Y-90098342D02*
X65985713Y-90126914D01*
X65985713Y-90126914D02*
X66014285Y-90184057D01*
X66014285Y-90184057D02*
X66014285Y-90269771D01*
X66014285Y-90269771D02*
X65985713Y-90326914D01*
X65985713Y-90326914D02*
X65957142Y-90355485D01*
X65957142Y-90355485D02*
X65899999Y-90384057D01*
X65899999Y-90384057D02*
X65671428Y-90384057D01*
X66585713Y-90669771D02*
X66242856Y-90669771D01*
X66414285Y-90669771D02*
X66414285Y-90069771D01*
X66414285Y-90069771D02*
X66357142Y-90155485D01*
X66357142Y-90155485D02*
X66299999Y-90212628D01*
X66299999Y-90212628D02*
X66242856Y-90241200D01*
X66928571Y-90326914D02*
X66871428Y-90298342D01*
X66871428Y-90298342D02*
X66842857Y-90269771D01*
X66842857Y-90269771D02*
X66814285Y-90212628D01*
X66814285Y-90212628D02*
X66814285Y-90184057D01*
X66814285Y-90184057D02*
X66842857Y-90126914D01*
X66842857Y-90126914D02*
X66871428Y-90098342D01*
X66871428Y-90098342D02*
X66928571Y-90069771D01*
X66928571Y-90069771D02*
X67042857Y-90069771D01*
X67042857Y-90069771D02*
X67100000Y-90098342D01*
X67100000Y-90098342D02*
X67128571Y-90126914D01*
X67128571Y-90126914D02*
X67157142Y-90184057D01*
X67157142Y-90184057D02*
X67157142Y-90212628D01*
X67157142Y-90212628D02*
X67128571Y-90269771D01*
X67128571Y-90269771D02*
X67100000Y-90298342D01*
X67100000Y-90298342D02*
X67042857Y-90326914D01*
X67042857Y-90326914D02*
X66928571Y-90326914D01*
X66928571Y-90326914D02*
X66871428Y-90355485D01*
X66871428Y-90355485D02*
X66842857Y-90384057D01*
X66842857Y-90384057D02*
X66814285Y-90441200D01*
X66814285Y-90441200D02*
X66814285Y-90555485D01*
X66814285Y-90555485D02*
X66842857Y-90612628D01*
X66842857Y-90612628D02*
X66871428Y-90641200D01*
X66871428Y-90641200D02*
X66928571Y-90669771D01*
X66928571Y-90669771D02*
X67042857Y-90669771D01*
X67042857Y-90669771D02*
X67100000Y-90641200D01*
X67100000Y-90641200D02*
X67128571Y-90612628D01*
X67128571Y-90612628D02*
X67157142Y-90555485D01*
X67157142Y-90555485D02*
X67157142Y-90441200D01*
X67157142Y-90441200D02*
X67128571Y-90384057D01*
X67128571Y-90384057D02*
X67100000Y-90355485D01*
X67100000Y-90355485D02*
X67042857Y-90326914D01*
X148214286Y-109454819D02*
X148785714Y-109454819D01*
X148500000Y-110454819D02*
X148500000Y-109454819D01*
X149690476Y-110359580D02*
X149642857Y-110407200D01*
X149642857Y-110407200D02*
X149500000Y-110454819D01*
X149500000Y-110454819D02*
X149404762Y-110454819D01*
X149404762Y-110454819D02*
X149261905Y-110407200D01*
X149261905Y-110407200D02*
X149166667Y-110311961D01*
X149166667Y-110311961D02*
X149119048Y-110216723D01*
X149119048Y-110216723D02*
X149071429Y-110026247D01*
X149071429Y-110026247D02*
X149071429Y-109883390D01*
X149071429Y-109883390D02*
X149119048Y-109692914D01*
X149119048Y-109692914D02*
X149166667Y-109597676D01*
X149166667Y-109597676D02*
X149261905Y-109502438D01*
X149261905Y-109502438D02*
X149404762Y-109454819D01*
X149404762Y-109454819D02*
X149500000Y-109454819D01*
X149500000Y-109454819D02*
X149642857Y-109502438D01*
X149642857Y-109502438D02*
X149690476Y-109550057D01*
X150119048Y-110454819D02*
X150119048Y-109454819D01*
X150119048Y-109931009D02*
X150690476Y-109931009D01*
X150690476Y-110454819D02*
X150690476Y-109454819D01*
X151642857Y-109454819D02*
X151166667Y-109454819D01*
X151166667Y-109454819D02*
X151119048Y-109931009D01*
X151119048Y-109931009D02*
X151166667Y-109883390D01*
X151166667Y-109883390D02*
X151261905Y-109835771D01*
X151261905Y-109835771D02*
X151500000Y-109835771D01*
X151500000Y-109835771D02*
X151595238Y-109883390D01*
X151595238Y-109883390D02*
X151642857Y-109931009D01*
X151642857Y-109931009D02*
X151690476Y-110026247D01*
X151690476Y-110026247D02*
X151690476Y-110264342D01*
X151690476Y-110264342D02*
X151642857Y-110359580D01*
X151642857Y-110359580D02*
X151595238Y-110407200D01*
X151595238Y-110407200D02*
X151500000Y-110454819D01*
X151500000Y-110454819D02*
X151261905Y-110454819D01*
X151261905Y-110454819D02*
X151166667Y-110407200D01*
X151166667Y-110407200D02*
X151119048Y-110359580D01*
X72300000Y-104669771D02*
X72100000Y-104384057D01*
X71957143Y-104669771D02*
X71957143Y-104069771D01*
X71957143Y-104069771D02*
X72185714Y-104069771D01*
X72185714Y-104069771D02*
X72242857Y-104098342D01*
X72242857Y-104098342D02*
X72271428Y-104126914D01*
X72271428Y-104126914D02*
X72300000Y-104184057D01*
X72300000Y-104184057D02*
X72300000Y-104269771D01*
X72300000Y-104269771D02*
X72271428Y-104326914D01*
X72271428Y-104326914D02*
X72242857Y-104355485D01*
X72242857Y-104355485D02*
X72185714Y-104384057D01*
X72185714Y-104384057D02*
X71957143Y-104384057D01*
X72528571Y-104126914D02*
X72557143Y-104098342D01*
X72557143Y-104098342D02*
X72614286Y-104069771D01*
X72614286Y-104069771D02*
X72757143Y-104069771D01*
X72757143Y-104069771D02*
X72814286Y-104098342D01*
X72814286Y-104098342D02*
X72842857Y-104126914D01*
X72842857Y-104126914D02*
X72871428Y-104184057D01*
X72871428Y-104184057D02*
X72871428Y-104241200D01*
X72871428Y-104241200D02*
X72842857Y-104326914D01*
X72842857Y-104326914D02*
X72500000Y-104669771D01*
X72500000Y-104669771D02*
X72871428Y-104669771D01*
X152374790Y-107201228D02*
X152346218Y-107229800D01*
X152346218Y-107229800D02*
X152260504Y-107258371D01*
X152260504Y-107258371D02*
X152203361Y-107258371D01*
X152203361Y-107258371D02*
X152117647Y-107229800D01*
X152117647Y-107229800D02*
X152060504Y-107172657D01*
X152060504Y-107172657D02*
X152031933Y-107115514D01*
X152031933Y-107115514D02*
X152003361Y-107001228D01*
X152003361Y-107001228D02*
X152003361Y-106915514D01*
X152003361Y-106915514D02*
X152031933Y-106801228D01*
X152031933Y-106801228D02*
X152060504Y-106744085D01*
X152060504Y-106744085D02*
X152117647Y-106686942D01*
X152117647Y-106686942D02*
X152203361Y-106658371D01*
X152203361Y-106658371D02*
X152260504Y-106658371D01*
X152260504Y-106658371D02*
X152346218Y-106686942D01*
X152346218Y-106686942D02*
X152374790Y-106715514D01*
X152603361Y-106715514D02*
X152631933Y-106686942D01*
X152631933Y-106686942D02*
X152689076Y-106658371D01*
X152689076Y-106658371D02*
X152831933Y-106658371D01*
X152831933Y-106658371D02*
X152889076Y-106686942D01*
X152889076Y-106686942D02*
X152917647Y-106715514D01*
X152917647Y-106715514D02*
X152946218Y-106772657D01*
X152946218Y-106772657D02*
X152946218Y-106829800D01*
X152946218Y-106829800D02*
X152917647Y-106915514D01*
X152917647Y-106915514D02*
X152574790Y-107258371D01*
X152574790Y-107258371D02*
X152946218Y-107258371D01*
X153489076Y-106658371D02*
X153203362Y-106658371D01*
X153203362Y-106658371D02*
X153174790Y-106944085D01*
X153174790Y-106944085D02*
X153203362Y-106915514D01*
X153203362Y-106915514D02*
X153260505Y-106886942D01*
X153260505Y-106886942D02*
X153403362Y-106886942D01*
X153403362Y-106886942D02*
X153460505Y-106915514D01*
X153460505Y-106915514D02*
X153489076Y-106944085D01*
X153489076Y-106944085D02*
X153517647Y-107001228D01*
X153517647Y-107001228D02*
X153517647Y-107144085D01*
X153517647Y-107144085D02*
X153489076Y-107201228D01*
X153489076Y-107201228D02*
X153460505Y-107229800D01*
X153460505Y-107229800D02*
X153403362Y-107258371D01*
X153403362Y-107258371D02*
X153260505Y-107258371D01*
X153260505Y-107258371D02*
X153203362Y-107229800D01*
X153203362Y-107229800D02*
X153174790Y-107201228D01*
X129869771Y-105471428D02*
X129869771Y-105757142D01*
X129869771Y-105757142D02*
X129269771Y-105757142D01*
X129555485Y-105271428D02*
X129555485Y-105071428D01*
X129869771Y-104985714D02*
X129869771Y-105271428D01*
X129869771Y-105271428D02*
X129269771Y-105271428D01*
X129269771Y-105271428D02*
X129269771Y-104985714D01*
X129869771Y-104728571D02*
X129269771Y-104728571D01*
X129269771Y-104728571D02*
X129269771Y-104585714D01*
X129269771Y-104585714D02*
X129298342Y-104500000D01*
X129298342Y-104500000D02*
X129355485Y-104442857D01*
X129355485Y-104442857D02*
X129412628Y-104414286D01*
X129412628Y-104414286D02*
X129526914Y-104385714D01*
X129526914Y-104385714D02*
X129612628Y-104385714D01*
X129612628Y-104385714D02*
X129726914Y-104414286D01*
X129726914Y-104414286D02*
X129784057Y-104442857D01*
X129784057Y-104442857D02*
X129841200Y-104500000D01*
X129841200Y-104500000D02*
X129869771Y-104585714D01*
X129869771Y-104585714D02*
X129869771Y-104728571D01*
X129469771Y-103871429D02*
X129869771Y-103871429D01*
X129241200Y-104014286D02*
X129669771Y-104157143D01*
X129669771Y-104157143D02*
X129669771Y-103785714D01*
X107869771Y-105471428D02*
X107869771Y-105757142D01*
X107869771Y-105757142D02*
X107269771Y-105757142D01*
X107555485Y-105271428D02*
X107555485Y-105071428D01*
X107869771Y-104985714D02*
X107869771Y-105271428D01*
X107869771Y-105271428D02*
X107269771Y-105271428D01*
X107269771Y-105271428D02*
X107269771Y-104985714D01*
X107869771Y-104728571D02*
X107269771Y-104728571D01*
X107269771Y-104728571D02*
X107269771Y-104585714D01*
X107269771Y-104585714D02*
X107298342Y-104500000D01*
X107298342Y-104500000D02*
X107355485Y-104442857D01*
X107355485Y-104442857D02*
X107412628Y-104414286D01*
X107412628Y-104414286D02*
X107526914Y-104385714D01*
X107526914Y-104385714D02*
X107612628Y-104385714D01*
X107612628Y-104385714D02*
X107726914Y-104414286D01*
X107726914Y-104414286D02*
X107784057Y-104442857D01*
X107784057Y-104442857D02*
X107841200Y-104500000D01*
X107841200Y-104500000D02*
X107869771Y-104585714D01*
X107869771Y-104585714D02*
X107869771Y-104728571D01*
X107269771Y-104185714D02*
X107269771Y-103814286D01*
X107269771Y-103814286D02*
X107498342Y-104014286D01*
X107498342Y-104014286D02*
X107498342Y-103928571D01*
X107498342Y-103928571D02*
X107526914Y-103871429D01*
X107526914Y-103871429D02*
X107555485Y-103842857D01*
X107555485Y-103842857D02*
X107612628Y-103814286D01*
X107612628Y-103814286D02*
X107755485Y-103814286D01*
X107755485Y-103814286D02*
X107812628Y-103842857D01*
X107812628Y-103842857D02*
X107841200Y-103871429D01*
X107841200Y-103871429D02*
X107869771Y-103928571D01*
X107869771Y-103928571D02*
X107869771Y-104100000D01*
X107869771Y-104100000D02*
X107841200Y-104157143D01*
X107841200Y-104157143D02*
X107812628Y-104185714D01*
X58264771Y-84895714D02*
X57979057Y-85095714D01*
X58264771Y-85238571D02*
X57664771Y-85238571D01*
X57664771Y-85238571D02*
X57664771Y-85010000D01*
X57664771Y-85010000D02*
X57693342Y-84952857D01*
X57693342Y-84952857D02*
X57721914Y-84924286D01*
X57721914Y-84924286D02*
X57779057Y-84895714D01*
X57779057Y-84895714D02*
X57864771Y-84895714D01*
X57864771Y-84895714D02*
X57921914Y-84924286D01*
X57921914Y-84924286D02*
X57950485Y-84952857D01*
X57950485Y-84952857D02*
X57979057Y-85010000D01*
X57979057Y-85010000D02*
X57979057Y-85238571D01*
X58264771Y-84324286D02*
X58264771Y-84667143D01*
X58264771Y-84495714D02*
X57664771Y-84495714D01*
X57664771Y-84495714D02*
X57750485Y-84552857D01*
X57750485Y-84552857D02*
X57807628Y-84610000D01*
X57807628Y-84610000D02*
X57836200Y-84667143D01*
X57664771Y-83810000D02*
X57664771Y-83924285D01*
X57664771Y-83924285D02*
X57693342Y-83981428D01*
X57693342Y-83981428D02*
X57721914Y-84010000D01*
X57721914Y-84010000D02*
X57807628Y-84067142D01*
X57807628Y-84067142D02*
X57921914Y-84095714D01*
X57921914Y-84095714D02*
X58150485Y-84095714D01*
X58150485Y-84095714D02*
X58207628Y-84067142D01*
X58207628Y-84067142D02*
X58236200Y-84038571D01*
X58236200Y-84038571D02*
X58264771Y-83981428D01*
X58264771Y-83981428D02*
X58264771Y-83867142D01*
X58264771Y-83867142D02*
X58236200Y-83810000D01*
X58236200Y-83810000D02*
X58207628Y-83781428D01*
X58207628Y-83781428D02*
X58150485Y-83752857D01*
X58150485Y-83752857D02*
X58007628Y-83752857D01*
X58007628Y-83752857D02*
X57950485Y-83781428D01*
X57950485Y-83781428D02*
X57921914Y-83810000D01*
X57921914Y-83810000D02*
X57893342Y-83867142D01*
X57893342Y-83867142D02*
X57893342Y-83981428D01*
X57893342Y-83981428D02*
X57921914Y-84038571D01*
X57921914Y-84038571D02*
X57950485Y-84067142D01*
X57950485Y-84067142D02*
X58007628Y-84095714D01*
X93169771Y-79499999D02*
X92884057Y-79699999D01*
X93169771Y-79842856D02*
X92569771Y-79842856D01*
X92569771Y-79842856D02*
X92569771Y-79614285D01*
X92569771Y-79614285D02*
X92598342Y-79557142D01*
X92598342Y-79557142D02*
X92626914Y-79528571D01*
X92626914Y-79528571D02*
X92684057Y-79499999D01*
X92684057Y-79499999D02*
X92769771Y-79499999D01*
X92769771Y-79499999D02*
X92826914Y-79528571D01*
X92826914Y-79528571D02*
X92855485Y-79557142D01*
X92855485Y-79557142D02*
X92884057Y-79614285D01*
X92884057Y-79614285D02*
X92884057Y-79842856D01*
X93169771Y-78928571D02*
X93169771Y-79271428D01*
X93169771Y-79099999D02*
X92569771Y-79099999D01*
X92569771Y-79099999D02*
X92655485Y-79157142D01*
X92655485Y-79157142D02*
X92712628Y-79214285D01*
X92712628Y-79214285D02*
X92741200Y-79271428D01*
X57405963Y-104168690D02*
X56770963Y-104168690D01*
X56770963Y-104168690D02*
X56770963Y-104017500D01*
X56770963Y-104017500D02*
X56801201Y-103926785D01*
X56801201Y-103926785D02*
X56861677Y-103866309D01*
X56861677Y-103866309D02*
X56922153Y-103836071D01*
X56922153Y-103836071D02*
X57043105Y-103805833D01*
X57043105Y-103805833D02*
X57133820Y-103805833D01*
X57133820Y-103805833D02*
X57254772Y-103836071D01*
X57254772Y-103836071D02*
X57315248Y-103866309D01*
X57315248Y-103866309D02*
X57375725Y-103926785D01*
X57375725Y-103926785D02*
X57405963Y-104017500D01*
X57405963Y-104017500D02*
X57405963Y-104168690D01*
X56831439Y-103563928D02*
X56801201Y-103533690D01*
X56801201Y-103533690D02*
X56770963Y-103473214D01*
X56770963Y-103473214D02*
X56770963Y-103322023D01*
X56770963Y-103322023D02*
X56801201Y-103261547D01*
X56801201Y-103261547D02*
X56831439Y-103231309D01*
X56831439Y-103231309D02*
X56891915Y-103201071D01*
X56891915Y-103201071D02*
X56952391Y-103201071D01*
X56952391Y-103201071D02*
X57043105Y-103231309D01*
X57043105Y-103231309D02*
X57405963Y-103594166D01*
X57405963Y-103594166D02*
X57405963Y-103201071D01*
D13*
X67555357Y-99046071D02*
X67555357Y-99531785D01*
X67555357Y-99531785D02*
X67583928Y-99588928D01*
X67583928Y-99588928D02*
X67612500Y-99617500D01*
X67612500Y-99617500D02*
X67669642Y-99646071D01*
X67669642Y-99646071D02*
X67783928Y-99646071D01*
X67783928Y-99646071D02*
X67841071Y-99617500D01*
X67841071Y-99617500D02*
X67869642Y-99588928D01*
X67869642Y-99588928D02*
X67898214Y-99531785D01*
X67898214Y-99531785D02*
X67898214Y-99046071D01*
X68441071Y-99046071D02*
X68326785Y-99046071D01*
X68326785Y-99046071D02*
X68269642Y-99074642D01*
X68269642Y-99074642D02*
X68241071Y-99103214D01*
X68241071Y-99103214D02*
X68183928Y-99188928D01*
X68183928Y-99188928D02*
X68155356Y-99303214D01*
X68155356Y-99303214D02*
X68155356Y-99531785D01*
X68155356Y-99531785D02*
X68183928Y-99588928D01*
X68183928Y-99588928D02*
X68212499Y-99617500D01*
X68212499Y-99617500D02*
X68269642Y-99646071D01*
X68269642Y-99646071D02*
X68383928Y-99646071D01*
X68383928Y-99646071D02*
X68441071Y-99617500D01*
X68441071Y-99617500D02*
X68469642Y-99588928D01*
X68469642Y-99588928D02*
X68498213Y-99531785D01*
X68498213Y-99531785D02*
X68498213Y-99388928D01*
X68498213Y-99388928D02*
X68469642Y-99331785D01*
X68469642Y-99331785D02*
X68441071Y-99303214D01*
X68441071Y-99303214D02*
X68383928Y-99274642D01*
X68383928Y-99274642D02*
X68269642Y-99274642D01*
X68269642Y-99274642D02*
X68212499Y-99303214D01*
X68212499Y-99303214D02*
X68183928Y-99331785D01*
X68183928Y-99331785D02*
X68155356Y-99388928D01*
D12*
X104214286Y-109454819D02*
X104785714Y-109454819D01*
X104500000Y-110454819D02*
X104500000Y-109454819D01*
X105690476Y-110359580D02*
X105642857Y-110407200D01*
X105642857Y-110407200D02*
X105500000Y-110454819D01*
X105500000Y-110454819D02*
X105404762Y-110454819D01*
X105404762Y-110454819D02*
X105261905Y-110407200D01*
X105261905Y-110407200D02*
X105166667Y-110311961D01*
X105166667Y-110311961D02*
X105119048Y-110216723D01*
X105119048Y-110216723D02*
X105071429Y-110026247D01*
X105071429Y-110026247D02*
X105071429Y-109883390D01*
X105071429Y-109883390D02*
X105119048Y-109692914D01*
X105119048Y-109692914D02*
X105166667Y-109597676D01*
X105166667Y-109597676D02*
X105261905Y-109502438D01*
X105261905Y-109502438D02*
X105404762Y-109454819D01*
X105404762Y-109454819D02*
X105500000Y-109454819D01*
X105500000Y-109454819D02*
X105642857Y-109502438D01*
X105642857Y-109502438D02*
X105690476Y-109550057D01*
X106119048Y-110454819D02*
X106119048Y-109454819D01*
X106119048Y-109931009D02*
X106690476Y-109931009D01*
X106690476Y-110454819D02*
X106690476Y-109454819D01*
X107071429Y-109454819D02*
X107690476Y-109454819D01*
X107690476Y-109454819D02*
X107357143Y-109835771D01*
X107357143Y-109835771D02*
X107500000Y-109835771D01*
X107500000Y-109835771D02*
X107595238Y-109883390D01*
X107595238Y-109883390D02*
X107642857Y-109931009D01*
X107642857Y-109931009D02*
X107690476Y-110026247D01*
X107690476Y-110026247D02*
X107690476Y-110264342D01*
X107690476Y-110264342D02*
X107642857Y-110359580D01*
X107642857Y-110359580D02*
X107595238Y-110407200D01*
X107595238Y-110407200D02*
X107500000Y-110454819D01*
X107500000Y-110454819D02*
X107214286Y-110454819D01*
X107214286Y-110454819D02*
X107119048Y-110407200D01*
X107119048Y-110407200D02*
X107071429Y-110359580D01*
X86314285Y-107212628D02*
X86285713Y-107241200D01*
X86285713Y-107241200D02*
X86199999Y-107269771D01*
X86199999Y-107269771D02*
X86142856Y-107269771D01*
X86142856Y-107269771D02*
X86057142Y-107241200D01*
X86057142Y-107241200D02*
X85999999Y-107184057D01*
X85999999Y-107184057D02*
X85971428Y-107126914D01*
X85971428Y-107126914D02*
X85942856Y-107012628D01*
X85942856Y-107012628D02*
X85942856Y-106926914D01*
X85942856Y-106926914D02*
X85971428Y-106812628D01*
X85971428Y-106812628D02*
X85999999Y-106755485D01*
X85999999Y-106755485D02*
X86057142Y-106698342D01*
X86057142Y-106698342D02*
X86142856Y-106669771D01*
X86142856Y-106669771D02*
X86199999Y-106669771D01*
X86199999Y-106669771D02*
X86285713Y-106698342D01*
X86285713Y-106698342D02*
X86314285Y-106726914D01*
X86885713Y-107269771D02*
X86542856Y-107269771D01*
X86714285Y-107269771D02*
X86714285Y-106669771D01*
X86714285Y-106669771D02*
X86657142Y-106755485D01*
X86657142Y-106755485D02*
X86599999Y-106812628D01*
X86599999Y-106812628D02*
X86542856Y-106841200D01*
X87085714Y-106669771D02*
X87485714Y-106669771D01*
X87485714Y-106669771D02*
X87228571Y-107269771D01*
X86999999Y-81041200D02*
X87085714Y-81069771D01*
X87085714Y-81069771D02*
X87228571Y-81069771D01*
X87228571Y-81069771D02*
X87285714Y-81041200D01*
X87285714Y-81041200D02*
X87314285Y-81012628D01*
X87314285Y-81012628D02*
X87342856Y-80955485D01*
X87342856Y-80955485D02*
X87342856Y-80898342D01*
X87342856Y-80898342D02*
X87314285Y-80841200D01*
X87314285Y-80841200D02*
X87285714Y-80812628D01*
X87285714Y-80812628D02*
X87228571Y-80784057D01*
X87228571Y-80784057D02*
X87114285Y-80755485D01*
X87114285Y-80755485D02*
X87057142Y-80726914D01*
X87057142Y-80726914D02*
X87028571Y-80698342D01*
X87028571Y-80698342D02*
X86999999Y-80641200D01*
X86999999Y-80641200D02*
X86999999Y-80584057D01*
X86999999Y-80584057D02*
X87028571Y-80526914D01*
X87028571Y-80526914D02*
X87057142Y-80498342D01*
X87057142Y-80498342D02*
X87114285Y-80469771D01*
X87114285Y-80469771D02*
X87257142Y-80469771D01*
X87257142Y-80469771D02*
X87342856Y-80498342D01*
X87542857Y-80469771D02*
X87685714Y-81069771D01*
X87685714Y-81069771D02*
X87800000Y-80641200D01*
X87800000Y-80641200D02*
X87914285Y-81069771D01*
X87914285Y-81069771D02*
X88057143Y-80469771D01*
X88599999Y-81069771D02*
X88257142Y-81069771D01*
X88428571Y-81069771D02*
X88428571Y-80469771D01*
X88428571Y-80469771D02*
X88371428Y-80555485D01*
X88371428Y-80555485D02*
X88314285Y-80612628D01*
X88314285Y-80612628D02*
X88257142Y-80641200D01*
X121664999Y-94620800D02*
X121750714Y-94649371D01*
X121750714Y-94649371D02*
X121893571Y-94649371D01*
X121893571Y-94649371D02*
X121950714Y-94620800D01*
X121950714Y-94620800D02*
X121979285Y-94592228D01*
X121979285Y-94592228D02*
X122007856Y-94535085D01*
X122007856Y-94535085D02*
X122007856Y-94477942D01*
X122007856Y-94477942D02*
X121979285Y-94420800D01*
X121979285Y-94420800D02*
X121950714Y-94392228D01*
X121950714Y-94392228D02*
X121893571Y-94363657D01*
X121893571Y-94363657D02*
X121779285Y-94335085D01*
X121779285Y-94335085D02*
X121722142Y-94306514D01*
X121722142Y-94306514D02*
X121693571Y-94277942D01*
X121693571Y-94277942D02*
X121664999Y-94220800D01*
X121664999Y-94220800D02*
X121664999Y-94163657D01*
X121664999Y-94163657D02*
X121693571Y-94106514D01*
X121693571Y-94106514D02*
X121722142Y-94077942D01*
X121722142Y-94077942D02*
X121779285Y-94049371D01*
X121779285Y-94049371D02*
X121922142Y-94049371D01*
X121922142Y-94049371D02*
X122007856Y-94077942D01*
X122207857Y-94049371D02*
X122350714Y-94649371D01*
X122350714Y-94649371D02*
X122465000Y-94220800D01*
X122465000Y-94220800D02*
X122579285Y-94649371D01*
X122579285Y-94649371D02*
X122722143Y-94049371D01*
X122922142Y-94106514D02*
X122950714Y-94077942D01*
X122950714Y-94077942D02*
X123007857Y-94049371D01*
X123007857Y-94049371D02*
X123150714Y-94049371D01*
X123150714Y-94049371D02*
X123207857Y-94077942D01*
X123207857Y-94077942D02*
X123236428Y-94106514D01*
X123236428Y-94106514D02*
X123264999Y-94163657D01*
X123264999Y-94163657D02*
X123264999Y-94220800D01*
X123264999Y-94220800D02*
X123236428Y-94306514D01*
X123236428Y-94306514D02*
X122893571Y-94649371D01*
X122893571Y-94649371D02*
X123264999Y-94649371D01*
X141164285Y-92399771D02*
X140964285Y-92114057D01*
X140821428Y-92399771D02*
X140821428Y-91799771D01*
X140821428Y-91799771D02*
X141049999Y-91799771D01*
X141049999Y-91799771D02*
X141107142Y-91828342D01*
X141107142Y-91828342D02*
X141135713Y-91856914D01*
X141135713Y-91856914D02*
X141164285Y-91914057D01*
X141164285Y-91914057D02*
X141164285Y-91999771D01*
X141164285Y-91999771D02*
X141135713Y-92056914D01*
X141135713Y-92056914D02*
X141107142Y-92085485D01*
X141107142Y-92085485D02*
X141049999Y-92114057D01*
X141049999Y-92114057D02*
X140821428Y-92114057D01*
X141364285Y-91799771D02*
X141735713Y-91799771D01*
X141735713Y-91799771D02*
X141535713Y-92028342D01*
X141535713Y-92028342D02*
X141621428Y-92028342D01*
X141621428Y-92028342D02*
X141678571Y-92056914D01*
X141678571Y-92056914D02*
X141707142Y-92085485D01*
X141707142Y-92085485D02*
X141735713Y-92142628D01*
X141735713Y-92142628D02*
X141735713Y-92285485D01*
X141735713Y-92285485D02*
X141707142Y-92342628D01*
X141707142Y-92342628D02*
X141678571Y-92371200D01*
X141678571Y-92371200D02*
X141621428Y-92399771D01*
X141621428Y-92399771D02*
X141449999Y-92399771D01*
X141449999Y-92399771D02*
X141392856Y-92371200D01*
X141392856Y-92371200D02*
X141364285Y-92342628D01*
X142307142Y-92399771D02*
X141964285Y-92399771D01*
X142135714Y-92399771D02*
X142135714Y-91799771D01*
X142135714Y-91799771D02*
X142078571Y-91885485D01*
X142078571Y-91885485D02*
X142021428Y-91942628D01*
X142021428Y-91942628D02*
X141964285Y-91971200D01*
X85869771Y-105471428D02*
X85869771Y-105757142D01*
X85869771Y-105757142D02*
X85269771Y-105757142D01*
X85555485Y-105271428D02*
X85555485Y-105071428D01*
X85869771Y-104985714D02*
X85869771Y-105271428D01*
X85869771Y-105271428D02*
X85269771Y-105271428D01*
X85269771Y-105271428D02*
X85269771Y-104985714D01*
X85869771Y-104728571D02*
X85269771Y-104728571D01*
X85269771Y-104728571D02*
X85269771Y-104585714D01*
X85269771Y-104585714D02*
X85298342Y-104500000D01*
X85298342Y-104500000D02*
X85355485Y-104442857D01*
X85355485Y-104442857D02*
X85412628Y-104414286D01*
X85412628Y-104414286D02*
X85526914Y-104385714D01*
X85526914Y-104385714D02*
X85612628Y-104385714D01*
X85612628Y-104385714D02*
X85726914Y-104414286D01*
X85726914Y-104414286D02*
X85784057Y-104442857D01*
X85784057Y-104442857D02*
X85841200Y-104500000D01*
X85841200Y-104500000D02*
X85869771Y-104585714D01*
X85869771Y-104585714D02*
X85869771Y-104728571D01*
X85326914Y-104157143D02*
X85298342Y-104128571D01*
X85298342Y-104128571D02*
X85269771Y-104071429D01*
X85269771Y-104071429D02*
X85269771Y-103928571D01*
X85269771Y-103928571D02*
X85298342Y-103871429D01*
X85298342Y-103871429D02*
X85326914Y-103842857D01*
X85326914Y-103842857D02*
X85384057Y-103814286D01*
X85384057Y-103814286D02*
X85441200Y-103814286D01*
X85441200Y-103814286D02*
X85526914Y-103842857D01*
X85526914Y-103842857D02*
X85869771Y-104185714D01*
X85869771Y-104185714D02*
X85869771Y-103814286D01*
X63869771Y-105471428D02*
X63869771Y-105757142D01*
X63869771Y-105757142D02*
X63269771Y-105757142D01*
X63555485Y-105271428D02*
X63555485Y-105071428D01*
X63869771Y-104985714D02*
X63869771Y-105271428D01*
X63869771Y-105271428D02*
X63269771Y-105271428D01*
X63269771Y-105271428D02*
X63269771Y-104985714D01*
X63869771Y-104728571D02*
X63269771Y-104728571D01*
X63269771Y-104728571D02*
X63269771Y-104585714D01*
X63269771Y-104585714D02*
X63298342Y-104500000D01*
X63298342Y-104500000D02*
X63355485Y-104442857D01*
X63355485Y-104442857D02*
X63412628Y-104414286D01*
X63412628Y-104414286D02*
X63526914Y-104385714D01*
X63526914Y-104385714D02*
X63612628Y-104385714D01*
X63612628Y-104385714D02*
X63726914Y-104414286D01*
X63726914Y-104414286D02*
X63784057Y-104442857D01*
X63784057Y-104442857D02*
X63841200Y-104500000D01*
X63841200Y-104500000D02*
X63869771Y-104585714D01*
X63869771Y-104585714D02*
X63869771Y-104728571D01*
X63869771Y-103814286D02*
X63869771Y-104157143D01*
X63869771Y-103985714D02*
X63269771Y-103985714D01*
X63269771Y-103985714D02*
X63355485Y-104042857D01*
X63355485Y-104042857D02*
X63412628Y-104100000D01*
X63412628Y-104100000D02*
X63441200Y-104157143D01*
X69342857Y-105026914D02*
X69285714Y-104998342D01*
X69285714Y-104998342D02*
X69228571Y-104941200D01*
X69228571Y-104941200D02*
X69142857Y-104855485D01*
X69142857Y-104855485D02*
X69085714Y-104826914D01*
X69085714Y-104826914D02*
X69028571Y-104826914D01*
X69057142Y-104969771D02*
X69000000Y-104941200D01*
X69000000Y-104941200D02*
X68942857Y-104884057D01*
X68942857Y-104884057D02*
X68914285Y-104769771D01*
X68914285Y-104769771D02*
X68914285Y-104569771D01*
X68914285Y-104569771D02*
X68942857Y-104455485D01*
X68942857Y-104455485D02*
X69000000Y-104398342D01*
X69000000Y-104398342D02*
X69057142Y-104369771D01*
X69057142Y-104369771D02*
X69171428Y-104369771D01*
X69171428Y-104369771D02*
X69228571Y-104398342D01*
X69228571Y-104398342D02*
X69285714Y-104455485D01*
X69285714Y-104455485D02*
X69314285Y-104569771D01*
X69314285Y-104569771D02*
X69314285Y-104769771D01*
X69314285Y-104769771D02*
X69285714Y-104884057D01*
X69285714Y-104884057D02*
X69228571Y-104941200D01*
X69228571Y-104941200D02*
X69171428Y-104969771D01*
X69171428Y-104969771D02*
X69057142Y-104969771D01*
X69885713Y-104969771D02*
X69542856Y-104969771D01*
X69714285Y-104969771D02*
X69714285Y-104369771D01*
X69714285Y-104369771D02*
X69657142Y-104455485D01*
X69657142Y-104455485D02*
X69599999Y-104512628D01*
X69599999Y-104512628D02*
X69542856Y-104541200D01*
X63369771Y-102599999D02*
X63084057Y-102799999D01*
X63369771Y-102942856D02*
X62769771Y-102942856D01*
X62769771Y-102942856D02*
X62769771Y-102714285D01*
X62769771Y-102714285D02*
X62798342Y-102657142D01*
X62798342Y-102657142D02*
X62826914Y-102628571D01*
X62826914Y-102628571D02*
X62884057Y-102599999D01*
X62884057Y-102599999D02*
X62969771Y-102599999D01*
X62969771Y-102599999D02*
X63026914Y-102628571D01*
X63026914Y-102628571D02*
X63055485Y-102657142D01*
X63055485Y-102657142D02*
X63084057Y-102714285D01*
X63084057Y-102714285D02*
X63084057Y-102942856D01*
X62769771Y-102057142D02*
X62769771Y-102342856D01*
X62769771Y-102342856D02*
X63055485Y-102371428D01*
X63055485Y-102371428D02*
X63026914Y-102342856D01*
X63026914Y-102342856D02*
X62998342Y-102285714D01*
X62998342Y-102285714D02*
X62998342Y-102142856D01*
X62998342Y-102142856D02*
X63026914Y-102085714D01*
X63026914Y-102085714D02*
X63055485Y-102057142D01*
X63055485Y-102057142D02*
X63112628Y-102028571D01*
X63112628Y-102028571D02*
X63255485Y-102028571D01*
X63255485Y-102028571D02*
X63312628Y-102057142D01*
X63312628Y-102057142D02*
X63341200Y-102085714D01*
X63341200Y-102085714D02*
X63369771Y-102142856D01*
X63369771Y-102142856D02*
X63369771Y-102285714D01*
X63369771Y-102285714D02*
X63341200Y-102342856D01*
X63341200Y-102342856D02*
X63312628Y-102371428D01*
X95177628Y-79159999D02*
X95206200Y-79188571D01*
X95206200Y-79188571D02*
X95234771Y-79274285D01*
X95234771Y-79274285D02*
X95234771Y-79331428D01*
X95234771Y-79331428D02*
X95206200Y-79417142D01*
X95206200Y-79417142D02*
X95149057Y-79474285D01*
X95149057Y-79474285D02*
X95091914Y-79502856D01*
X95091914Y-79502856D02*
X94977628Y-79531428D01*
X94977628Y-79531428D02*
X94891914Y-79531428D01*
X94891914Y-79531428D02*
X94777628Y-79502856D01*
X94777628Y-79502856D02*
X94720485Y-79474285D01*
X94720485Y-79474285D02*
X94663342Y-79417142D01*
X94663342Y-79417142D02*
X94634771Y-79331428D01*
X94634771Y-79331428D02*
X94634771Y-79274285D01*
X94634771Y-79274285D02*
X94663342Y-79188571D01*
X94663342Y-79188571D02*
X94691914Y-79159999D01*
X94634771Y-78959999D02*
X94634771Y-78588571D01*
X94634771Y-78588571D02*
X94863342Y-78788571D01*
X94863342Y-78788571D02*
X94863342Y-78702856D01*
X94863342Y-78702856D02*
X94891914Y-78645714D01*
X94891914Y-78645714D02*
X94920485Y-78617142D01*
X94920485Y-78617142D02*
X94977628Y-78588571D01*
X94977628Y-78588571D02*
X95120485Y-78588571D01*
X95120485Y-78588571D02*
X95177628Y-78617142D01*
X95177628Y-78617142D02*
X95206200Y-78645714D01*
X95206200Y-78645714D02*
X95234771Y-78702856D01*
X95234771Y-78702856D02*
X95234771Y-78874285D01*
X95234771Y-78874285D02*
X95206200Y-78931428D01*
X95206200Y-78931428D02*
X95177628Y-78959999D01*
X151469771Y-91085714D02*
X151469771Y-91371428D01*
X151469771Y-91371428D02*
X150869771Y-91371428D01*
X151441200Y-90914286D02*
X151469771Y-90828572D01*
X151469771Y-90828572D02*
X151469771Y-90685714D01*
X151469771Y-90685714D02*
X151441200Y-90628572D01*
X151441200Y-90628572D02*
X151412628Y-90600000D01*
X151412628Y-90600000D02*
X151355485Y-90571429D01*
X151355485Y-90571429D02*
X151298342Y-90571429D01*
X151298342Y-90571429D02*
X151241200Y-90600000D01*
X151241200Y-90600000D02*
X151212628Y-90628572D01*
X151212628Y-90628572D02*
X151184057Y-90685714D01*
X151184057Y-90685714D02*
X151155485Y-90800000D01*
X151155485Y-90800000D02*
X151126914Y-90857143D01*
X151126914Y-90857143D02*
X151098342Y-90885714D01*
X151098342Y-90885714D02*
X151041200Y-90914286D01*
X151041200Y-90914286D02*
X150984057Y-90914286D01*
X150984057Y-90914286D02*
X150926914Y-90885714D01*
X150926914Y-90885714D02*
X150898342Y-90857143D01*
X150898342Y-90857143D02*
X150869771Y-90800000D01*
X150869771Y-90800000D02*
X150869771Y-90657143D01*
X150869771Y-90657143D02*
X150898342Y-90571429D01*
X151469771Y-90000000D02*
X151469771Y-90342857D01*
X151469771Y-90171428D02*
X150869771Y-90171428D01*
X150869771Y-90171428D02*
X150955485Y-90228571D01*
X150955485Y-90228571D02*
X151012628Y-90285714D01*
X151012628Y-90285714D02*
X151041200Y-90342857D01*
D14*
%TO.C,C18*%
X128184420Y-106490000D02*
X128465580Y-106490000D01*
X128184420Y-107510000D02*
X128465580Y-107510000D01*
%TO.C,U1*%
X98165000Y-68660000D02*
X98165000Y-74860000D01*
X98165000Y-68660000D02*
X116565000Y-68660000D01*
X98165000Y-93510000D02*
X98165000Y-94510000D01*
X98165000Y-94510000D02*
X99665000Y-94510000D01*
X116565000Y-68660000D02*
X116565000Y-74860000D01*
X116565000Y-94510000D02*
X115065000Y-94510000D01*
X116565000Y-94510000D02*
X116565000Y-93510000D01*
X98165000Y-75535000D02*
X97665000Y-75535000D01*
X98165000Y-75035000D01*
X98165000Y-75535000D01*
G36*
X98165000Y-75535000D02*
G01*
X97665000Y-75535000D01*
X98165000Y-75035000D01*
X98165000Y-75535000D01*
G37*
%TO.C,D5*%
X62125000Y-86510000D02*
X62125000Y-88470000D01*
X62125000Y-88470000D02*
X63325000Y-88470000D01*
X63325000Y-86510000D02*
X63325000Y-88470000D01*
%TO.C,TP1*%
X154800000Y-103800000D02*
X157200000Y-103800000D01*
X154800000Y-106200000D02*
X154800000Y-103800000D01*
X157200000Y-103800000D02*
X157200000Y-106200000D01*
X157200000Y-106200000D02*
X154800000Y-106200000D01*
%TO.C,R3*%
X80340242Y-98077500D02*
X80814758Y-98077500D01*
X80340242Y-99122500D02*
X80814758Y-99122500D01*
%TO.C,C1*%
X90790000Y-83084420D02*
X90790000Y-83365580D01*
X91810000Y-83084420D02*
X91810000Y-83365580D01*
%TO.C,C21*%
X64402500Y-97034420D02*
X64402500Y-97315580D01*
X65422500Y-97034420D02*
X65422500Y-97315580D01*
%TO.C,C16*%
X62159420Y-106490000D02*
X62440580Y-106490000D01*
X62159420Y-107510000D02*
X62440580Y-107510000D01*
%TO.C,R4*%
X65437258Y-100377500D02*
X64962742Y-100377500D01*
X65437258Y-101422500D02*
X64962742Y-101422500D01*
D15*
%TO.C,J1*%
X52645000Y-96070000D02*
X53925000Y-96070000D01*
X53925000Y-87130000D02*
X52645000Y-87130000D01*
X57895000Y-87130000D02*
X56645000Y-87130000D01*
X57895000Y-96070000D02*
X56645000Y-96070000D01*
X61345000Y-88350000D02*
G75*
G02*
X61145000Y-88350000I-100000J0D01*
G01*
X61145000Y-88350000D02*
G75*
G02*
X61345000Y-88350000I100000J0D01*
G01*
D14*
%TO.C,R17*%
X63662742Y-93577500D02*
X64137258Y-93577500D01*
X63662742Y-94622500D02*
X64137258Y-94622500D01*
D16*
%TO.C,REF\u002A\u002A*%
X138099460Y-81058030D02*
X138142711Y-81071245D01*
X138170558Y-81087941D01*
X138179629Y-81101145D01*
X138177132Y-81116797D01*
X138160931Y-81141385D01*
X138147232Y-81158800D01*
X138118992Y-81190283D01*
X138097775Y-81203529D01*
X138079688Y-81202664D01*
X138026035Y-81189010D01*
X137986630Y-81189630D01*
X137954632Y-81205104D01*
X137943890Y-81214161D01*
X137909505Y-81246027D01*
X137909505Y-81662179D01*
X137771188Y-81662179D01*
X137771188Y-81058614D01*
X137840347Y-81058614D01*
X137881869Y-81060256D01*
X137903291Y-81066087D01*
X137909502Y-81077461D01*
X137909505Y-81077798D01*
X137912439Y-81089713D01*
X137925704Y-81088159D01*
X137944084Y-81079563D01*
X137982046Y-81063568D01*
X138012872Y-81053945D01*
X138052536Y-81051478D01*
X138099460Y-81058030D01*
G36*
X138099460Y-81058030D02*
G01*
X138142711Y-81071245D01*
X138170558Y-81087941D01*
X138179629Y-81101145D01*
X138177132Y-81116797D01*
X138160931Y-81141385D01*
X138147232Y-81158800D01*
X138118992Y-81190283D01*
X138097775Y-81203529D01*
X138079688Y-81202664D01*
X138026035Y-81189010D01*
X137986630Y-81189630D01*
X137954632Y-81205104D01*
X137943890Y-81214161D01*
X137909505Y-81246027D01*
X137909505Y-81662179D01*
X137771188Y-81662179D01*
X137771188Y-81058614D01*
X137840347Y-81058614D01*
X137881869Y-81060256D01*
X137903291Y-81066087D01*
X137909502Y-81077461D01*
X137909505Y-81077798D01*
X137912439Y-81089713D01*
X137925704Y-81088159D01*
X137944084Y-81079563D01*
X137982046Y-81063568D01*
X138012872Y-81053945D01*
X138052536Y-81051478D01*
X138099460Y-81058030D01*
G37*
X137935255Y-82001486D02*
X137983595Y-82011015D01*
X138011114Y-82025125D01*
X138040064Y-82048568D01*
X137998876Y-82100571D01*
X137973482Y-82132064D01*
X137956238Y-82147428D01*
X137939102Y-82149776D01*
X137914027Y-82142217D01*
X137902257Y-82137941D01*
X137854270Y-82131631D01*
X137810324Y-82145156D01*
X137778060Y-82175710D01*
X137772819Y-82185452D01*
X137767112Y-82211258D01*
X137762706Y-82258817D01*
X137759811Y-82324758D01*
X137758631Y-82405710D01*
X137758614Y-82417226D01*
X137758614Y-82617822D01*
X137620297Y-82617822D01*
X137620297Y-82001683D01*
X137689456Y-82001683D01*
X137729333Y-82002725D01*
X137750107Y-82007358D01*
X137757789Y-82017849D01*
X137758614Y-82027745D01*
X137758614Y-82053806D01*
X137791745Y-82027745D01*
X137829735Y-82009965D01*
X137880770Y-82001174D01*
X137935255Y-82001486D01*
G36*
X137935255Y-82001486D02*
G01*
X137983595Y-82011015D01*
X138011114Y-82025125D01*
X138040064Y-82048568D01*
X137998876Y-82100571D01*
X137973482Y-82132064D01*
X137956238Y-82147428D01*
X137939102Y-82149776D01*
X137914027Y-82142217D01*
X137902257Y-82137941D01*
X137854270Y-82131631D01*
X137810324Y-82145156D01*
X137778060Y-82175710D01*
X137772819Y-82185452D01*
X137767112Y-82211258D01*
X137762706Y-82258817D01*
X137759811Y-82324758D01*
X137758631Y-82405710D01*
X137758614Y-82417226D01*
X137758614Y-82617822D01*
X137620297Y-82617822D01*
X137620297Y-82001683D01*
X137689456Y-82001683D01*
X137729333Y-82002725D01*
X137750107Y-82007358D01*
X137757789Y-82017849D01*
X137758614Y-82027745D01*
X137758614Y-82053806D01*
X137791745Y-82027745D01*
X137829735Y-82009965D01*
X137880770Y-82001174D01*
X137935255Y-82001486D01*
G37*
X135306644Y-82003020D02*
X135325461Y-82008660D01*
X135331527Y-82021053D01*
X135331782Y-82026647D01*
X135332871Y-82042230D01*
X135340368Y-82044676D01*
X135360619Y-82033993D01*
X135372649Y-82026694D01*
X135410600Y-82011063D01*
X135455928Y-82003334D01*
X135503456Y-82002740D01*
X135548005Y-82008513D01*
X135584398Y-82019884D01*
X135607457Y-82036088D01*
X135612004Y-82056355D01*
X135609709Y-82061843D01*
X135592980Y-82084626D01*
X135567037Y-82112647D01*
X135562345Y-82117177D01*
X135537617Y-82138005D01*
X135516282Y-82144735D01*
X135486445Y-82140038D01*
X135474492Y-82136917D01*
X135437295Y-82129421D01*
X135411141Y-82132792D01*
X135389054Y-82144681D01*
X135368822Y-82160635D01*
X135353921Y-82180700D01*
X135343566Y-82208702D01*
X135336971Y-82248467D01*
X135333351Y-82303823D01*
X135331922Y-82378594D01*
X135331782Y-82423740D01*
X135331782Y-82617822D01*
X135206040Y-82617822D01*
X135206040Y-82001683D01*
X135268911Y-82001683D01*
X135306644Y-82003020D01*
G36*
X135306644Y-82003020D02*
G01*
X135325461Y-82008660D01*
X135331527Y-82021053D01*
X135331782Y-82026647D01*
X135332871Y-82042230D01*
X135340368Y-82044676D01*
X135360619Y-82033993D01*
X135372649Y-82026694D01*
X135410600Y-82011063D01*
X135455928Y-82003334D01*
X135503456Y-82002740D01*
X135548005Y-82008513D01*
X135584398Y-82019884D01*
X135607457Y-82036088D01*
X135612004Y-82056355D01*
X135609709Y-82061843D01*
X135592980Y-82084626D01*
X135567037Y-82112647D01*
X135562345Y-82117177D01*
X135537617Y-82138005D01*
X135516282Y-82144735D01*
X135486445Y-82140038D01*
X135474492Y-82136917D01*
X135437295Y-82129421D01*
X135411141Y-82132792D01*
X135389054Y-82144681D01*
X135368822Y-82160635D01*
X135353921Y-82180700D01*
X135343566Y-82208702D01*
X135336971Y-82248467D01*
X135333351Y-82303823D01*
X135331922Y-82378594D01*
X135331782Y-82423740D01*
X135331782Y-82617822D01*
X135206040Y-82617822D01*
X135206040Y-82001683D01*
X135268911Y-82001683D01*
X135306644Y-82003020D01*
G37*
X137293367Y-81254342D02*
X137294555Y-81346563D01*
X137298897Y-81416610D01*
X137307558Y-81467381D01*
X137321704Y-81501772D01*
X137342500Y-81522679D01*
X137371110Y-81533000D01*
X137406535Y-81535636D01*
X137443636Y-81532682D01*
X137471818Y-81521889D01*
X137492243Y-81500360D01*
X137506079Y-81465199D01*
X137514491Y-81413510D01*
X137518643Y-81342394D01*
X137519703Y-81254342D01*
X137519703Y-81058614D01*
X137658020Y-81058614D01*
X137658020Y-81662179D01*
X137588862Y-81662179D01*
X137547170Y-81660489D01*
X137525701Y-81654556D01*
X137519703Y-81643293D01*
X137516091Y-81633261D01*
X137501714Y-81635383D01*
X137472736Y-81649580D01*
X137406319Y-81671480D01*
X137335875Y-81669928D01*
X137268377Y-81646147D01*
X137236233Y-81627362D01*
X137211715Y-81607022D01*
X137193804Y-81581573D01*
X137181479Y-81547458D01*
X137173723Y-81501121D01*
X137169516Y-81439007D01*
X137167840Y-81357561D01*
X137167624Y-81294578D01*
X137167624Y-81058614D01*
X137293367Y-81058614D01*
X137293367Y-81254342D01*
G36*
X137293367Y-81254342D02*
G01*
X137294555Y-81346563D01*
X137298897Y-81416610D01*
X137307558Y-81467381D01*
X137321704Y-81501772D01*
X137342500Y-81522679D01*
X137371110Y-81533000D01*
X137406535Y-81535636D01*
X137443636Y-81532682D01*
X137471818Y-81521889D01*
X137492243Y-81500360D01*
X137506079Y-81465199D01*
X137514491Y-81413510D01*
X137518643Y-81342394D01*
X137519703Y-81254342D01*
X137519703Y-81058614D01*
X137658020Y-81058614D01*
X137658020Y-81662179D01*
X137588862Y-81662179D01*
X137547170Y-81660489D01*
X137525701Y-81654556D01*
X137519703Y-81643293D01*
X137516091Y-81633261D01*
X137501714Y-81635383D01*
X137472736Y-81649580D01*
X137406319Y-81671480D01*
X137335875Y-81669928D01*
X137268377Y-81646147D01*
X137236233Y-81627362D01*
X137211715Y-81607022D01*
X137193804Y-81581573D01*
X137181479Y-81547458D01*
X137173723Y-81501121D01*
X137169516Y-81439007D01*
X137167840Y-81357561D01*
X137167624Y-81294578D01*
X137167624Y-81058614D01*
X137293367Y-81058614D01*
X137293367Y-81254342D01*
G37*
X135545988Y-81069002D02*
X135577283Y-81083950D01*
X135607591Y-81105541D01*
X135630682Y-81130391D01*
X135647500Y-81162087D01*
X135658994Y-81204214D01*
X135666109Y-81260358D01*
X135669793Y-81334106D01*
X135670992Y-81429044D01*
X135671011Y-81438985D01*
X135671287Y-81662179D01*
X135532970Y-81662179D01*
X135532970Y-81456418D01*
X135532872Y-81380189D01*
X135532191Y-81324939D01*
X135530349Y-81286501D01*
X135526767Y-81260706D01*
X135520868Y-81243384D01*
X135512073Y-81230368D01*
X135499820Y-81217507D01*
X135456953Y-81189873D01*
X135410157Y-81184745D01*
X135365576Y-81202217D01*
X135350072Y-81215221D01*
X135338690Y-81227447D01*
X135330519Y-81240540D01*
X135325026Y-81258615D01*
X135321680Y-81285787D01*
X135319949Y-81326170D01*
X135319303Y-81383879D01*
X135319208Y-81454132D01*
X135319208Y-81662179D01*
X135180891Y-81662179D01*
X135180891Y-81058614D01*
X135250050Y-81058614D01*
X135291572Y-81060256D01*
X135312994Y-81066087D01*
X135319205Y-81077461D01*
X135319208Y-81077798D01*
X135322090Y-81088938D01*
X135334801Y-81087674D01*
X135360074Y-81075434D01*
X135417395Y-81057424D01*
X135482963Y-81055421D01*
X135545988Y-81069002D01*
G36*
X135545988Y-81069002D02*
G01*
X135577283Y-81083950D01*
X135607591Y-81105541D01*
X135630682Y-81130391D01*
X135647500Y-81162087D01*
X135658994Y-81204214D01*
X135666109Y-81260358D01*
X135669793Y-81334106D01*
X135670992Y-81429044D01*
X135671011Y-81438985D01*
X135671287Y-81662179D01*
X135532970Y-81662179D01*
X135532970Y-81456418D01*
X135532872Y-81380189D01*
X135532191Y-81324939D01*
X135530349Y-81286501D01*
X135526767Y-81260706D01*
X135520868Y-81243384D01*
X135512073Y-81230368D01*
X135499820Y-81217507D01*
X135456953Y-81189873D01*
X135410157Y-81184745D01*
X135365576Y-81202217D01*
X135350072Y-81215221D01*
X135338690Y-81227447D01*
X135330519Y-81240540D01*
X135325026Y-81258615D01*
X135321680Y-81285787D01*
X135319949Y-81326170D01*
X135319303Y-81383879D01*
X135319208Y-81454132D01*
X135319208Y-81662179D01*
X135180891Y-81662179D01*
X135180891Y-81058614D01*
X135250050Y-81058614D01*
X135291572Y-81060256D01*
X135312994Y-81066087D01*
X135319205Y-81077461D01*
X135319208Y-81077798D01*
X135322090Y-81088938D01*
X135334801Y-81087674D01*
X135360074Y-81075434D01*
X135417395Y-81057424D01*
X135482963Y-81055421D01*
X135545988Y-81069002D01*
G37*
X138517226Y-81063880D02*
X138590080Y-81094830D01*
X138613027Y-81109895D01*
X138642354Y-81133048D01*
X138660764Y-81151253D01*
X138663961Y-81157183D01*
X138654935Y-81170340D01*
X138631837Y-81192667D01*
X138613344Y-81208250D01*
X138562728Y-81248926D01*
X138522760Y-81215295D01*
X138491874Y-81193584D01*
X138461759Y-81186090D01*
X138427292Y-81187920D01*
X138372561Y-81201528D01*
X138334886Y-81229772D01*
X138311991Y-81275433D01*
X138301597Y-81341289D01*
X138301595Y-81341331D01*
X138302494Y-81414939D01*
X138316463Y-81468946D01*
X138344328Y-81505716D01*
X138363325Y-81518168D01*
X138413776Y-81533673D01*
X138467663Y-81533683D01*
X138514546Y-81518638D01*
X138525644Y-81511287D01*
X138553476Y-81492511D01*
X138575236Y-81489434D01*
X138598704Y-81503409D01*
X138624649Y-81528510D01*
X138665716Y-81570880D01*
X138620121Y-81608464D01*
X138549674Y-81650882D01*
X138470233Y-81671785D01*
X138387215Y-81670272D01*
X138332694Y-81656411D01*
X138268970Y-81622135D01*
X138218005Y-81568212D01*
X138194851Y-81530149D01*
X138176099Y-81475536D01*
X138166715Y-81406369D01*
X138166643Y-81331407D01*
X138175824Y-81259409D01*
X138194199Y-81199137D01*
X138197093Y-81192958D01*
X138239952Y-81132351D01*
X138297979Y-81088224D01*
X138366591Y-81061493D01*
X138441201Y-81053073D01*
X138517226Y-81063880D01*
G36*
X138517226Y-81063880D02*
G01*
X138590080Y-81094830D01*
X138613027Y-81109895D01*
X138642354Y-81133048D01*
X138660764Y-81151253D01*
X138663961Y-81157183D01*
X138654935Y-81170340D01*
X138631837Y-81192667D01*
X138613344Y-81208250D01*
X138562728Y-81248926D01*
X138522760Y-81215295D01*
X138491874Y-81193584D01*
X138461759Y-81186090D01*
X138427292Y-81187920D01*
X138372561Y-81201528D01*
X138334886Y-81229772D01*
X138311991Y-81275433D01*
X138301597Y-81341289D01*
X138301595Y-81341331D01*
X138302494Y-81414939D01*
X138316463Y-81468946D01*
X138344328Y-81505716D01*
X138363325Y-81518168D01*
X138413776Y-81533673D01*
X138467663Y-81533683D01*
X138514546Y-81518638D01*
X138525644Y-81511287D01*
X138553476Y-81492511D01*
X138575236Y-81489434D01*
X138598704Y-81503409D01*
X138624649Y-81528510D01*
X138665716Y-81570880D01*
X138620121Y-81608464D01*
X138549674Y-81650882D01*
X138470233Y-81671785D01*
X138387215Y-81670272D01*
X138332694Y-81656411D01*
X138268970Y-81622135D01*
X138218005Y-81568212D01*
X138194851Y-81530149D01*
X138176099Y-81475536D01*
X138166715Y-81406369D01*
X138166643Y-81331407D01*
X138175824Y-81259409D01*
X138194199Y-81199137D01*
X138197093Y-81192958D01*
X138239952Y-81132351D01*
X138297979Y-81088224D01*
X138366591Y-81061493D01*
X138441201Y-81053073D01*
X138517226Y-81063880D01*
G37*
X136910762Y-81066055D02*
X136974363Y-81100692D01*
X137024123Y-81155372D01*
X137047568Y-81199842D01*
X137057634Y-81239121D01*
X137064156Y-81295116D01*
X137066951Y-81359621D01*
X137065836Y-81424429D01*
X137060626Y-81481334D01*
X137054541Y-81511727D01*
X137034014Y-81553306D01*
X136998463Y-81597468D01*
X136955619Y-81636087D01*
X136913211Y-81661034D01*
X136912177Y-81661430D01*
X136859553Y-81672331D01*
X136797188Y-81672601D01*
X136737924Y-81662676D01*
X136715040Y-81654722D01*
X136656102Y-81621300D01*
X136613890Y-81577511D01*
X136586156Y-81519538D01*
X136570651Y-81443565D01*
X136567143Y-81403771D01*
X136567590Y-81353766D01*
X136702376Y-81353766D01*
X136706917Y-81426732D01*
X136719986Y-81482334D01*
X136740756Y-81517861D01*
X136755552Y-81528020D01*
X136793464Y-81535104D01*
X136838527Y-81533007D01*
X136877487Y-81522812D01*
X136887704Y-81517204D01*
X136914659Y-81484538D01*
X136932451Y-81434545D01*
X136940024Y-81373705D01*
X136936325Y-81308497D01*
X136928057Y-81269253D01*
X136904320Y-81223805D01*
X136866849Y-81195396D01*
X136821720Y-81185573D01*
X136775011Y-81195887D01*
X136739132Y-81221112D01*
X136720277Y-81241925D01*
X136709272Y-81262439D01*
X136704026Y-81290203D01*
X136702449Y-81332762D01*
X136702376Y-81353766D01*
X136567590Y-81353766D01*
X136568094Y-81297580D01*
X136585388Y-81210501D01*
X136619029Y-81142530D01*
X136669018Y-81093664D01*
X136735356Y-81063899D01*
X136749601Y-81060448D01*
X136835210Y-81052345D01*
X136910762Y-81066055D01*
G36*
X136910762Y-81066055D02*
G01*
X136974363Y-81100692D01*
X137024123Y-81155372D01*
X137047568Y-81199842D01*
X137057634Y-81239121D01*
X137064156Y-81295116D01*
X137066951Y-81359621D01*
X137065836Y-81424429D01*
X137060626Y-81481334D01*
X137054541Y-81511727D01*
X137034014Y-81553306D01*
X136998463Y-81597468D01*
X136955619Y-81636087D01*
X136913211Y-81661034D01*
X136912177Y-81661430D01*
X136859553Y-81672331D01*
X136797188Y-81672601D01*
X136737924Y-81662676D01*
X136715040Y-81654722D01*
X136656102Y-81621300D01*
X136613890Y-81577511D01*
X136586156Y-81519538D01*
X136570651Y-81443565D01*
X136567143Y-81403771D01*
X136567590Y-81353766D01*
X136702376Y-81353766D01*
X136706917Y-81426732D01*
X136719986Y-81482334D01*
X136740756Y-81517861D01*
X136755552Y-81528020D01*
X136793464Y-81535104D01*
X136838527Y-81533007D01*
X136877487Y-81522812D01*
X136887704Y-81517204D01*
X136914659Y-81484538D01*
X136932451Y-81434545D01*
X136940024Y-81373705D01*
X136936325Y-81308497D01*
X136928057Y-81269253D01*
X136904320Y-81223805D01*
X136866849Y-81195396D01*
X136821720Y-81185573D01*
X136775011Y-81195887D01*
X136739132Y-81221112D01*
X136720277Y-81241925D01*
X136709272Y-81262439D01*
X136704026Y-81290203D01*
X136702449Y-81332762D01*
X136702376Y-81353766D01*
X136567590Y-81353766D01*
X136568094Y-81297580D01*
X136585388Y-81210501D01*
X136619029Y-81142530D01*
X136669018Y-81093664D01*
X136735356Y-81063899D01*
X136749601Y-81060448D01*
X136835210Y-81052345D01*
X136910762Y-81066055D01*
G37*
X136581524Y-82004237D02*
X136631255Y-82007971D01*
X136761291Y-82397773D01*
X136781678Y-82328614D01*
X136793946Y-82285874D01*
X136810085Y-82228115D01*
X136827512Y-82164625D01*
X136836726Y-82130570D01*
X136871388Y-82001683D01*
X137014391Y-82001683D01*
X136971646Y-82136857D01*
X136950596Y-82203342D01*
X136925167Y-82283539D01*
X136898610Y-82367193D01*
X136874902Y-82441782D01*
X136820902Y-82611535D01*
X136762598Y-82615328D01*
X136704295Y-82619122D01*
X136672679Y-82514734D01*
X136653182Y-82449889D01*
X136631904Y-82378400D01*
X136613308Y-82315263D01*
X136612574Y-82312750D01*
X136598684Y-82269969D01*
X136586429Y-82240779D01*
X136577846Y-82229741D01*
X136576082Y-82231018D01*
X136569891Y-82248130D01*
X136558128Y-82284787D01*
X136542225Y-82336378D01*
X136523614Y-82398294D01*
X136513543Y-82432352D01*
X136459007Y-82617822D01*
X136343264Y-82617822D01*
X136250737Y-82325471D01*
X136224744Y-82243462D01*
X136201066Y-82168987D01*
X136180820Y-82105544D01*
X136165126Y-82056632D01*
X136155102Y-82025749D01*
X136152055Y-82016726D01*
X136154467Y-82007487D01*
X136173408Y-82003441D01*
X136212823Y-82003846D01*
X136218993Y-82004152D01*
X136292086Y-82007971D01*
X136339957Y-82184010D01*
X136357553Y-82248211D01*
X136373277Y-82304649D01*
X136385746Y-82348422D01*
X136393574Y-82374630D01*
X136395020Y-82378903D01*
X136401014Y-82373990D01*
X136413101Y-82348532D01*
X136429893Y-82305997D01*
X136450003Y-82249850D01*
X136467003Y-82199130D01*
X136531794Y-82000504D01*
X136581524Y-82004237D01*
G36*
X136581524Y-82004237D02*
G01*
X136631255Y-82007971D01*
X136761291Y-82397773D01*
X136781678Y-82328614D01*
X136793946Y-82285874D01*
X136810085Y-82228115D01*
X136827512Y-82164625D01*
X136836726Y-82130570D01*
X136871388Y-82001683D01*
X137014391Y-82001683D01*
X136971646Y-82136857D01*
X136950596Y-82203342D01*
X136925167Y-82283539D01*
X136898610Y-82367193D01*
X136874902Y-82441782D01*
X136820902Y-82611535D01*
X136762598Y-82615328D01*
X136704295Y-82619122D01*
X136672679Y-82514734D01*
X136653182Y-82449889D01*
X136631904Y-82378400D01*
X136613308Y-82315263D01*
X136612574Y-82312750D01*
X136598684Y-82269969D01*
X136586429Y-82240779D01*
X136577846Y-82229741D01*
X136576082Y-82231018D01*
X136569891Y-82248130D01*
X136558128Y-82284787D01*
X136542225Y-82336378D01*
X136523614Y-82398294D01*
X136513543Y-82432352D01*
X136459007Y-82617822D01*
X136343264Y-82617822D01*
X136250737Y-82325471D01*
X136224744Y-82243462D01*
X136201066Y-82168987D01*
X136180820Y-82105544D01*
X136165126Y-82056632D01*
X136155102Y-82025749D01*
X136152055Y-82016726D01*
X136154467Y-82007487D01*
X136173408Y-82003441D01*
X136212823Y-82003846D01*
X136218993Y-82004152D01*
X136292086Y-82007971D01*
X136339957Y-82184010D01*
X136357553Y-82248211D01*
X136373277Y-82304649D01*
X136385746Y-82348422D01*
X136393574Y-82374630D01*
X136395020Y-82378903D01*
X136401014Y-82373990D01*
X136413101Y-82348532D01*
X136429893Y-82305997D01*
X136450003Y-82249850D01*
X136467003Y-82199130D01*
X136531794Y-82000504D01*
X136581524Y-82004237D01*
G37*
X133761739Y-81065148D02*
X133827521Y-81094231D01*
X133877460Y-81142793D01*
X133911626Y-81210908D01*
X133930093Y-81298651D01*
X133931417Y-81312351D01*
X133932454Y-81408939D01*
X133919007Y-81493602D01*
X133891892Y-81562221D01*
X133877373Y-81584294D01*
X133826799Y-81631011D01*
X133762391Y-81661268D01*
X133690334Y-81673824D01*
X133616815Y-81667439D01*
X133560928Y-81647772D01*
X133512868Y-81614629D01*
X133473588Y-81571175D01*
X133472908Y-81570158D01*
X133456956Y-81543338D01*
X133446590Y-81516368D01*
X133440312Y-81482332D01*
X133436627Y-81434310D01*
X133435003Y-81394931D01*
X133434328Y-81359219D01*
X133560045Y-81359219D01*
X133561274Y-81394770D01*
X133565734Y-81442094D01*
X133573603Y-81472465D01*
X133587793Y-81494072D01*
X133601083Y-81506694D01*
X133648198Y-81533122D01*
X133697495Y-81536653D01*
X133743407Y-81517639D01*
X133766362Y-81496331D01*
X133782904Y-81474859D01*
X133792579Y-81454313D01*
X133796826Y-81427574D01*
X133797080Y-81387523D01*
X133795772Y-81350638D01*
X133792957Y-81297947D01*
X133788495Y-81263772D01*
X133780452Y-81241480D01*
X133766897Y-81224442D01*
X133756155Y-81214703D01*
X133711223Y-81189123D01*
X133662751Y-81187847D01*
X133622106Y-81202999D01*
X133587433Y-81234642D01*
X133566776Y-81286620D01*
X133560045Y-81359219D01*
X133434328Y-81359219D01*
X133433521Y-81316621D01*
X133436052Y-81258056D01*
X133443638Y-81214007D01*
X133457319Y-81179248D01*
X133478135Y-81148551D01*
X133485853Y-81139436D01*
X133534111Y-81094021D01*
X133585872Y-81067493D01*
X133649172Y-81056379D01*
X133680039Y-81055471D01*
X133761739Y-81065148D01*
G36*
X133761739Y-81065148D02*
G01*
X133827521Y-81094231D01*
X133877460Y-81142793D01*
X133911626Y-81210908D01*
X133930093Y-81298651D01*
X133931417Y-81312351D01*
X133932454Y-81408939D01*
X133919007Y-81493602D01*
X133891892Y-81562221D01*
X133877373Y-81584294D01*
X133826799Y-81631011D01*
X133762391Y-81661268D01*
X133690334Y-81673824D01*
X133616815Y-81667439D01*
X133560928Y-81647772D01*
X133512868Y-81614629D01*
X133473588Y-81571175D01*
X133472908Y-81570158D01*
X133456956Y-81543338D01*
X133446590Y-81516368D01*
X133440312Y-81482332D01*
X133436627Y-81434310D01*
X133435003Y-81394931D01*
X133434328Y-81359219D01*
X133560045Y-81359219D01*
X133561274Y-81394770D01*
X133565734Y-81442094D01*
X133573603Y-81472465D01*
X133587793Y-81494072D01*
X133601083Y-81506694D01*
X133648198Y-81533122D01*
X133697495Y-81536653D01*
X133743407Y-81517639D01*
X133766362Y-81496331D01*
X133782904Y-81474859D01*
X133792579Y-81454313D01*
X133796826Y-81427574D01*
X133797080Y-81387523D01*
X133795772Y-81350638D01*
X133792957Y-81297947D01*
X133788495Y-81263772D01*
X133780452Y-81241480D01*
X133766897Y-81224442D01*
X133756155Y-81214703D01*
X133711223Y-81189123D01*
X133662751Y-81187847D01*
X133622106Y-81202999D01*
X133587433Y-81234642D01*
X133566776Y-81286620D01*
X133560045Y-81359219D01*
X133434328Y-81359219D01*
X133433521Y-81316621D01*
X133436052Y-81258056D01*
X133443638Y-81214007D01*
X133457319Y-81179248D01*
X133478135Y-81148551D01*
X133485853Y-81139436D01*
X133534111Y-81094021D01*
X133585872Y-81067493D01*
X133649172Y-81056379D01*
X133680039Y-81055471D01*
X133761739Y-81065148D01*
G37*
X136098812Y-82617822D02*
X136029654Y-82617822D01*
X135989512Y-82616645D01*
X135968606Y-82611772D01*
X135961078Y-82601186D01*
X135960495Y-82594029D01*
X135959226Y-82579676D01*
X135951221Y-82576923D01*
X135930185Y-82585771D01*
X135913827Y-82594029D01*
X135851023Y-82613597D01*
X135782752Y-82614729D01*
X135727248Y-82600135D01*
X135675562Y-82564877D01*
X135636162Y-82512835D01*
X135614587Y-82451450D01*
X135614038Y-82448018D01*
X135610833Y-82410571D01*
X135609239Y-82356813D01*
X135609367Y-82316155D01*
X135746721Y-82316155D01*
X135749903Y-82370194D01*
X135757141Y-82414735D01*
X135766940Y-82439888D01*
X135804011Y-82474260D01*
X135848026Y-82486582D01*
X135893416Y-82476618D01*
X135932203Y-82446895D01*
X135946892Y-82426905D01*
X135955481Y-82403050D01*
X135959504Y-82368230D01*
X135960495Y-82315930D01*
X135958722Y-82264139D01*
X135954037Y-82218634D01*
X135947397Y-82188181D01*
X135946290Y-82185452D01*
X135919509Y-82153000D01*
X135880421Y-82135183D01*
X135836685Y-82132306D01*
X135795962Y-82144674D01*
X135765913Y-82172593D01*
X135762796Y-82178148D01*
X135753039Y-82212022D01*
X135747723Y-82260728D01*
X135746721Y-82316155D01*
X135609367Y-82316155D01*
X135609432Y-82295540D01*
X135610336Y-82262563D01*
X135616486Y-82180981D01*
X135629267Y-82119730D01*
X135650529Y-82074449D01*
X135682122Y-82040779D01*
X135712793Y-82021014D01*
X135755646Y-82007120D01*
X135808944Y-82002354D01*
X135863520Y-82006236D01*
X135910208Y-82018282D01*
X135934876Y-82032693D01*
X135960495Y-82055878D01*
X135960495Y-81762773D01*
X136098812Y-81762773D01*
X136098812Y-82617822D01*
G36*
X136098812Y-82617822D02*
G01*
X136029654Y-82617822D01*
X135989512Y-82616645D01*
X135968606Y-82611772D01*
X135961078Y-82601186D01*
X135960495Y-82594029D01*
X135959226Y-82579676D01*
X135951221Y-82576923D01*
X135930185Y-82585771D01*
X135913827Y-82594029D01*
X135851023Y-82613597D01*
X135782752Y-82614729D01*
X135727248Y-82600135D01*
X135675562Y-82564877D01*
X135636162Y-82512835D01*
X135614587Y-82451450D01*
X135614038Y-82448018D01*
X135610833Y-82410571D01*
X135609239Y-82356813D01*
X135609367Y-82316155D01*
X135746721Y-82316155D01*
X135749903Y-82370194D01*
X135757141Y-82414735D01*
X135766940Y-82439888D01*
X135804011Y-82474260D01*
X135848026Y-82486582D01*
X135893416Y-82476618D01*
X135932203Y-82446895D01*
X135946892Y-82426905D01*
X135955481Y-82403050D01*
X135959504Y-82368230D01*
X135960495Y-82315930D01*
X135958722Y-82264139D01*
X135954037Y-82218634D01*
X135947397Y-82188181D01*
X135946290Y-82185452D01*
X135919509Y-82153000D01*
X135880421Y-82135183D01*
X135836685Y-82132306D01*
X135795962Y-82144674D01*
X135765913Y-82172593D01*
X135762796Y-82178148D01*
X135753039Y-82212022D01*
X135747723Y-82260728D01*
X135746721Y-82316155D01*
X135609367Y-82316155D01*
X135609432Y-82295540D01*
X135610336Y-82262563D01*
X135616486Y-82180981D01*
X135629267Y-82119730D01*
X135650529Y-82074449D01*
X135682122Y-82040779D01*
X135712793Y-82021014D01*
X135755646Y-82007120D01*
X135808944Y-82002354D01*
X135863520Y-82006236D01*
X135910208Y-82018282D01*
X135934876Y-82032693D01*
X135960495Y-82055878D01*
X135960495Y-81762773D01*
X136098812Y-81762773D01*
X136098812Y-82617822D01*
G37*
X138977898Y-81056457D02*
X139010096Y-81064279D01*
X139071825Y-81092921D01*
X139124610Y-81136667D01*
X139161141Y-81189117D01*
X139166160Y-81200893D01*
X139173045Y-81231740D01*
X139177864Y-81277371D01*
X139179505Y-81323492D01*
X139179505Y-81410693D01*
X138997178Y-81410693D01*
X138921979Y-81410978D01*
X138869003Y-81412704D01*
X138835325Y-81417181D01*
X138818020Y-81425720D01*
X138814163Y-81439630D01*
X138820829Y-81460222D01*
X138832770Y-81484315D01*
X138866080Y-81524525D01*
X138912368Y-81544558D01*
X138968944Y-81543905D01*
X139033031Y-81522101D01*
X139088417Y-81495193D01*
X139134375Y-81531532D01*
X139180333Y-81567872D01*
X139137096Y-81607819D01*
X139079374Y-81645563D01*
X139008386Y-81668320D01*
X138932029Y-81674688D01*
X138858199Y-81663268D01*
X138846287Y-81659393D01*
X138781399Y-81625506D01*
X138733130Y-81574986D01*
X138700465Y-81506325D01*
X138682385Y-81418014D01*
X138682175Y-81416121D01*
X138680556Y-81319878D01*
X138687100Y-81285542D01*
X138814852Y-81285542D01*
X138826584Y-81290822D01*
X138858438Y-81294867D01*
X138905397Y-81297176D01*
X138935154Y-81297525D01*
X138990648Y-81297306D01*
X139025346Y-81295916D01*
X139043601Y-81292251D01*
X139049766Y-81285210D01*
X139048195Y-81273690D01*
X139046878Y-81269233D01*
X139024382Y-81227355D01*
X138989003Y-81193604D01*
X138957780Y-81178773D01*
X138916301Y-81179668D01*
X138874269Y-81198164D01*
X138839012Y-81228786D01*
X138817854Y-81266062D01*
X138814852Y-81285542D01*
X138687100Y-81285542D01*
X138696690Y-81235229D01*
X138728698Y-81164191D01*
X138774701Y-81108779D01*
X138832821Y-81071009D01*
X138901180Y-81052896D01*
X138977898Y-81056457D01*
G36*
X138977898Y-81056457D02*
G01*
X139010096Y-81064279D01*
X139071825Y-81092921D01*
X139124610Y-81136667D01*
X139161141Y-81189117D01*
X139166160Y-81200893D01*
X139173045Y-81231740D01*
X139177864Y-81277371D01*
X139179505Y-81323492D01*
X139179505Y-81410693D01*
X138997178Y-81410693D01*
X138921979Y-81410978D01*
X138869003Y-81412704D01*
X138835325Y-81417181D01*
X138818020Y-81425720D01*
X138814163Y-81439630D01*
X138820829Y-81460222D01*
X138832770Y-81484315D01*
X138866080Y-81524525D01*
X138912368Y-81544558D01*
X138968944Y-81543905D01*
X139033031Y-81522101D01*
X139088417Y-81495193D01*
X139134375Y-81531532D01*
X139180333Y-81567872D01*
X139137096Y-81607819D01*
X139079374Y-81645563D01*
X139008386Y-81668320D01*
X138932029Y-81674688D01*
X138858199Y-81663268D01*
X138846287Y-81659393D01*
X138781399Y-81625506D01*
X138733130Y-81574986D01*
X138700465Y-81506325D01*
X138682385Y-81418014D01*
X138682175Y-81416121D01*
X138680556Y-81319878D01*
X138687100Y-81285542D01*
X138814852Y-81285542D01*
X138826584Y-81290822D01*
X138858438Y-81294867D01*
X138905397Y-81297176D01*
X138935154Y-81297525D01*
X138990648Y-81297306D01*
X139025346Y-81295916D01*
X139043601Y-81292251D01*
X139049766Y-81285210D01*
X139048195Y-81273690D01*
X139046878Y-81269233D01*
X139024382Y-81227355D01*
X138989003Y-81193604D01*
X138957780Y-81178773D01*
X138916301Y-81179668D01*
X138874269Y-81198164D01*
X138839012Y-81228786D01*
X138817854Y-81266062D01*
X138814852Y-81285542D01*
X138687100Y-81285542D01*
X138696690Y-81235229D01*
X138728698Y-81164191D01*
X138774701Y-81108779D01*
X138832821Y-81071009D01*
X138901180Y-81052896D01*
X138977898Y-81056457D01*
G37*
X136314017Y-81056452D02*
X136361634Y-81065482D01*
X136411034Y-81084370D01*
X136416312Y-81086777D01*
X136453774Y-81106476D01*
X136479717Y-81124781D01*
X136488103Y-81136508D01*
X136480117Y-81155632D01*
X136460720Y-81183850D01*
X136452110Y-81194384D01*
X136416628Y-81235847D01*
X136370885Y-81208858D01*
X136327350Y-81190878D01*
X136277050Y-81181267D01*
X136228812Y-81180660D01*
X136191467Y-81189691D01*
X136182505Y-81195327D01*
X136165437Y-81221171D01*
X136163363Y-81250941D01*
X136176134Y-81274197D01*
X136183688Y-81278708D01*
X136206325Y-81284309D01*
X136246115Y-81290892D01*
X136295166Y-81297183D01*
X136304215Y-81298170D01*
X136382996Y-81311798D01*
X136440136Y-81334946D01*
X136478030Y-81369752D01*
X136499079Y-81418354D01*
X136505635Y-81477718D01*
X136496577Y-81545198D01*
X136467164Y-81598188D01*
X136417278Y-81636783D01*
X136346800Y-81661081D01*
X136268565Y-81670667D01*
X136204766Y-81670552D01*
X136153016Y-81661845D01*
X136117673Y-81649825D01*
X136073017Y-81628880D01*
X136031747Y-81604574D01*
X136017079Y-81593876D01*
X135979357Y-81563084D01*
X136024852Y-81517049D01*
X136070347Y-81471013D01*
X136122072Y-81505243D01*
X136173952Y-81530952D01*
X136229351Y-81544399D01*
X136282605Y-81545818D01*
X136328049Y-81535443D01*
X136360016Y-81513507D01*
X136370338Y-81494998D01*
X136368789Y-81465314D01*
X136343140Y-81442615D01*
X136293460Y-81426940D01*
X136239031Y-81419695D01*
X136155264Y-81405873D01*
X136093033Y-81379796D01*
X136051507Y-81340699D01*
X136029853Y-81287820D01*
X136026853Y-81225126D01*
X136041671Y-81159642D01*
X136075454Y-81110144D01*
X136128505Y-81076408D01*
X136201126Y-81058207D01*
X136254928Y-81054639D01*
X136314017Y-81056452D01*
G36*
X136314017Y-81056452D02*
G01*
X136361634Y-81065482D01*
X136411034Y-81084370D01*
X136416312Y-81086777D01*
X136453774Y-81106476D01*
X136479717Y-81124781D01*
X136488103Y-81136508D01*
X136480117Y-81155632D01*
X136460720Y-81183850D01*
X136452110Y-81194384D01*
X136416628Y-81235847D01*
X136370885Y-81208858D01*
X136327350Y-81190878D01*
X136277050Y-81181267D01*
X136228812Y-81180660D01*
X136191467Y-81189691D01*
X136182505Y-81195327D01*
X136165437Y-81221171D01*
X136163363Y-81250941D01*
X136176134Y-81274197D01*
X136183688Y-81278708D01*
X136206325Y-81284309D01*
X136246115Y-81290892D01*
X136295166Y-81297183D01*
X136304215Y-81298170D01*
X136382996Y-81311798D01*
X136440136Y-81334946D01*
X136478030Y-81369752D01*
X136499079Y-81418354D01*
X136505635Y-81477718D01*
X136496577Y-81545198D01*
X136467164Y-81598188D01*
X136417278Y-81636783D01*
X136346800Y-81661081D01*
X136268565Y-81670667D01*
X136204766Y-81670552D01*
X136153016Y-81661845D01*
X136117673Y-81649825D01*
X136073017Y-81628880D01*
X136031747Y-81604574D01*
X136017079Y-81593876D01*
X135979357Y-81563084D01*
X136024852Y-81517049D01*
X136070347Y-81471013D01*
X136122072Y-81505243D01*
X136173952Y-81530952D01*
X136229351Y-81544399D01*
X136282605Y-81545818D01*
X136328049Y-81535443D01*
X136360016Y-81513507D01*
X136370338Y-81494998D01*
X136368789Y-81465314D01*
X136343140Y-81442615D01*
X136293460Y-81426940D01*
X136239031Y-81419695D01*
X136155264Y-81405873D01*
X136093033Y-81379796D01*
X136051507Y-81340699D01*
X136029853Y-81287820D01*
X136026853Y-81225126D01*
X136041671Y-81159642D01*
X136075454Y-81110144D01*
X136128505Y-81076408D01*
X136201126Y-81058207D01*
X136254928Y-81054639D01*
X136314017Y-81056452D01*
G37*
X138332581Y-82004970D02*
X138392685Y-82020597D01*
X138443021Y-82052848D01*
X138467393Y-82076940D01*
X138507345Y-82133895D01*
X138530242Y-82199965D01*
X138538108Y-82281182D01*
X138538148Y-82287748D01*
X138538218Y-82353763D01*
X138158264Y-82353763D01*
X138166363Y-82388342D01*
X138180987Y-82419659D01*
X138206581Y-82452291D01*
X138211935Y-82457500D01*
X138257943Y-82485694D01*
X138310410Y-82490475D01*
X138370803Y-82471926D01*
X138381040Y-82466931D01*
X138412439Y-82451745D01*
X138433470Y-82443094D01*
X138437139Y-82442293D01*
X138449948Y-82450063D01*
X138474378Y-82469072D01*
X138486779Y-82479460D01*
X138512476Y-82503321D01*
X138520915Y-82519077D01*
X138515058Y-82533571D01*
X138511928Y-82537534D01*
X138490725Y-82554879D01*
X138455738Y-82575959D01*
X138431337Y-82588265D01*
X138362072Y-82609946D01*
X138285388Y-82616971D01*
X138212765Y-82608647D01*
X138192426Y-82602686D01*
X138129476Y-82568952D01*
X138082815Y-82517045D01*
X138052173Y-82446459D01*
X138037282Y-82356692D01*
X138035647Y-82309753D01*
X138040421Y-82241413D01*
X138160990Y-82241413D01*
X138172652Y-82246465D01*
X138203998Y-82250429D01*
X138249571Y-82252768D01*
X138280446Y-82253169D01*
X138335981Y-82252783D01*
X138371033Y-82250975D01*
X138390262Y-82246773D01*
X138398330Y-82239203D01*
X138399901Y-82228218D01*
X138389121Y-82194381D01*
X138361980Y-82160940D01*
X138326277Y-82135272D01*
X138290560Y-82124772D01*
X138242048Y-82134086D01*
X138200053Y-82161013D01*
X138170936Y-82199827D01*
X138160990Y-82241413D01*
X138040421Y-82241413D01*
X138042599Y-82210236D01*
X138064055Y-82130949D01*
X138100470Y-82071263D01*
X138152297Y-82030549D01*
X138219990Y-82008179D01*
X138256662Y-82003871D01*
X138332581Y-82004970D01*
G36*
X138332581Y-82004970D02*
G01*
X138392685Y-82020597D01*
X138443021Y-82052848D01*
X138467393Y-82076940D01*
X138507345Y-82133895D01*
X138530242Y-82199965D01*
X138538108Y-82281182D01*
X138538148Y-82287748D01*
X138538218Y-82353763D01*
X138158264Y-82353763D01*
X138166363Y-82388342D01*
X138180987Y-82419659D01*
X138206581Y-82452291D01*
X138211935Y-82457500D01*
X138257943Y-82485694D01*
X138310410Y-82490475D01*
X138370803Y-82471926D01*
X138381040Y-82466931D01*
X138412439Y-82451745D01*
X138433470Y-82443094D01*
X138437139Y-82442293D01*
X138449948Y-82450063D01*
X138474378Y-82469072D01*
X138486779Y-82479460D01*
X138512476Y-82503321D01*
X138520915Y-82519077D01*
X138515058Y-82533571D01*
X138511928Y-82537534D01*
X138490725Y-82554879D01*
X138455738Y-82575959D01*
X138431337Y-82588265D01*
X138362072Y-82609946D01*
X138285388Y-82616971D01*
X138212765Y-82608647D01*
X138192426Y-82602686D01*
X138129476Y-82568952D01*
X138082815Y-82517045D01*
X138052173Y-82446459D01*
X138037282Y-82356692D01*
X138035647Y-82309753D01*
X138040421Y-82241413D01*
X138160990Y-82241413D01*
X138172652Y-82246465D01*
X138203998Y-82250429D01*
X138249571Y-82252768D01*
X138280446Y-82253169D01*
X138335981Y-82252783D01*
X138371033Y-82250975D01*
X138390262Y-82246773D01*
X138398330Y-82239203D01*
X138399901Y-82228218D01*
X138389121Y-82194381D01*
X138361980Y-82160940D01*
X138326277Y-82135272D01*
X138290560Y-82124772D01*
X138242048Y-82134086D01*
X138200053Y-82161013D01*
X138170936Y-82199827D01*
X138160990Y-82241413D01*
X138040421Y-82241413D01*
X138042599Y-82210236D01*
X138064055Y-82130949D01*
X138100470Y-82071263D01*
X138152297Y-82030549D01*
X138219990Y-82008179D01*
X138256662Y-82003871D01*
X138332581Y-82004970D01*
G37*
X134943301Y-81072614D02*
X134955832Y-81078514D01*
X134999201Y-81110283D01*
X135040210Y-81156646D01*
X135070832Y-81207696D01*
X135079541Y-81231166D01*
X135087488Y-81273091D01*
X135092226Y-81323757D01*
X135092801Y-81344679D01*
X135092871Y-81410693D01*
X134712917Y-81410693D01*
X134721017Y-81445273D01*
X134740896Y-81486170D01*
X134775653Y-81521514D01*
X134817002Y-81544282D01*
X134843351Y-81549010D01*
X134879084Y-81543273D01*
X134921718Y-81528882D01*
X134936201Y-81522262D01*
X134989760Y-81495513D01*
X135035467Y-81530376D01*
X135061842Y-81553955D01*
X135075876Y-81573417D01*
X135076586Y-81579129D01*
X135064049Y-81592973D01*
X135036572Y-81614012D01*
X135011634Y-81630425D01*
X134944336Y-81659930D01*
X134868890Y-81673284D01*
X134794112Y-81669812D01*
X134734505Y-81651663D01*
X134673059Y-81612784D01*
X134629392Y-81561595D01*
X134602074Y-81495367D01*
X134589678Y-81411371D01*
X134588579Y-81372936D01*
X134592978Y-81284861D01*
X134593518Y-81282299D01*
X134719418Y-81282299D01*
X134722885Y-81290558D01*
X134737137Y-81295113D01*
X134766530Y-81297065D01*
X134815425Y-81297517D01*
X134834252Y-81297525D01*
X134891533Y-81296843D01*
X134927859Y-81294364D01*
X134947396Y-81289443D01*
X134954310Y-81281434D01*
X134954555Y-81278862D01*
X134946664Y-81258423D01*
X134926915Y-81229789D01*
X134918425Y-81219763D01*
X134886906Y-81191408D01*
X134854051Y-81180259D01*
X134836349Y-81179327D01*
X134788461Y-81190981D01*
X134748301Y-81222285D01*
X134722827Y-81267752D01*
X134722375Y-81269233D01*
X134719418Y-81282299D01*
X134593518Y-81282299D01*
X134607608Y-81215510D01*
X134633962Y-81160025D01*
X134666193Y-81120639D01*
X134725783Y-81077931D01*
X134795832Y-81055109D01*
X134870339Y-81053046D01*
X134943301Y-81072614D01*
G36*
X134943301Y-81072614D02*
G01*
X134955832Y-81078514D01*
X134999201Y-81110283D01*
X135040210Y-81156646D01*
X135070832Y-81207696D01*
X135079541Y-81231166D01*
X135087488Y-81273091D01*
X135092226Y-81323757D01*
X135092801Y-81344679D01*
X135092871Y-81410693D01*
X134712917Y-81410693D01*
X134721017Y-81445273D01*
X134740896Y-81486170D01*
X134775653Y-81521514D01*
X134817002Y-81544282D01*
X134843351Y-81549010D01*
X134879084Y-81543273D01*
X134921718Y-81528882D01*
X134936201Y-81522262D01*
X134989760Y-81495513D01*
X135035467Y-81530376D01*
X135061842Y-81553955D01*
X135075876Y-81573417D01*
X135076586Y-81579129D01*
X135064049Y-81592973D01*
X135036572Y-81614012D01*
X135011634Y-81630425D01*
X134944336Y-81659930D01*
X134868890Y-81673284D01*
X134794112Y-81669812D01*
X134734505Y-81651663D01*
X134673059Y-81612784D01*
X134629392Y-81561595D01*
X134602074Y-81495367D01*
X134589678Y-81411371D01*
X134588579Y-81372936D01*
X134592978Y-81284861D01*
X134593518Y-81282299D01*
X134719418Y-81282299D01*
X134722885Y-81290558D01*
X134737137Y-81295113D01*
X134766530Y-81297065D01*
X134815425Y-81297517D01*
X134834252Y-81297525D01*
X134891533Y-81296843D01*
X134927859Y-81294364D01*
X134947396Y-81289443D01*
X134954310Y-81281434D01*
X134954555Y-81278862D01*
X134946664Y-81258423D01*
X134926915Y-81229789D01*
X134918425Y-81219763D01*
X134886906Y-81191408D01*
X134854051Y-81180259D01*
X134836349Y-81179327D01*
X134788461Y-81190981D01*
X134748301Y-81222285D01*
X134722827Y-81267752D01*
X134722375Y-81269233D01*
X134719418Y-81282299D01*
X134593518Y-81282299D01*
X134607608Y-81215510D01*
X134633962Y-81160025D01*
X134666193Y-81120639D01*
X134725783Y-81077931D01*
X134795832Y-81055109D01*
X134870339Y-81053046D01*
X134943301Y-81072614D01*
G37*
X137338411Y-82005417D02*
X137391411Y-82018290D01*
X137406731Y-82025110D01*
X137436428Y-82042974D01*
X137459220Y-82063093D01*
X137476083Y-82088962D01*
X137487998Y-82124073D01*
X137495942Y-82171920D01*
X137500894Y-82235996D01*
X137503831Y-82319794D01*
X137504947Y-82375768D01*
X137509052Y-82617822D01*
X137438932Y-82617822D01*
X137396393Y-82616038D01*
X137374476Y-82609942D01*
X137368812Y-82599706D01*
X137365821Y-82588637D01*
X137352451Y-82590754D01*
X137334233Y-82599629D01*
X137288624Y-82613233D01*
X137230007Y-82616899D01*
X137168354Y-82610903D01*
X137113638Y-82595521D01*
X137108730Y-82593386D01*
X137058723Y-82558255D01*
X137025756Y-82509419D01*
X137010587Y-82452333D01*
X137011746Y-82431824D01*
X137135508Y-82431824D01*
X137146413Y-82459425D01*
X137178745Y-82479204D01*
X137230910Y-82489819D01*
X137258787Y-82491228D01*
X137305247Y-82487620D01*
X137336129Y-82473597D01*
X137343664Y-82466931D01*
X137364076Y-82430666D01*
X137368812Y-82397773D01*
X137368812Y-82353763D01*
X137307513Y-82353763D01*
X137236256Y-82357395D01*
X137186276Y-82368818D01*
X137154696Y-82388824D01*
X137147626Y-82397743D01*
X137135508Y-82431824D01*
X137011746Y-82431824D01*
X137013971Y-82392456D01*
X137036663Y-82335244D01*
X137067624Y-82296580D01*
X137086376Y-82279864D01*
X137104733Y-82268878D01*
X137128619Y-82262180D01*
X137163957Y-82258326D01*
X137216669Y-82255873D01*
X137237577Y-82255168D01*
X137368812Y-82250879D01*
X137368620Y-82211158D01*
X137363537Y-82169405D01*
X137345162Y-82144158D01*
X137308039Y-82128030D01*
X137307043Y-82127742D01*
X137254410Y-82121400D01*
X137202906Y-82129684D01*
X137164630Y-82149827D01*
X137149272Y-82159773D01*
X137132730Y-82158397D01*
X137107275Y-82143987D01*
X137092328Y-82133817D01*
X137063091Y-82112088D01*
X137044980Y-82095800D01*
X137042074Y-82091137D01*
X137054040Y-82067005D01*
X137089396Y-82038185D01*
X137104753Y-82028461D01*
X137148901Y-82011714D01*
X137208398Y-82002227D01*
X137274487Y-82000095D01*
X137338411Y-82005417D01*
G36*
X137338411Y-82005417D02*
G01*
X137391411Y-82018290D01*
X137406731Y-82025110D01*
X137436428Y-82042974D01*
X137459220Y-82063093D01*
X137476083Y-82088962D01*
X137487998Y-82124073D01*
X137495942Y-82171920D01*
X137500894Y-82235996D01*
X137503831Y-82319794D01*
X137504947Y-82375768D01*
X137509052Y-82617822D01*
X137438932Y-82617822D01*
X137396393Y-82616038D01*
X137374476Y-82609942D01*
X137368812Y-82599706D01*
X137365821Y-82588637D01*
X137352451Y-82590754D01*
X137334233Y-82599629D01*
X137288624Y-82613233D01*
X137230007Y-82616899D01*
X137168354Y-82610903D01*
X137113638Y-82595521D01*
X137108730Y-82593386D01*
X137058723Y-82558255D01*
X137025756Y-82509419D01*
X137010587Y-82452333D01*
X137011746Y-82431824D01*
X137135508Y-82431824D01*
X137146413Y-82459425D01*
X137178745Y-82479204D01*
X137230910Y-82489819D01*
X137258787Y-82491228D01*
X137305247Y-82487620D01*
X137336129Y-82473597D01*
X137343664Y-82466931D01*
X137364076Y-82430666D01*
X137368812Y-82397773D01*
X137368812Y-82353763D01*
X137307513Y-82353763D01*
X137236256Y-82357395D01*
X137186276Y-82368818D01*
X137154696Y-82388824D01*
X137147626Y-82397743D01*
X137135508Y-82431824D01*
X137011746Y-82431824D01*
X137013971Y-82392456D01*
X137036663Y-82335244D01*
X137067624Y-82296580D01*
X137086376Y-82279864D01*
X137104733Y-82268878D01*
X137128619Y-82262180D01*
X137163957Y-82258326D01*
X137216669Y-82255873D01*
X137237577Y-82255168D01*
X137368812Y-82250879D01*
X137368620Y-82211158D01*
X137363537Y-82169405D01*
X137345162Y-82144158D01*
X137308039Y-82128030D01*
X137307043Y-82127742D01*
X137254410Y-82121400D01*
X137202906Y-82129684D01*
X137164630Y-82149827D01*
X137149272Y-82159773D01*
X137132730Y-82158397D01*
X137107275Y-82143987D01*
X137092328Y-82133817D01*
X137063091Y-82112088D01*
X137044980Y-82095800D01*
X137042074Y-82091137D01*
X137054040Y-82067005D01*
X137089396Y-82038185D01*
X137104753Y-82028461D01*
X137148901Y-82011714D01*
X137208398Y-82002227D01*
X137274487Y-82000095D01*
X137338411Y-82005417D01*
G37*
X134915790Y-82006555D02*
X134974945Y-82022339D01*
X135019977Y-82050948D01*
X135051754Y-82088419D01*
X135061634Y-82104411D01*
X135068927Y-82121163D01*
X135074026Y-82142592D01*
X135077321Y-82172616D01*
X135079203Y-82215154D01*
X135080063Y-82274122D01*
X135080293Y-82353440D01*
X135080297Y-82374484D01*
X135080297Y-82617822D01*
X135019941Y-82617822D01*
X134981443Y-82615126D01*
X134952977Y-82608295D01*
X134945845Y-82604083D01*
X134926348Y-82596813D01*
X134906434Y-82604083D01*
X134873647Y-82613160D01*
X134826022Y-82616813D01*
X134773236Y-82615228D01*
X134724964Y-82608589D01*
X134696782Y-82600072D01*
X134642247Y-82565063D01*
X134608165Y-82516479D01*
X134592843Y-82451882D01*
X134592701Y-82450223D01*
X134594045Y-82421566D01*
X134715644Y-82421566D01*
X134726274Y-82454161D01*
X134743590Y-82472505D01*
X134778348Y-82486379D01*
X134824227Y-82491917D01*
X134871012Y-82489191D01*
X134908486Y-82478274D01*
X134918985Y-82471269D01*
X134937332Y-82438904D01*
X134941980Y-82402111D01*
X134941980Y-82353763D01*
X134872418Y-82353763D01*
X134806333Y-82358850D01*
X134756236Y-82373263D01*
X134725071Y-82395729D01*
X134715644Y-82421566D01*
X134594045Y-82421566D01*
X134596013Y-82379647D01*
X134619290Y-82323845D01*
X134663052Y-82281647D01*
X134669101Y-82277808D01*
X134695093Y-82265309D01*
X134727265Y-82257740D01*
X134772240Y-82254061D01*
X134825669Y-82253216D01*
X134941980Y-82253169D01*
X134941980Y-82204411D01*
X134937047Y-82166581D01*
X134924457Y-82141236D01*
X134922983Y-82139887D01*
X134894966Y-82128800D01*
X134852674Y-82124503D01*
X134805936Y-82126615D01*
X134764582Y-82134756D01*
X134740043Y-82146965D01*
X134726747Y-82156746D01*
X134712706Y-82158613D01*
X134693329Y-82150600D01*
X134664024Y-82130739D01*
X134620197Y-82097063D01*
X134616175Y-82093909D01*
X134618236Y-82082236D01*
X134635432Y-82062822D01*
X134661567Y-82041248D01*
X134690448Y-82023096D01*
X134699522Y-82018809D01*
X134732620Y-82010256D01*
X134781120Y-82004155D01*
X134835305Y-82001708D01*
X134837839Y-82001703D01*
X134915790Y-82006555D01*
G36*
X134915790Y-82006555D02*
G01*
X134974945Y-82022339D01*
X135019977Y-82050948D01*
X135051754Y-82088419D01*
X135061634Y-82104411D01*
X135068927Y-82121163D01*
X135074026Y-82142592D01*
X135077321Y-82172616D01*
X135079203Y-82215154D01*
X135080063Y-82274122D01*
X135080293Y-82353440D01*
X135080297Y-82374484D01*
X135080297Y-82617822D01*
X135019941Y-82617822D01*
X134981443Y-82615126D01*
X134952977Y-82608295D01*
X134945845Y-82604083D01*
X134926348Y-82596813D01*
X134906434Y-82604083D01*
X134873647Y-82613160D01*
X134826022Y-82616813D01*
X134773236Y-82615228D01*
X134724964Y-82608589D01*
X134696782Y-82600072D01*
X134642247Y-82565063D01*
X134608165Y-82516479D01*
X134592843Y-82451882D01*
X134592701Y-82450223D01*
X134594045Y-82421566D01*
X134715644Y-82421566D01*
X134726274Y-82454161D01*
X134743590Y-82472505D01*
X134778348Y-82486379D01*
X134824227Y-82491917D01*
X134871012Y-82489191D01*
X134908486Y-82478274D01*
X134918985Y-82471269D01*
X134937332Y-82438904D01*
X134941980Y-82402111D01*
X134941980Y-82353763D01*
X134872418Y-82353763D01*
X134806333Y-82358850D01*
X134756236Y-82373263D01*
X134725071Y-82395729D01*
X134715644Y-82421566D01*
X134594045Y-82421566D01*
X134596013Y-82379647D01*
X134619290Y-82323845D01*
X134663052Y-82281647D01*
X134669101Y-82277808D01*
X134695093Y-82265309D01*
X134727265Y-82257740D01*
X134772240Y-82254061D01*
X134825669Y-82253216D01*
X134941980Y-82253169D01*
X134941980Y-82204411D01*
X134937047Y-82166581D01*
X134924457Y-82141236D01*
X134922983Y-82139887D01*
X134894966Y-82128800D01*
X134852674Y-82124503D01*
X134805936Y-82126615D01*
X134764582Y-82134756D01*
X134740043Y-82146965D01*
X134726747Y-82156746D01*
X134712706Y-82158613D01*
X134693329Y-82150600D01*
X134664024Y-82130739D01*
X134620197Y-82097063D01*
X134616175Y-82093909D01*
X134618236Y-82082236D01*
X134635432Y-82062822D01*
X134661567Y-82041248D01*
X134690448Y-82023096D01*
X134699522Y-82018809D01*
X134732620Y-82010256D01*
X134781120Y-82004155D01*
X134835305Y-82001708D01*
X134837839Y-82001703D01*
X134915790Y-82006555D01*
G37*
X134391241Y-81069184D02*
X134417753Y-81082282D01*
X134450447Y-81105106D01*
X134474275Y-81129996D01*
X134490594Y-81161249D01*
X134500760Y-81203166D01*
X134506128Y-81260044D01*
X134508056Y-81336184D01*
X134508169Y-81368917D01*
X134507839Y-81440656D01*
X134506473Y-81491927D01*
X134503500Y-81527404D01*
X134498351Y-81551763D01*
X134490457Y-81569680D01*
X134482243Y-81581902D01*
X134429813Y-81633905D01*
X134368070Y-81665184D01*
X134301464Y-81674592D01*
X134234442Y-81660980D01*
X134213208Y-81651354D01*
X134162376Y-81624859D01*
X134162376Y-82040052D01*
X134199475Y-82020868D01*
X134248357Y-82006025D01*
X134308439Y-82002222D01*
X134368436Y-82009243D01*
X134413744Y-82025013D01*
X134451325Y-82055047D01*
X134483436Y-82098024D01*
X134485850Y-82102436D01*
X134496033Y-82123221D01*
X134503470Y-82144170D01*
X134508589Y-82169548D01*
X134511819Y-82203618D01*
X134513587Y-82250641D01*
X134514323Y-82314882D01*
X134514456Y-82387176D01*
X134514456Y-82617822D01*
X134376139Y-82617822D01*
X134376139Y-82192533D01*
X134337451Y-82159979D01*
X134297262Y-82133940D01*
X134259203Y-82129205D01*
X134220934Y-82141389D01*
X134200538Y-82153320D01*
X134185358Y-82170313D01*
X134174562Y-82195995D01*
X134167317Y-82233991D01*
X134162792Y-82287926D01*
X134160156Y-82361425D01*
X134159228Y-82410347D01*
X134156089Y-82611535D01*
X134090074Y-82615336D01*
X134024060Y-82619136D01*
X134024060Y-81370650D01*
X134162376Y-81370650D01*
X134165903Y-81440254D01*
X134177785Y-81488569D01*
X134199980Y-81518631D01*
X134234441Y-81533471D01*
X134269258Y-81536436D01*
X134308671Y-81533028D01*
X134334829Y-81519617D01*
X134351186Y-81501896D01*
X134364063Y-81482835D01*
X134371728Y-81461601D01*
X134375139Y-81431849D01*
X134375251Y-81387236D01*
X134374103Y-81349880D01*
X134371468Y-81293604D01*
X134367544Y-81256658D01*
X134360937Y-81233223D01*
X134350251Y-81217480D01*
X134340167Y-81208380D01*
X134298030Y-81188537D01*
X134248160Y-81185332D01*
X134219524Y-81192168D01*
X134191172Y-81216464D01*
X134172391Y-81263728D01*
X134163288Y-81333624D01*
X134162376Y-81370650D01*
X134024060Y-81370650D01*
X134024060Y-81058614D01*
X134093218Y-81058614D01*
X134134740Y-81060256D01*
X134156162Y-81066087D01*
X134162374Y-81077461D01*
X134162376Y-81077798D01*
X134165258Y-81088938D01*
X134177970Y-81087673D01*
X134203243Y-81075433D01*
X134262131Y-81056707D01*
X134328385Y-81054739D01*
X134391241Y-81069184D01*
G36*
X134391241Y-81069184D02*
G01*
X134417753Y-81082282D01*
X134450447Y-81105106D01*
X134474275Y-81129996D01*
X134490594Y-81161249D01*
X134500760Y-81203166D01*
X134506128Y-81260044D01*
X134508056Y-81336184D01*
X134508169Y-81368917D01*
X134507839Y-81440656D01*
X134506473Y-81491927D01*
X134503500Y-81527404D01*
X134498351Y-81551763D01*
X134490457Y-81569680D01*
X134482243Y-81581902D01*
X134429813Y-81633905D01*
X134368070Y-81665184D01*
X134301464Y-81674592D01*
X134234442Y-81660980D01*
X134213208Y-81651354D01*
X134162376Y-81624859D01*
X134162376Y-82040052D01*
X134199475Y-82020868D01*
X134248357Y-82006025D01*
X134308439Y-82002222D01*
X134368436Y-82009243D01*
X134413744Y-82025013D01*
X134451325Y-82055047D01*
X134483436Y-82098024D01*
X134485850Y-82102436D01*
X134496033Y-82123221D01*
X134503470Y-82144170D01*
X134508589Y-82169548D01*
X134511819Y-82203618D01*
X134513587Y-82250641D01*
X134514323Y-82314882D01*
X134514456Y-82387176D01*
X134514456Y-82617822D01*
X134376139Y-82617822D01*
X134376139Y-82192533D01*
X134337451Y-82159979D01*
X134297262Y-82133940D01*
X134259203Y-82129205D01*
X134220934Y-82141389D01*
X134200538Y-82153320D01*
X134185358Y-82170313D01*
X134174562Y-82195995D01*
X134167317Y-82233991D01*
X134162792Y-82287926D01*
X134160156Y-82361425D01*
X134159228Y-82410347D01*
X134156089Y-82611535D01*
X134090074Y-82615336D01*
X134024060Y-82619136D01*
X134024060Y-81370650D01*
X134162376Y-81370650D01*
X134165903Y-81440254D01*
X134177785Y-81488569D01*
X134199980Y-81518631D01*
X134234441Y-81533471D01*
X134269258Y-81536436D01*
X134308671Y-81533028D01*
X134334829Y-81519617D01*
X134351186Y-81501896D01*
X134364063Y-81482835D01*
X134371728Y-81461601D01*
X134375139Y-81431849D01*
X134375251Y-81387236D01*
X134374103Y-81349880D01*
X134371468Y-81293604D01*
X134367544Y-81256658D01*
X134360937Y-81233223D01*
X134350251Y-81217480D01*
X134340167Y-81208380D01*
X134298030Y-81188537D01*
X134248160Y-81185332D01*
X134219524Y-81192168D01*
X134191172Y-81216464D01*
X134172391Y-81263728D01*
X134163288Y-81333624D01*
X134162376Y-81370650D01*
X134024060Y-81370650D01*
X134024060Y-81058614D01*
X134093218Y-81058614D01*
X134134740Y-81060256D01*
X134156162Y-81066087D01*
X134162374Y-81077461D01*
X134162376Y-81077798D01*
X134165258Y-81088938D01*
X134177970Y-81087673D01*
X134203243Y-81075433D01*
X134262131Y-81056707D01*
X134328385Y-81054739D01*
X134391241Y-81069184D01*
G37*
X136676964Y-76890018D02*
X136733812Y-77191570D01*
X137153338Y-77364512D01*
X137404984Y-77193395D01*
X137475458Y-77145750D01*
X137539163Y-77103210D01*
X137593126Y-77067715D01*
X137634373Y-77041210D01*
X137659934Y-77025636D01*
X137666895Y-77022278D01*
X137679435Y-77030914D01*
X137706231Y-77054792D01*
X137744280Y-77090859D01*
X137790579Y-77136067D01*
X137842123Y-77187364D01*
X137895909Y-77241701D01*
X137948935Y-77296028D01*
X137998195Y-77347295D01*
X138040687Y-77392451D01*
X138073407Y-77428446D01*
X138093351Y-77452230D01*
X138098119Y-77460190D01*
X138091257Y-77474865D01*
X138072020Y-77507014D01*
X138042430Y-77553492D01*
X138004510Y-77611156D01*
X137960282Y-77676860D01*
X137934654Y-77714336D01*
X137887941Y-77782768D01*
X137846432Y-77844520D01*
X137812140Y-77896519D01*
X137787080Y-77935692D01*
X137773264Y-77958965D01*
X137771188Y-77963855D01*
X137775895Y-77977755D01*
X137788723Y-78010150D01*
X137807738Y-78056485D01*
X137831003Y-78112206D01*
X137856584Y-78172758D01*
X137882545Y-78233586D01*
X137906950Y-78290136D01*
X137927863Y-78337852D01*
X137943349Y-78372181D01*
X137951472Y-78388568D01*
X137951952Y-78389212D01*
X137964707Y-78392341D01*
X137998677Y-78399321D01*
X138050340Y-78409467D01*
X138116176Y-78422092D01*
X138192664Y-78436509D01*
X138237290Y-78444823D01*
X138319021Y-78460384D01*
X138392843Y-78475192D01*
X138455021Y-78488436D01*
X138501822Y-78499305D01*
X138529509Y-78506989D01*
X138535074Y-78509427D01*
X138540526Y-78525930D01*
X138544924Y-78563200D01*
X138548272Y-78616880D01*
X138550574Y-78682612D01*
X138551832Y-78756037D01*
X138552048Y-78832796D01*
X138551227Y-78908532D01*
X138549371Y-78978886D01*
X138546482Y-79039500D01*
X138542565Y-79086016D01*
X138537622Y-79114075D01*
X138534657Y-79119916D01*
X138516934Y-79126917D01*
X138479381Y-79136927D01*
X138426964Y-79148769D01*
X138364652Y-79161267D01*
X138342900Y-79165310D01*
X138238024Y-79184520D01*
X138155180Y-79199991D01*
X138091630Y-79212337D01*
X138044637Y-79222173D01*
X138011463Y-79230114D01*
X137989371Y-79236776D01*
X137975624Y-79242773D01*
X137967484Y-79248719D01*
X137966345Y-79249894D01*
X137954977Y-79268826D01*
X137937635Y-79305669D01*
X137916050Y-79355913D01*
X137891954Y-79415046D01*
X137867079Y-79478556D01*
X137843157Y-79541932D01*
X137821919Y-79600662D01*
X137805097Y-79650235D01*
X137794422Y-79686139D01*
X137791627Y-79703862D01*
X137791860Y-79704483D01*
X137801331Y-79718970D01*
X137822818Y-79750844D01*
X137854063Y-79796789D01*
X137892807Y-79853485D01*
X137936793Y-79917617D01*
X137949319Y-79935842D01*
X137993984Y-80001914D01*
X138033288Y-80062200D01*
X138065088Y-80113235D01*
X138087245Y-80151560D01*
X138097617Y-80173711D01*
X138098119Y-80176432D01*
X138089405Y-80190736D01*
X138065325Y-80219072D01*
X138028976Y-80258396D01*
X137983453Y-80305661D01*
X137931852Y-80357823D01*
X137877267Y-80411835D01*
X137822794Y-80464653D01*
X137771529Y-80513231D01*
X137726567Y-80554523D01*
X137691004Y-80585485D01*
X137667935Y-80603070D01*
X137661554Y-80605941D01*
X137646699Y-80599178D01*
X137616286Y-80580939D01*
X137575268Y-80554297D01*
X137543709Y-80532852D01*
X137486525Y-80493503D01*
X137418806Y-80447171D01*
X137350880Y-80400913D01*
X137314361Y-80376155D01*
X137190752Y-80292547D01*
X137086991Y-80348650D01*
X137039720Y-80373228D01*
X136999523Y-80392331D01*
X136972326Y-80403227D01*
X136965402Y-80404743D01*
X136957077Y-80393549D01*
X136940654Y-80361917D01*
X136917357Y-80312765D01*
X136888414Y-80249010D01*
X136855050Y-80173571D01*
X136818491Y-80089364D01*
X136779964Y-79999308D01*
X136740694Y-79906321D01*
X136701908Y-79813320D01*
X136664830Y-79723223D01*
X136630689Y-79638948D01*
X136600708Y-79563413D01*
X136576116Y-79499534D01*
X136558136Y-79450231D01*
X136547997Y-79418421D01*
X136546366Y-79407496D01*
X136559291Y-79393561D01*
X136587589Y-79370940D01*
X136625346Y-79344333D01*
X136628515Y-79342228D01*
X136726100Y-79264114D01*
X136804786Y-79172982D01*
X136863891Y-79071745D01*
X136902732Y-78963318D01*
X136920628Y-78850614D01*
X136916897Y-78736548D01*
X136890857Y-78624034D01*
X136841825Y-78515985D01*
X136827400Y-78492345D01*
X136752369Y-78396887D01*
X136663730Y-78320232D01*
X136564549Y-78262780D01*
X136457895Y-78224929D01*
X136346836Y-78207078D01*
X136234439Y-78209625D01*
X136123773Y-78232970D01*
X136017906Y-78277510D01*
X135919905Y-78343645D01*
X135889590Y-78370487D01*
X135812438Y-78454512D01*
X135756218Y-78542966D01*
X135717653Y-78642115D01*
X135696174Y-78740303D01*
X135690872Y-78850697D01*
X135708552Y-78961640D01*
X135747419Y-79069381D01*
X135805677Y-79170169D01*
X135881531Y-79260256D01*
X135973183Y-79335892D01*
X135985228Y-79343864D01*
X136023389Y-79369974D01*
X136052399Y-79392595D01*
X136066268Y-79407039D01*
X136066469Y-79407496D01*
X136063492Y-79423121D01*
X136051689Y-79458582D01*
X136032286Y-79510962D01*
X136006512Y-79577345D01*
X135975591Y-79654814D01*
X135940751Y-79740450D01*
X135903217Y-79831337D01*
X135864217Y-79924559D01*
X135824977Y-80017197D01*
X135786724Y-80106335D01*
X135750683Y-80189055D01*
X135718083Y-80262441D01*
X135690148Y-80323575D01*
X135668105Y-80369541D01*
X135653182Y-80397421D01*
X135647172Y-80404743D01*
X135628809Y-80399041D01*
X135594448Y-80383749D01*
X135550016Y-80361599D01*
X135525583Y-80348650D01*
X135421822Y-80292547D01*
X135298213Y-80376155D01*
X135235114Y-80418987D01*
X135166030Y-80466122D01*
X135101293Y-80510503D01*
X135068866Y-80532852D01*
X135023259Y-80563477D01*
X134984640Y-80587747D01*
X134958048Y-80602587D01*
X134949410Y-80605724D01*
X134936839Y-80597261D01*
X134909016Y-80573636D01*
X134868639Y-80537302D01*
X134818405Y-80490711D01*
X134761012Y-80436317D01*
X134724714Y-80401392D01*
X134661210Y-80338996D01*
X134606327Y-80283188D01*
X134562286Y-80236354D01*
X134531305Y-80200882D01*
X134515602Y-80179161D01*
X134514095Y-80174752D01*
X134521086Y-80157985D01*
X134540406Y-80124082D01*
X134569909Y-80076476D01*
X134607455Y-80018599D01*
X134650900Y-79953884D01*
X134663255Y-79935842D01*
X134708273Y-79870267D01*
X134748660Y-79811228D01*
X134782160Y-79762042D01*
X134806514Y-79726028D01*
X134819464Y-79706502D01*
X134820715Y-79704483D01*
X134818844Y-79688922D01*
X134808913Y-79654709D01*
X134792653Y-79606355D01*
X134771795Y-79548371D01*
X134748073Y-79485270D01*
X134723216Y-79421563D01*
X134698958Y-79361761D01*
X134677029Y-79310376D01*
X134659162Y-79271919D01*
X134647087Y-79250902D01*
X134646229Y-79249894D01*
X134638846Y-79243888D01*
X134626375Y-79237948D01*
X134606080Y-79231460D01*
X134575222Y-79223809D01*
X134531066Y-79214380D01*
X134470874Y-79202559D01*
X134391907Y-79187729D01*
X134291430Y-79169277D01*
X134269675Y-79165310D01*
X134205198Y-79152853D01*
X134148989Y-79140666D01*
X134106013Y-79129926D01*
X134081240Y-79121809D01*
X134077918Y-79119916D01*
X134072444Y-79103138D01*
X134067994Y-79065645D01*
X134064572Y-79011794D01*
X134062181Y-78945944D01*
X134060823Y-78872453D01*
X134060501Y-78795680D01*
X134061219Y-78719983D01*
X134062979Y-78649720D01*
X134065784Y-78589250D01*
X134069638Y-78542930D01*
X134074543Y-78515119D01*
X134077500Y-78509427D01*
X134093963Y-78503686D01*
X134131449Y-78494345D01*
X134186225Y-78482215D01*
X134254555Y-78468107D01*
X134332706Y-78452830D01*
X134375284Y-78444823D01*
X134456071Y-78429721D01*
X134528113Y-78416040D01*
X134587889Y-78404467D01*
X134631879Y-78395687D01*
X134656561Y-78390387D01*
X134660623Y-78389212D01*
X134667489Y-78375965D01*
X134682002Y-78344057D01*
X134702229Y-78298047D01*
X134726234Y-78242492D01*
X134752082Y-78181953D01*
X134777840Y-78120986D01*
X134801573Y-78064151D01*
X134821346Y-78016006D01*
X134835224Y-77981110D01*
X134841274Y-77964021D01*
X134841386Y-77963274D01*
X134834528Y-77949793D01*
X134815302Y-77918770D01*
X134785728Y-77873289D01*
X134747827Y-77816432D01*
X134703620Y-77751283D01*
X134677921Y-77713862D01*
X134631093Y-77645247D01*
X134589501Y-77582952D01*
X134555175Y-77530129D01*
X134530143Y-77489927D01*
X134516435Y-77465500D01*
X134514456Y-77460024D01*
X134522966Y-77447278D01*
X134546493Y-77420063D01*
X134582032Y-77381428D01*
X134626577Y-77334423D01*
X134677123Y-77282095D01*
X134730664Y-77227495D01*
X134784195Y-77173670D01*
X134834711Y-77123670D01*
X134879206Y-77080543D01*
X134914675Y-77047339D01*
X134938113Y-77027106D01*
X134945954Y-77022278D01*
X134958720Y-77029067D01*
X134989256Y-77048142D01*
X135034590Y-77077561D01*
X135091756Y-77115381D01*
X135157784Y-77159661D01*
X135207590Y-77193395D01*
X135459236Y-77364512D01*
X135668999Y-77278041D01*
X135878763Y-77191570D01*
X135935611Y-76890018D01*
X135992460Y-76588466D01*
X136620115Y-76588466D01*
X136676964Y-76890018D01*
G36*
X136676964Y-76890018D02*
G01*
X136733812Y-77191570D01*
X137153338Y-77364512D01*
X137404984Y-77193395D01*
X137475458Y-77145750D01*
X137539163Y-77103210D01*
X137593126Y-77067715D01*
X137634373Y-77041210D01*
X137659934Y-77025636D01*
X137666895Y-77022278D01*
X137679435Y-77030914D01*
X137706231Y-77054792D01*
X137744280Y-77090859D01*
X137790579Y-77136067D01*
X137842123Y-77187364D01*
X137895909Y-77241701D01*
X137948935Y-77296028D01*
X137998195Y-77347295D01*
X138040687Y-77392451D01*
X138073407Y-77428446D01*
X138093351Y-77452230D01*
X138098119Y-77460190D01*
X138091257Y-77474865D01*
X138072020Y-77507014D01*
X138042430Y-77553492D01*
X138004510Y-77611156D01*
X137960282Y-77676860D01*
X137934654Y-77714336D01*
X137887941Y-77782768D01*
X137846432Y-77844520D01*
X137812140Y-77896519D01*
X137787080Y-77935692D01*
X137773264Y-77958965D01*
X137771188Y-77963855D01*
X137775895Y-77977755D01*
X137788723Y-78010150D01*
X137807738Y-78056485D01*
X137831003Y-78112206D01*
X137856584Y-78172758D01*
X137882545Y-78233586D01*
X137906950Y-78290136D01*
X137927863Y-78337852D01*
X137943349Y-78372181D01*
X137951472Y-78388568D01*
X137951952Y-78389212D01*
X137964707Y-78392341D01*
X137998677Y-78399321D01*
X138050340Y-78409467D01*
X138116176Y-78422092D01*
X138192664Y-78436509D01*
X138237290Y-78444823D01*
X138319021Y-78460384D01*
X138392843Y-78475192D01*
X138455021Y-78488436D01*
X138501822Y-78499305D01*
X138529509Y-78506989D01*
X138535074Y-78509427D01*
X138540526Y-78525930D01*
X138544924Y-78563200D01*
X138548272Y-78616880D01*
X138550574Y-78682612D01*
X138551832Y-78756037D01*
X138552048Y-78832796D01*
X138551227Y-78908532D01*
X138549371Y-78978886D01*
X138546482Y-79039500D01*
X138542565Y-79086016D01*
X138537622Y-79114075D01*
X138534657Y-79119916D01*
X138516934Y-79126917D01*
X138479381Y-79136927D01*
X138426964Y-79148769D01*
X138364652Y-79161267D01*
X138342900Y-79165310D01*
X138238024Y-79184520D01*
X138155180Y-79199991D01*
X138091630Y-79212337D01*
X138044637Y-79222173D01*
X138011463Y-79230114D01*
X137989371Y-79236776D01*
X137975624Y-79242773D01*
X137967484Y-79248719D01*
X137966345Y-79249894D01*
X137954977Y-79268826D01*
X137937635Y-79305669D01*
X137916050Y-79355913D01*
X137891954Y-79415046D01*
X137867079Y-79478556D01*
X137843157Y-79541932D01*
X137821919Y-79600662D01*
X137805097Y-79650235D01*
X137794422Y-79686139D01*
X137791627Y-79703862D01*
X137791860Y-79704483D01*
X137801331Y-79718970D01*
X137822818Y-79750844D01*
X137854063Y-79796789D01*
X137892807Y-79853485D01*
X137936793Y-79917617D01*
X137949319Y-79935842D01*
X137993984Y-80001914D01*
X138033288Y-80062200D01*
X138065088Y-80113235D01*
X138087245Y-80151560D01*
X138097617Y-80173711D01*
X138098119Y-80176432D01*
X138089405Y-80190736D01*
X138065325Y-80219072D01*
X138028976Y-80258396D01*
X137983453Y-80305661D01*
X137931852Y-80357823D01*
X137877267Y-80411835D01*
X137822794Y-80464653D01*
X137771529Y-80513231D01*
X137726567Y-80554523D01*
X137691004Y-80585485D01*
X137667935Y-80603070D01*
X137661554Y-80605941D01*
X137646699Y-80599178D01*
X137616286Y-80580939D01*
X137575268Y-80554297D01*
X137543709Y-80532852D01*
X137486525Y-80493503D01*
X137418806Y-80447171D01*
X137350880Y-80400913D01*
X137314361Y-80376155D01*
X137190752Y-80292547D01*
X137086991Y-80348650D01*
X137039720Y-80373228D01*
X136999523Y-80392331D01*
X136972326Y-80403227D01*
X136965402Y-80404743D01*
X136957077Y-80393549D01*
X136940654Y-80361917D01*
X136917357Y-80312765D01*
X136888414Y-80249010D01*
X136855050Y-80173571D01*
X136818491Y-80089364D01*
X136779964Y-79999308D01*
X136740694Y-79906321D01*
X136701908Y-79813320D01*
X136664830Y-79723223D01*
X136630689Y-79638948D01*
X136600708Y-79563413D01*
X136576116Y-79499534D01*
X136558136Y-79450231D01*
X136547997Y-79418421D01*
X136546366Y-79407496D01*
X136559291Y-79393561D01*
X136587589Y-79370940D01*
X136625346Y-79344333D01*
X136628515Y-79342228D01*
X136726100Y-79264114D01*
X136804786Y-79172982D01*
X136863891Y-79071745D01*
X136902732Y-78963318D01*
X136920628Y-78850614D01*
X136916897Y-78736548D01*
X136890857Y-78624034D01*
X136841825Y-78515985D01*
X136827400Y-78492345D01*
X136752369Y-78396887D01*
X136663730Y-78320232D01*
X136564549Y-78262780D01*
X136457895Y-78224929D01*
X136346836Y-78207078D01*
X136234439Y-78209625D01*
X136123773Y-78232970D01*
X136017906Y-78277510D01*
X135919905Y-78343645D01*
X135889590Y-78370487D01*
X135812438Y-78454512D01*
X135756218Y-78542966D01*
X135717653Y-78642115D01*
X135696174Y-78740303D01*
X135690872Y-78850697D01*
X135708552Y-78961640D01*
X135747419Y-79069381D01*
X135805677Y-79170169D01*
X135881531Y-79260256D01*
X135973183Y-79335892D01*
X135985228Y-79343864D01*
X136023389Y-79369974D01*
X136052399Y-79392595D01*
X136066268Y-79407039D01*
X136066469Y-79407496D01*
X136063492Y-79423121D01*
X136051689Y-79458582D01*
X136032286Y-79510962D01*
X136006512Y-79577345D01*
X135975591Y-79654814D01*
X135940751Y-79740450D01*
X135903217Y-79831337D01*
X135864217Y-79924559D01*
X135824977Y-80017197D01*
X135786724Y-80106335D01*
X135750683Y-80189055D01*
X135718083Y-80262441D01*
X135690148Y-80323575D01*
X135668105Y-80369541D01*
X135653182Y-80397421D01*
X135647172Y-80404743D01*
X135628809Y-80399041D01*
X135594448Y-80383749D01*
X135550016Y-80361599D01*
X135525583Y-80348650D01*
X135421822Y-80292547D01*
X135298213Y-80376155D01*
X135235114Y-80418987D01*
X135166030Y-80466122D01*
X135101293Y-80510503D01*
X135068866Y-80532852D01*
X135023259Y-80563477D01*
X134984640Y-80587747D01*
X134958048Y-80602587D01*
X134949410Y-80605724D01*
X134936839Y-80597261D01*
X134909016Y-80573636D01*
X134868639Y-80537302D01*
X134818405Y-80490711D01*
X134761012Y-80436317D01*
X134724714Y-80401392D01*
X134661210Y-80338996D01*
X134606327Y-80283188D01*
X134562286Y-80236354D01*
X134531305Y-80200882D01*
X134515602Y-80179161D01*
X134514095Y-80174752D01*
X134521086Y-80157985D01*
X134540406Y-80124082D01*
X134569909Y-80076476D01*
X134607455Y-80018599D01*
X134650900Y-79953884D01*
X134663255Y-79935842D01*
X134708273Y-79870267D01*
X134748660Y-79811228D01*
X134782160Y-79762042D01*
X134806514Y-79726028D01*
X134819464Y-79706502D01*
X134820715Y-79704483D01*
X134818844Y-79688922D01*
X134808913Y-79654709D01*
X134792653Y-79606355D01*
X134771795Y-79548371D01*
X134748073Y-79485270D01*
X134723216Y-79421563D01*
X134698958Y-79361761D01*
X134677029Y-79310376D01*
X134659162Y-79271919D01*
X134647087Y-79250902D01*
X134646229Y-79249894D01*
X134638846Y-79243888D01*
X134626375Y-79237948D01*
X134606080Y-79231460D01*
X134575222Y-79223809D01*
X134531066Y-79214380D01*
X134470874Y-79202559D01*
X134391907Y-79187729D01*
X134291430Y-79169277D01*
X134269675Y-79165310D01*
X134205198Y-79152853D01*
X134148989Y-79140666D01*
X134106013Y-79129926D01*
X134081240Y-79121809D01*
X134077918Y-79119916D01*
X134072444Y-79103138D01*
X134067994Y-79065645D01*
X134064572Y-79011794D01*
X134062181Y-78945944D01*
X134060823Y-78872453D01*
X134060501Y-78795680D01*
X134061219Y-78719983D01*
X134062979Y-78649720D01*
X134065784Y-78589250D01*
X134069638Y-78542930D01*
X134074543Y-78515119D01*
X134077500Y-78509427D01*
X134093963Y-78503686D01*
X134131449Y-78494345D01*
X134186225Y-78482215D01*
X134254555Y-78468107D01*
X134332706Y-78452830D01*
X134375284Y-78444823D01*
X134456071Y-78429721D01*
X134528113Y-78416040D01*
X134587889Y-78404467D01*
X134631879Y-78395687D01*
X134656561Y-78390387D01*
X134660623Y-78389212D01*
X134667489Y-78375965D01*
X134682002Y-78344057D01*
X134702229Y-78298047D01*
X134726234Y-78242492D01*
X134752082Y-78181953D01*
X134777840Y-78120986D01*
X134801573Y-78064151D01*
X134821346Y-78016006D01*
X134835224Y-77981110D01*
X134841274Y-77964021D01*
X134841386Y-77963274D01*
X134834528Y-77949793D01*
X134815302Y-77918770D01*
X134785728Y-77873289D01*
X134747827Y-77816432D01*
X134703620Y-77751283D01*
X134677921Y-77713862D01*
X134631093Y-77645247D01*
X134589501Y-77582952D01*
X134555175Y-77530129D01*
X134530143Y-77489927D01*
X134516435Y-77465500D01*
X134514456Y-77460024D01*
X134522966Y-77447278D01*
X134546493Y-77420063D01*
X134582032Y-77381428D01*
X134626577Y-77334423D01*
X134677123Y-77282095D01*
X134730664Y-77227495D01*
X134784195Y-77173670D01*
X134834711Y-77123670D01*
X134879206Y-77080543D01*
X134914675Y-77047339D01*
X134938113Y-77027106D01*
X134945954Y-77022278D01*
X134958720Y-77029067D01*
X134989256Y-77048142D01*
X135034590Y-77077561D01*
X135091756Y-77115381D01*
X135157784Y-77159661D01*
X135207590Y-77193395D01*
X135459236Y-77364512D01*
X135668999Y-77278041D01*
X135878763Y-77191570D01*
X135935611Y-76890018D01*
X135992460Y-76588466D01*
X136620115Y-76588466D01*
X136676964Y-76890018D01*
G37*
D14*
%TO.C,R6*%
X55377500Y-100672258D02*
X55377500Y-100197742D01*
X56422500Y-100672258D02*
X56422500Y-100197742D01*
%TO.C,C2*%
X96055000Y-77000580D02*
X96055000Y-76719420D01*
X97075000Y-77000580D02*
X97075000Y-76719420D01*
%TO.C,D1*%
X76512500Y-99335000D02*
X78797500Y-99335000D01*
X78797500Y-97865000D02*
X76512500Y-97865000D01*
X78797500Y-99335000D02*
X78797500Y-97865000D01*
%TO.C,C22*%
X70602500Y-97034420D02*
X70602500Y-97315580D01*
X71622500Y-97034420D02*
X71622500Y-97315580D01*
%TO.C,C24*%
X106184420Y-106490000D02*
X106465580Y-106490000D01*
X106184420Y-107510000D02*
X106465580Y-107510000D01*
%TO.C,LED5*%
X149141421Y-104100000D02*
G75*
G02*
X148858579Y-104100000I-141421J0D01*
G01*
X148858579Y-104100000D02*
G75*
G02*
X149141421Y-104100000I141421J0D01*
G01*
%TO.C,R18*%
X63662742Y-89877500D02*
X64137258Y-89877500D01*
X63662742Y-90922500D02*
X64137258Y-90922500D01*
%TO.C,R2*%
X71877500Y-102162742D02*
X71877500Y-102637258D01*
X72922500Y-102162742D02*
X72922500Y-102637258D01*
%TO.C,C25*%
X150159420Y-106490000D02*
X150440580Y-106490000D01*
X150159420Y-107510000D02*
X150440580Y-107510000D01*
%TO.C,LED4*%
X127141421Y-104100000D02*
G75*
G02*
X126858579Y-104100000I-141421J0D01*
G01*
X126858579Y-104100000D02*
G75*
G02*
X127141421Y-104100000I141421J0D01*
G01*
%TO.C,LED3*%
X105141421Y-104100000D02*
G75*
G02*
X104858579Y-104100000I-141421J0D01*
G01*
X104858579Y-104100000D02*
G75*
G02*
X105141421Y-104100000I141421J0D01*
G01*
%TO.C,R16*%
X58902500Y-84747258D02*
X58902500Y-84272742D01*
X59947500Y-84747258D02*
X59947500Y-84272742D01*
%TO.C,R1*%
X92377500Y-81362742D02*
X92377500Y-81837258D01*
X93422500Y-81362742D02*
X93422500Y-81837258D01*
%TO.C,D2*%
X55165000Y-102215000D02*
X55165000Y-104500000D01*
X56635000Y-102215000D02*
X55165000Y-102215000D01*
X56635000Y-104500000D02*
X56635000Y-102215000D01*
D17*
%TO.C,U6*%
X67412500Y-95875000D02*
X67412500Y-98775000D01*
X67412500Y-98775000D02*
X68512500Y-98775000D01*
X68512500Y-95875000D02*
X67412500Y-95875000D01*
X68512500Y-98775000D02*
X68512500Y-95875000D01*
D14*
%TO.C,C17*%
X84159420Y-106490000D02*
X84440580Y-106490000D01*
X84159420Y-107510000D02*
X84440580Y-107510000D01*
D18*
%TO.C,SW1*%
X85844200Y-83114140D02*
X85844200Y-83285860D01*
X85844200Y-84774800D02*
X89755800Y-84774800D01*
X89755800Y-81625200D02*
X85844200Y-81625200D01*
X89755800Y-83285860D02*
X89755800Y-83114140D01*
X87243740Y-82556101D02*
G75*
G02*
X88356260Y-82556101I556260J-643900D01*
G01*
X88356260Y-83843899D02*
G75*
G02*
X87243740Y-83843899I-556260J643900D01*
G01*
X88646273Y-83111386D02*
G75*
G02*
X88646273Y-83288614I-846232J-88614D01*
G01*
%TO.C,SW2*%
X120509200Y-91874140D02*
X120509200Y-92045860D01*
X120509200Y-93534800D02*
X124420800Y-93534800D01*
X124420800Y-90385200D02*
X120509200Y-90385200D01*
X124420800Y-92045860D02*
X124420800Y-91874140D01*
X121618727Y-92048614D02*
G75*
G02*
X121618727Y-91871386I846232J88614D01*
G01*
X121908740Y-91316101D02*
G75*
G02*
X123021260Y-91316101I556260J-643900D01*
G01*
X123021260Y-92603899D02*
G75*
G02*
X121908740Y-92603899I-556260J643900D01*
G01*
D14*
%TO.C,R31*%
X141787258Y-90177500D02*
X141312742Y-90177500D01*
X141787258Y-91222500D02*
X141312742Y-91222500D01*
%TO.C,LED2*%
X83141421Y-104100000D02*
G75*
G02*
X82858579Y-104100000I-141421J0D01*
G01*
X82858579Y-104100000D02*
G75*
G02*
X83141421Y-104100000I141421J0D01*
G01*
%TO.C,LED1*%
X61141421Y-104100000D02*
G75*
G02*
X60858579Y-104100000I-141421J0D01*
G01*
X60858579Y-104100000D02*
G75*
G02*
X61141421Y-104100000I141421J0D01*
G01*
%TO.C,Q1*%
X68640000Y-100940000D02*
X70160000Y-100940000D01*
X68640000Y-101940000D02*
X68640000Y-100940000D01*
X68640000Y-104060000D02*
X68640000Y-103060000D01*
X70160000Y-100940000D02*
X70160000Y-100990000D01*
X70160000Y-102110000D02*
X70160000Y-102890000D01*
X70160000Y-104010000D02*
X70160000Y-104060000D01*
X70160000Y-104060000D02*
X68640000Y-104060000D01*
X70700000Y-102880000D02*
X70460000Y-102550000D01*
X70940000Y-102550000D01*
X70700000Y-102880000D01*
G36*
X70700000Y-102880000D02*
G01*
X70460000Y-102550000D01*
X70940000Y-102550000D01*
X70700000Y-102880000D01*
G37*
%TO.C,R5*%
X65437258Y-101977500D02*
X64962742Y-101977500D01*
X65437258Y-103022500D02*
X64962742Y-103022500D01*
%TO.C,C3*%
X94455000Y-77000580D02*
X94455000Y-76719420D01*
X95475000Y-77000580D02*
X95475000Y-76719420D01*
D15*
%TO.C,LS1*%
X145200000Y-84700000D02*
X157200000Y-84700000D01*
X145200000Y-88300000D02*
X145200000Y-84700000D01*
X145200000Y-96700000D02*
X145200000Y-93100000D01*
X157200000Y-84700000D02*
X157200000Y-88300000D01*
X157200000Y-93100000D02*
X157200000Y-96700000D01*
X157200000Y-96700000D02*
X145200000Y-96700000D01*
D19*
X157800000Y-90700000D02*
X157800000Y-90700000D01*
X157900000Y-90700000D02*
X157900000Y-90700000D01*
X157800000Y-90700000D02*
G75*
G02*
X157900000Y-90700000I50000J0D01*
G01*
X157900000Y-90700000D02*
G75*
G02*
X157800000Y-90700000I-50000J0D01*
G01*
%TD*%
M02*
