M48
; DRILL file {KiCad 9.0.7} date 2026-06-21T11:52:22-0500
; FORMAT={-:-/ absolute / inch / decimal}
; #@! TF.CreationDate,2026-06-21T11:52:22-05:00
; #@! TF.GenerationSoftware,Kicad,Pcbnew,9.0.7
; #@! TF.FileFunction,Plated,1,2,PTH
FMAT,2
INCH
; #@! TA.AperFunction,Plated,PTH,ComponentDrill
T1C0.0079
; #@! TA.AperFunction,Plated,PTH,ViaDrill
T2C0.0100
; #@! TA.AperFunction,Plated,PTH,ComponentDrill
T3C0.0236
%
G90
G05
T1
X4.1128Y-3.2803
X4.1128Y-3.3354
X4.1404Y-3.2528
X4.1404Y-3.3079
X4.1404Y-3.363
X4.1679Y-3.2803
X4.1679Y-3.3354
X4.1955Y-3.2528
X4.1955Y-3.3079
X4.1955Y-3.363
X4.223Y-3.2803
X4.223Y-3.3354
T2
X2.4094Y-3.2953
X2.4134Y-3.4488
X2.4409Y-4.3898
X2.5Y-3.8583
X2.5984Y-4.0945
X2.5984Y-4.2126
X2.6024Y-3.5984
X2.6063Y-3.748
X2.8583Y-3.8543
X2.8976Y-4.0
X2.9016Y-3.5433
X2.9016Y-3.7992
X2.9724Y-4.0
X3.189Y-4.2126
X3.2087Y-3.8268
X3.3071Y-4.3937
X3.4252Y-4.0945
X3.4646Y-4.2126
X3.685Y-3.0
X3.787Y-3.1539
X3.815Y-3.2047
X3.952Y-3.8181
X3.9567Y-3.0039
X4.0945Y-4.2126
X4.1732Y-4.4016
X4.2913Y-4.0945
X4.3307Y-4.2126
X4.6378Y-3.0551
X4.6457Y-3.1024
X4.6496Y-3.0039
X4.752Y-3.5197
X4.9606Y-4.2126
X5.0394Y-4.3976
X5.1575Y-4.0945
X5.1969Y-4.2126
X5.5433Y-3.5157
X5.8268Y-4.2126
X5.9055Y-4.3976
X6.0236Y-4.0945
X6.0236Y-4.252
T3
G00X2.1907Y-3.4362
M15
G01X2.1593Y-3.4362
M16
G05
G00X2.1907Y-3.7764
M15
G01X2.1593Y-3.7764
M16
G05
G00X2.3612Y-3.4362
M15
G01X2.3179Y-3.4362
M16
G05
G00X2.3612Y-3.7764
M15
G01X2.3179Y-3.7764
M16
G05
M30
